%TF.GenerationSoftware,KiCad,Pcbnew,9.0.0*%
%TF.CreationDate,2025-03-31T18:12:05+05:30*%
%TF.ProjectId,Buck,4275636b-2e6b-4696-9361-645f70636258,rev?*%
%TF.SameCoordinates,Original*%
%TF.FileFunction,Legend,Top*%
%TF.FilePolarity,Positive*%
%FSLAX46Y46*%
G04 Gerber Fmt 4.6, Leading zero omitted, Abs format (unit mm)*
G04 Created by KiCad (PCBNEW 9.0.0) date 2025-03-31 18:12:05*
%MOMM*%
%LPD*%
G01*
G04 APERTURE LIST*
%ADD10C,0.153000*%
%ADD11C,0.175000*%
%ADD12C,0.300000*%
%ADD13C,0.120000*%
%ADD14C,0.100000*%
%ADD15C,0.200000*%
%ADD16C,0.000000*%
G04 APERTURE END LIST*
D10*
X149120657Y-112574944D02*
X149120657Y-111944944D01*
X149120657Y-111944944D02*
X149270657Y-111944944D01*
X149270657Y-111944944D02*
X149360657Y-111974944D01*
X149360657Y-111974944D02*
X149420657Y-112034944D01*
X149420657Y-112034944D02*
X149450657Y-112094944D01*
X149450657Y-112094944D02*
X149480657Y-112214944D01*
X149480657Y-112214944D02*
X149480657Y-112304944D01*
X149480657Y-112304944D02*
X149450657Y-112424944D01*
X149450657Y-112424944D02*
X149420657Y-112484944D01*
X149420657Y-112484944D02*
X149360657Y-112544944D01*
X149360657Y-112544944D02*
X149270657Y-112574944D01*
X149270657Y-112574944D02*
X149120657Y-112574944D01*
X148530657Y-119954944D02*
X148620657Y-119984944D01*
X148620657Y-119984944D02*
X148770657Y-119984944D01*
X148770657Y-119984944D02*
X148830657Y-119954944D01*
X148830657Y-119954944D02*
X148860657Y-119924944D01*
X148860657Y-119924944D02*
X148890657Y-119864944D01*
X148890657Y-119864944D02*
X148890657Y-119804944D01*
X148890657Y-119804944D02*
X148860657Y-119744944D01*
X148860657Y-119744944D02*
X148830657Y-119714944D01*
X148830657Y-119714944D02*
X148770657Y-119684944D01*
X148770657Y-119684944D02*
X148650657Y-119654944D01*
X148650657Y-119654944D02*
X148590657Y-119624944D01*
X148590657Y-119624944D02*
X148560657Y-119594944D01*
X148560657Y-119594944D02*
X148530657Y-119534944D01*
X148530657Y-119534944D02*
X148530657Y-119474944D01*
X148530657Y-119474944D02*
X148560657Y-119414944D01*
X148560657Y-119414944D02*
X148590657Y-119384944D01*
X148590657Y-119384944D02*
X148650657Y-119354944D01*
X148650657Y-119354944D02*
X148800657Y-119354944D01*
X148800657Y-119354944D02*
X148890657Y-119384944D01*
X151690657Y-119974944D02*
X151780657Y-120004944D01*
X151780657Y-120004944D02*
X151930657Y-120004944D01*
X151930657Y-120004944D02*
X151990657Y-119974944D01*
X151990657Y-119974944D02*
X152020657Y-119944944D01*
X152020657Y-119944944D02*
X152050657Y-119884944D01*
X152050657Y-119884944D02*
X152050657Y-119824944D01*
X152050657Y-119824944D02*
X152020657Y-119764944D01*
X152020657Y-119764944D02*
X151990657Y-119734944D01*
X151990657Y-119734944D02*
X151930657Y-119704944D01*
X151930657Y-119704944D02*
X151810657Y-119674944D01*
X151810657Y-119674944D02*
X151750657Y-119644944D01*
X151750657Y-119644944D02*
X151720657Y-119614944D01*
X151720657Y-119614944D02*
X151690657Y-119554944D01*
X151690657Y-119554944D02*
X151690657Y-119494944D01*
X151690657Y-119494944D02*
X151720657Y-119434944D01*
X151720657Y-119434944D02*
X151750657Y-119404944D01*
X151750657Y-119404944D02*
X151810657Y-119374944D01*
X151810657Y-119374944D02*
X151960657Y-119374944D01*
X151960657Y-119374944D02*
X152050657Y-119404944D01*
X122060657Y-117464944D02*
X122540657Y-117464944D01*
X122300657Y-117704944D02*
X122300657Y-117224944D01*
X122750657Y-117074944D02*
X122960657Y-117704944D01*
X122960657Y-117704944D02*
X123170657Y-117074944D01*
X123380657Y-117704944D02*
X123380657Y-117284944D01*
X123380657Y-117074944D02*
X123350657Y-117104944D01*
X123350657Y-117104944D02*
X123380657Y-117134944D01*
X123380657Y-117134944D02*
X123410657Y-117104944D01*
X123410657Y-117104944D02*
X123380657Y-117074944D01*
X123380657Y-117074944D02*
X123380657Y-117134944D01*
X123680657Y-117284944D02*
X123680657Y-117704944D01*
X123680657Y-117344944D02*
X123710657Y-117314944D01*
X123710657Y-117314944D02*
X123770657Y-117284944D01*
X123770657Y-117284944D02*
X123860657Y-117284944D01*
X123860657Y-117284944D02*
X123920657Y-117314944D01*
X123920657Y-117314944D02*
X123950657Y-117374944D01*
X123950657Y-117374944D02*
X123950657Y-117704944D01*
X152800657Y-112564944D02*
X152800657Y-111934944D01*
X152800657Y-111934944D02*
X152950657Y-111934944D01*
X152950657Y-111934944D02*
X153040657Y-111964944D01*
X153040657Y-111964944D02*
X153100657Y-112024944D01*
X153100657Y-112024944D02*
X153130657Y-112084944D01*
X153130657Y-112084944D02*
X153160657Y-112204944D01*
X153160657Y-112204944D02*
X153160657Y-112294944D01*
X153160657Y-112294944D02*
X153130657Y-112414944D01*
X153130657Y-112414944D02*
X153100657Y-112474944D01*
X153100657Y-112474944D02*
X153040657Y-112534944D01*
X153040657Y-112534944D02*
X152950657Y-112564944D01*
X152950657Y-112564944D02*
X152800657Y-112564944D01*
X149090657Y-121184944D02*
X149090657Y-120554944D01*
X149090657Y-120554944D02*
X149240657Y-120554944D01*
X149240657Y-120554944D02*
X149330657Y-120584944D01*
X149330657Y-120584944D02*
X149390657Y-120644944D01*
X149390657Y-120644944D02*
X149420657Y-120704944D01*
X149420657Y-120704944D02*
X149450657Y-120824944D01*
X149450657Y-120824944D02*
X149450657Y-120914944D01*
X149450657Y-120914944D02*
X149420657Y-121034944D01*
X149420657Y-121034944D02*
X149390657Y-121094944D01*
X149390657Y-121094944D02*
X149330657Y-121154944D01*
X149330657Y-121154944D02*
X149240657Y-121184944D01*
X149240657Y-121184944D02*
X149090657Y-121184944D01*
X150430657Y-128454944D02*
X150520657Y-128484944D01*
X150520657Y-128484944D02*
X150670657Y-128484944D01*
X150670657Y-128484944D02*
X150730657Y-128454944D01*
X150730657Y-128454944D02*
X150760657Y-128424944D01*
X150760657Y-128424944D02*
X150790657Y-128364944D01*
X150790657Y-128364944D02*
X150790657Y-128304944D01*
X150790657Y-128304944D02*
X150760657Y-128244944D01*
X150760657Y-128244944D02*
X150730657Y-128214944D01*
X150730657Y-128214944D02*
X150670657Y-128184944D01*
X150670657Y-128184944D02*
X150550657Y-128154944D01*
X150550657Y-128154944D02*
X150490657Y-128124944D01*
X150490657Y-128124944D02*
X150460657Y-128094944D01*
X150460657Y-128094944D02*
X150430657Y-128034944D01*
X150430657Y-128034944D02*
X150430657Y-127974944D01*
X150430657Y-127974944D02*
X150460657Y-127914944D01*
X150460657Y-127914944D02*
X150490657Y-127884944D01*
X150490657Y-127884944D02*
X150550657Y-127854944D01*
X150550657Y-127854944D02*
X150700657Y-127854944D01*
X150700657Y-127854944D02*
X150790657Y-127884944D01*
X153180657Y-127884944D02*
X153120657Y-127854944D01*
X153120657Y-127854944D02*
X153030657Y-127854944D01*
X153030657Y-127854944D02*
X152940657Y-127884944D01*
X152940657Y-127884944D02*
X152880657Y-127944944D01*
X152880657Y-127944944D02*
X152850657Y-128004944D01*
X152850657Y-128004944D02*
X152820657Y-128124944D01*
X152820657Y-128124944D02*
X152820657Y-128214944D01*
X152820657Y-128214944D02*
X152850657Y-128334944D01*
X152850657Y-128334944D02*
X152880657Y-128394944D01*
X152880657Y-128394944D02*
X152940657Y-128454944D01*
X152940657Y-128454944D02*
X153030657Y-128484944D01*
X153030657Y-128484944D02*
X153090657Y-128484944D01*
X153090657Y-128484944D02*
X153180657Y-128454944D01*
X153180657Y-128454944D02*
X153210657Y-128424944D01*
X153210657Y-128424944D02*
X153210657Y-128214944D01*
X153210657Y-128214944D02*
X153090657Y-128214944D01*
X150350657Y-121174944D02*
X150350657Y-120544944D01*
X150350657Y-120544944D02*
X150500657Y-120544944D01*
X150500657Y-120544944D02*
X150590657Y-120574944D01*
X150590657Y-120574944D02*
X150650657Y-120634944D01*
X150650657Y-120634944D02*
X150680657Y-120694944D01*
X150680657Y-120694944D02*
X150710657Y-120814944D01*
X150710657Y-120814944D02*
X150710657Y-120904944D01*
X150710657Y-120904944D02*
X150680657Y-121024944D01*
X150680657Y-121024944D02*
X150650657Y-121084944D01*
X150650657Y-121084944D02*
X150590657Y-121144944D01*
X150590657Y-121144944D02*
X150500657Y-121174944D01*
X150500657Y-121174944D02*
X150350657Y-121174944D01*
X151670657Y-128454944D02*
X151760657Y-128484944D01*
X151760657Y-128484944D02*
X151910657Y-128484944D01*
X151910657Y-128484944D02*
X151970657Y-128454944D01*
X151970657Y-128454944D02*
X152000657Y-128424944D01*
X152000657Y-128424944D02*
X152030657Y-128364944D01*
X152030657Y-128364944D02*
X152030657Y-128304944D01*
X152030657Y-128304944D02*
X152000657Y-128244944D01*
X152000657Y-128244944D02*
X151970657Y-128214944D01*
X151970657Y-128214944D02*
X151910657Y-128184944D01*
X151910657Y-128184944D02*
X151790657Y-128154944D01*
X151790657Y-128154944D02*
X151730657Y-128124944D01*
X151730657Y-128124944D02*
X151700657Y-128094944D01*
X151700657Y-128094944D02*
X151670657Y-128034944D01*
X151670657Y-128034944D02*
X151670657Y-127974944D01*
X151670657Y-127974944D02*
X151700657Y-127914944D01*
X151700657Y-127914944D02*
X151730657Y-127884944D01*
X151730657Y-127884944D02*
X151790657Y-127854944D01*
X151790657Y-127854944D02*
X151940657Y-127854944D01*
X151940657Y-127854944D02*
X152030657Y-127884944D01*
X145280657Y-124724944D02*
X144920657Y-124724944D01*
X145100657Y-124724944D02*
X145100657Y-124094944D01*
X145100657Y-124094944D02*
X145040657Y-124184944D01*
X145040657Y-124184944D02*
X144980657Y-124244944D01*
X144980657Y-124244944D02*
X144920657Y-124274944D01*
X145520657Y-124154944D02*
X145550657Y-124124944D01*
X145550657Y-124124944D02*
X145610657Y-124094944D01*
X145610657Y-124094944D02*
X145760657Y-124094944D01*
X145760657Y-124094944D02*
X145820657Y-124124944D01*
X145820657Y-124124944D02*
X145850657Y-124154944D01*
X145850657Y-124154944D02*
X145880657Y-124214944D01*
X145880657Y-124214944D02*
X145880657Y-124274944D01*
X145880657Y-124274944D02*
X145850657Y-124364944D01*
X145850657Y-124364944D02*
X145490657Y-124724944D01*
X145490657Y-124724944D02*
X145880657Y-124724944D01*
X138460657Y-124794944D02*
X138100657Y-124794944D01*
X138280657Y-124794944D02*
X138280657Y-124164944D01*
X138280657Y-124164944D02*
X138220657Y-124254944D01*
X138220657Y-124254944D02*
X138160657Y-124314944D01*
X138160657Y-124314944D02*
X138100657Y-124344944D01*
X187773335Y-145129210D02*
X187906668Y-145595877D01*
X187906668Y-145595877D02*
X188040001Y-145262544D01*
X188040001Y-145262544D02*
X188173335Y-145595877D01*
X188173335Y-145595877D02*
X188306668Y-145129210D01*
X188506668Y-145129210D02*
X188640001Y-145595877D01*
X188640001Y-145595877D02*
X188773334Y-145262544D01*
X188773334Y-145262544D02*
X188906668Y-145595877D01*
X188906668Y-145595877D02*
X189040001Y-145129210D01*
X189240001Y-145129210D02*
X189373334Y-145595877D01*
X189373334Y-145595877D02*
X189506667Y-145262544D01*
X189506667Y-145262544D02*
X189640001Y-145595877D01*
X189640001Y-145595877D02*
X189773334Y-145129210D01*
X190040000Y-145529210D02*
X190073334Y-145562544D01*
X190073334Y-145562544D02*
X190040000Y-145595877D01*
X190040000Y-145595877D02*
X190006667Y-145562544D01*
X190006667Y-145562544D02*
X190040000Y-145529210D01*
X190040000Y-145529210D02*
X190040000Y-145595877D01*
X190373333Y-145595877D02*
X190373333Y-144895877D01*
X190373333Y-145162544D02*
X190440000Y-145129210D01*
X190440000Y-145129210D02*
X190573333Y-145129210D01*
X190573333Y-145129210D02*
X190640000Y-145162544D01*
X190640000Y-145162544D02*
X190673333Y-145195877D01*
X190673333Y-145195877D02*
X190706667Y-145262544D01*
X190706667Y-145262544D02*
X190706667Y-145462544D01*
X190706667Y-145462544D02*
X190673333Y-145529210D01*
X190673333Y-145529210D02*
X190640000Y-145562544D01*
X190640000Y-145562544D02*
X190573333Y-145595877D01*
X190573333Y-145595877D02*
X190440000Y-145595877D01*
X190440000Y-145595877D02*
X190373333Y-145562544D01*
X191106666Y-145595877D02*
X191040000Y-145562544D01*
X191040000Y-145562544D02*
X191006666Y-145529210D01*
X191006666Y-145529210D02*
X190973333Y-145462544D01*
X190973333Y-145462544D02*
X190973333Y-145262544D01*
X190973333Y-145262544D02*
X191006666Y-145195877D01*
X191006666Y-145195877D02*
X191040000Y-145162544D01*
X191040000Y-145162544D02*
X191106666Y-145129210D01*
X191106666Y-145129210D02*
X191206666Y-145129210D01*
X191206666Y-145129210D02*
X191273333Y-145162544D01*
X191273333Y-145162544D02*
X191306666Y-145195877D01*
X191306666Y-145195877D02*
X191340000Y-145262544D01*
X191340000Y-145262544D02*
X191340000Y-145462544D01*
X191340000Y-145462544D02*
X191306666Y-145529210D01*
X191306666Y-145529210D02*
X191273333Y-145562544D01*
X191273333Y-145562544D02*
X191206666Y-145595877D01*
X191206666Y-145595877D02*
X191106666Y-145595877D01*
X191739999Y-145595877D02*
X191673333Y-145562544D01*
X191673333Y-145562544D02*
X191639999Y-145495877D01*
X191639999Y-145495877D02*
X191639999Y-144895877D01*
X191906666Y-145129210D02*
X192173333Y-145129210D01*
X192006666Y-144895877D02*
X192006666Y-145495877D01*
X192006666Y-145495877D02*
X192040000Y-145562544D01*
X192040000Y-145562544D02*
X192106666Y-145595877D01*
X192106666Y-145595877D02*
X192173333Y-145595877D01*
X192340000Y-145129210D02*
X192706666Y-145129210D01*
X192706666Y-145129210D02*
X192340000Y-145595877D01*
X192340000Y-145595877D02*
X192706666Y-145595877D01*
X192973333Y-145595877D02*
X192973333Y-145129210D01*
X192973333Y-145262544D02*
X193006667Y-145195877D01*
X193006667Y-145195877D02*
X193040000Y-145162544D01*
X193040000Y-145162544D02*
X193106667Y-145129210D01*
X193106667Y-145129210D02*
X193173333Y-145129210D01*
X193406666Y-145129210D02*
X193406666Y-145595877D01*
X193406666Y-145195877D02*
X193440000Y-145162544D01*
X193440000Y-145162544D02*
X193506666Y-145129210D01*
X193506666Y-145129210D02*
X193606666Y-145129210D01*
X193606666Y-145129210D02*
X193673333Y-145162544D01*
X193673333Y-145162544D02*
X193706666Y-145229210D01*
X193706666Y-145229210D02*
X193706666Y-145595877D01*
X194339999Y-145595877D02*
X194339999Y-144895877D01*
X194339999Y-145562544D02*
X194273333Y-145595877D01*
X194273333Y-145595877D02*
X194139999Y-145595877D01*
X194139999Y-145595877D02*
X194073333Y-145562544D01*
X194073333Y-145562544D02*
X194039999Y-145529210D01*
X194039999Y-145529210D02*
X194006666Y-145462544D01*
X194006666Y-145462544D02*
X194006666Y-145262544D01*
X194006666Y-145262544D02*
X194039999Y-145195877D01*
X194039999Y-145195877D02*
X194073333Y-145162544D01*
X194073333Y-145162544D02*
X194139999Y-145129210D01*
X194139999Y-145129210D02*
X194273333Y-145129210D01*
X194273333Y-145129210D02*
X194339999Y-145162544D01*
X194673332Y-145529210D02*
X194706666Y-145562544D01*
X194706666Y-145562544D02*
X194673332Y-145595877D01*
X194673332Y-145595877D02*
X194639999Y-145562544D01*
X194639999Y-145562544D02*
X194673332Y-145529210D01*
X194673332Y-145529210D02*
X194673332Y-145595877D01*
X195306665Y-145562544D02*
X195239999Y-145595877D01*
X195239999Y-145595877D02*
X195106665Y-145595877D01*
X195106665Y-145595877D02*
X195039999Y-145562544D01*
X195039999Y-145562544D02*
X195006665Y-145529210D01*
X195006665Y-145529210D02*
X194973332Y-145462544D01*
X194973332Y-145462544D02*
X194973332Y-145262544D01*
X194973332Y-145262544D02*
X195006665Y-145195877D01*
X195006665Y-145195877D02*
X195039999Y-145162544D01*
X195039999Y-145162544D02*
X195106665Y-145129210D01*
X195106665Y-145129210D02*
X195239999Y-145129210D01*
X195239999Y-145129210D02*
X195306665Y-145162544D01*
X195706665Y-145595877D02*
X195639999Y-145562544D01*
X195639999Y-145562544D02*
X195606665Y-145529210D01*
X195606665Y-145529210D02*
X195573332Y-145462544D01*
X195573332Y-145462544D02*
X195573332Y-145262544D01*
X195573332Y-145262544D02*
X195606665Y-145195877D01*
X195606665Y-145195877D02*
X195639999Y-145162544D01*
X195639999Y-145162544D02*
X195706665Y-145129210D01*
X195706665Y-145129210D02*
X195806665Y-145129210D01*
X195806665Y-145129210D02*
X195873332Y-145162544D01*
X195873332Y-145162544D02*
X195906665Y-145195877D01*
X195906665Y-145195877D02*
X195939999Y-145262544D01*
X195939999Y-145262544D02*
X195939999Y-145462544D01*
X195939999Y-145462544D02*
X195906665Y-145529210D01*
X195906665Y-145529210D02*
X195873332Y-145562544D01*
X195873332Y-145562544D02*
X195806665Y-145595877D01*
X195806665Y-145595877D02*
X195706665Y-145595877D01*
X196239998Y-145595877D02*
X196239998Y-145129210D01*
X196239998Y-145195877D02*
X196273332Y-145162544D01*
X196273332Y-145162544D02*
X196339998Y-145129210D01*
X196339998Y-145129210D02*
X196439998Y-145129210D01*
X196439998Y-145129210D02*
X196506665Y-145162544D01*
X196506665Y-145162544D02*
X196539998Y-145229210D01*
X196539998Y-145229210D02*
X196539998Y-145595877D01*
X196539998Y-145229210D02*
X196573332Y-145162544D01*
X196573332Y-145162544D02*
X196639998Y-145129210D01*
X196639998Y-145129210D02*
X196739998Y-145129210D01*
X196739998Y-145129210D02*
X196806665Y-145162544D01*
X196806665Y-145162544D02*
X196839998Y-145229210D01*
X196839998Y-145229210D02*
X196839998Y-145595877D01*
X145330657Y-122544944D02*
X144970657Y-122544944D01*
X145150657Y-122544944D02*
X145150657Y-121914944D01*
X145150657Y-121914944D02*
X145090657Y-122004944D01*
X145090657Y-122004944D02*
X145030657Y-122064944D01*
X145030657Y-122064944D02*
X144970657Y-122094944D01*
X145540657Y-121914944D02*
X145930657Y-121914944D01*
X145930657Y-121914944D02*
X145720657Y-122154944D01*
X145720657Y-122154944D02*
X145810657Y-122154944D01*
X145810657Y-122154944D02*
X145870657Y-122184944D01*
X145870657Y-122184944D02*
X145900657Y-122214944D01*
X145900657Y-122214944D02*
X145930657Y-122274944D01*
X145930657Y-122274944D02*
X145930657Y-122424944D01*
X145930657Y-122424944D02*
X145900657Y-122484944D01*
X145900657Y-122484944D02*
X145870657Y-122514944D01*
X145870657Y-122514944D02*
X145810657Y-122544944D01*
X145810657Y-122544944D02*
X145630657Y-122544944D01*
X145630657Y-122544944D02*
X145570657Y-122514944D01*
X145570657Y-122514944D02*
X145540657Y-122484944D01*
X152930657Y-121174944D02*
X152930657Y-120544944D01*
X152930657Y-120544944D02*
X153080657Y-120544944D01*
X153080657Y-120544944D02*
X153170657Y-120574944D01*
X153170657Y-120574944D02*
X153230657Y-120634944D01*
X153230657Y-120634944D02*
X153260657Y-120694944D01*
X153260657Y-120694944D02*
X153290657Y-120814944D01*
X153290657Y-120814944D02*
X153290657Y-120904944D01*
X153290657Y-120904944D02*
X153260657Y-121024944D01*
X153260657Y-121024944D02*
X153230657Y-121084944D01*
X153230657Y-121084944D02*
X153170657Y-121144944D01*
X153170657Y-121144944D02*
X153080657Y-121174944D01*
X153080657Y-121174944D02*
X152930657Y-121174944D01*
X150430657Y-119949384D02*
X150520657Y-119979384D01*
X150520657Y-119979384D02*
X150670657Y-119979384D01*
X150670657Y-119979384D02*
X150730657Y-119949384D01*
X150730657Y-119949384D02*
X150760657Y-119919384D01*
X150760657Y-119919384D02*
X150790657Y-119859384D01*
X150790657Y-119859384D02*
X150790657Y-119799384D01*
X150790657Y-119799384D02*
X150760657Y-119739384D01*
X150760657Y-119739384D02*
X150730657Y-119709384D01*
X150730657Y-119709384D02*
X150670657Y-119679384D01*
X150670657Y-119679384D02*
X150550657Y-119649384D01*
X150550657Y-119649384D02*
X150490657Y-119619384D01*
X150490657Y-119619384D02*
X150460657Y-119589384D01*
X150460657Y-119589384D02*
X150430657Y-119529384D01*
X150430657Y-119529384D02*
X150430657Y-119469384D01*
X150430657Y-119469384D02*
X150460657Y-119409384D01*
X150460657Y-119409384D02*
X150490657Y-119379384D01*
X150490657Y-119379384D02*
X150550657Y-119349384D01*
X150550657Y-119349384D02*
X150700657Y-119349384D01*
X150700657Y-119349384D02*
X150790657Y-119379384D01*
X137210657Y-121784944D02*
X137240657Y-121754944D01*
X137240657Y-121754944D02*
X137300657Y-121724944D01*
X137300657Y-121724944D02*
X137450657Y-121724944D01*
X137450657Y-121724944D02*
X137510657Y-121754944D01*
X137510657Y-121754944D02*
X137540657Y-121784944D01*
X137540657Y-121784944D02*
X137570657Y-121844944D01*
X137570657Y-121844944D02*
X137570657Y-121904944D01*
X137570657Y-121904944D02*
X137540657Y-121994944D01*
X137540657Y-121994944D02*
X137180657Y-122354944D01*
X137180657Y-122354944D02*
X137570657Y-122354944D01*
X138110657Y-121934944D02*
X138110657Y-122354944D01*
X137960657Y-121694944D02*
X137810657Y-122144944D01*
X137810657Y-122144944D02*
X138200657Y-122144944D01*
X150340657Y-112544944D02*
X150340657Y-111914944D01*
X150340657Y-111914944D02*
X150490657Y-111914944D01*
X150490657Y-111914944D02*
X150580657Y-111944944D01*
X150580657Y-111944944D02*
X150640657Y-112004944D01*
X150640657Y-112004944D02*
X150670657Y-112064944D01*
X150670657Y-112064944D02*
X150700657Y-112184944D01*
X150700657Y-112184944D02*
X150700657Y-112274944D01*
X150700657Y-112274944D02*
X150670657Y-112394944D01*
X150670657Y-112394944D02*
X150640657Y-112454944D01*
X150640657Y-112454944D02*
X150580657Y-112514944D01*
X150580657Y-112514944D02*
X150490657Y-112544944D01*
X150490657Y-112544944D02*
X150340657Y-112544944D01*
X151640657Y-121174944D02*
X151640657Y-120544944D01*
X151640657Y-120544944D02*
X151790657Y-120544944D01*
X151790657Y-120544944D02*
X151880657Y-120574944D01*
X151880657Y-120574944D02*
X151940657Y-120634944D01*
X151940657Y-120634944D02*
X151970657Y-120694944D01*
X151970657Y-120694944D02*
X152000657Y-120814944D01*
X152000657Y-120814944D02*
X152000657Y-120904944D01*
X152000657Y-120904944D02*
X151970657Y-121024944D01*
X151970657Y-121024944D02*
X151940657Y-121084944D01*
X151940657Y-121084944D02*
X151880657Y-121144944D01*
X151880657Y-121144944D02*
X151790657Y-121174944D01*
X151790657Y-121174944D02*
X151640657Y-121174944D01*
D11*
X128065131Y-100008566D02*
X128165131Y-100041900D01*
X128165131Y-100041900D02*
X128198464Y-100075233D01*
X128198464Y-100075233D02*
X128231797Y-100141900D01*
X128231797Y-100141900D02*
X128231797Y-100241900D01*
X128231797Y-100241900D02*
X128198464Y-100308566D01*
X128198464Y-100308566D02*
X128165131Y-100341900D01*
X128165131Y-100341900D02*
X128098464Y-100375233D01*
X128098464Y-100375233D02*
X127831797Y-100375233D01*
X127831797Y-100375233D02*
X127831797Y-99675233D01*
X127831797Y-99675233D02*
X128065131Y-99675233D01*
X128065131Y-99675233D02*
X128131797Y-99708566D01*
X128131797Y-99708566D02*
X128165131Y-99741900D01*
X128165131Y-99741900D02*
X128198464Y-99808566D01*
X128198464Y-99808566D02*
X128198464Y-99875233D01*
X128198464Y-99875233D02*
X128165131Y-99941900D01*
X128165131Y-99941900D02*
X128131797Y-99975233D01*
X128131797Y-99975233D02*
X128065131Y-100008566D01*
X128065131Y-100008566D02*
X127831797Y-100008566D01*
X128631797Y-100375233D02*
X128565131Y-100341900D01*
X128565131Y-100341900D02*
X128531797Y-100308566D01*
X128531797Y-100308566D02*
X128498464Y-100241900D01*
X128498464Y-100241900D02*
X128498464Y-100041900D01*
X128498464Y-100041900D02*
X128531797Y-99975233D01*
X128531797Y-99975233D02*
X128565131Y-99941900D01*
X128565131Y-99941900D02*
X128631797Y-99908566D01*
X128631797Y-99908566D02*
X128731797Y-99908566D01*
X128731797Y-99908566D02*
X128798464Y-99941900D01*
X128798464Y-99941900D02*
X128831797Y-99975233D01*
X128831797Y-99975233D02*
X128865131Y-100041900D01*
X128865131Y-100041900D02*
X128865131Y-100241900D01*
X128865131Y-100241900D02*
X128831797Y-100308566D01*
X128831797Y-100308566D02*
X128798464Y-100341900D01*
X128798464Y-100341900D02*
X128731797Y-100375233D01*
X128731797Y-100375233D02*
X128631797Y-100375233D01*
X129265130Y-100375233D02*
X129198464Y-100341900D01*
X129198464Y-100341900D02*
X129165130Y-100275233D01*
X129165130Y-100275233D02*
X129165130Y-99675233D01*
X129431797Y-99908566D02*
X129698464Y-99908566D01*
X129531797Y-99675233D02*
X129531797Y-100275233D01*
X129531797Y-100275233D02*
X129565131Y-100341900D01*
X129565131Y-100341900D02*
X129631797Y-100375233D01*
X129631797Y-100375233D02*
X129698464Y-100375233D01*
X129865131Y-99908566D02*
X130231797Y-99908566D01*
X130231797Y-99908566D02*
X129865131Y-100375233D01*
X129865131Y-100375233D02*
X130231797Y-100375233D01*
X131431797Y-100375233D02*
X131198464Y-100041900D01*
X131031797Y-100375233D02*
X131031797Y-99675233D01*
X131031797Y-99675233D02*
X131298464Y-99675233D01*
X131298464Y-99675233D02*
X131365131Y-99708566D01*
X131365131Y-99708566D02*
X131398464Y-99741900D01*
X131398464Y-99741900D02*
X131431797Y-99808566D01*
X131431797Y-99808566D02*
X131431797Y-99908566D01*
X131431797Y-99908566D02*
X131398464Y-99975233D01*
X131398464Y-99975233D02*
X131365131Y-100008566D01*
X131365131Y-100008566D02*
X131298464Y-100041900D01*
X131298464Y-100041900D02*
X131031797Y-100041900D01*
X132298464Y-100375233D02*
X132265131Y-100375233D01*
X132265131Y-100375233D02*
X132198464Y-100341900D01*
X132198464Y-100341900D02*
X132098464Y-100241900D01*
X132098464Y-100241900D02*
X131931797Y-100041900D01*
X131931797Y-100041900D02*
X131865131Y-99941900D01*
X131865131Y-99941900D02*
X131831797Y-99841900D01*
X131831797Y-99841900D02*
X131831797Y-99775233D01*
X131831797Y-99775233D02*
X131865131Y-99708566D01*
X131865131Y-99708566D02*
X131931797Y-99675233D01*
X131931797Y-99675233D02*
X131965131Y-99675233D01*
X131965131Y-99675233D02*
X132031797Y-99708566D01*
X132031797Y-99708566D02*
X132065131Y-99775233D01*
X132065131Y-99775233D02*
X132065131Y-99808566D01*
X132065131Y-99808566D02*
X132031797Y-99875233D01*
X132031797Y-99875233D02*
X131998464Y-99908566D01*
X131998464Y-99908566D02*
X131798464Y-100041900D01*
X131798464Y-100041900D02*
X131765131Y-100075233D01*
X131765131Y-100075233D02*
X131731797Y-100141900D01*
X131731797Y-100141900D02*
X131731797Y-100241900D01*
X131731797Y-100241900D02*
X131765131Y-100308566D01*
X131765131Y-100308566D02*
X131798464Y-100341900D01*
X131798464Y-100341900D02*
X131865131Y-100375233D01*
X131865131Y-100375233D02*
X131965131Y-100375233D01*
X131965131Y-100375233D02*
X132031797Y-100341900D01*
X132031797Y-100341900D02*
X132065131Y-100308566D01*
X132065131Y-100308566D02*
X132165131Y-100175233D01*
X132165131Y-100175233D02*
X132198464Y-100075233D01*
X132198464Y-100075233D02*
X132198464Y-100008566D01*
X132598464Y-100375233D02*
X132598464Y-99675233D01*
X132598464Y-99675233D02*
X132765131Y-99675233D01*
X132765131Y-99675233D02*
X132865131Y-99708566D01*
X132865131Y-99708566D02*
X132931798Y-99775233D01*
X132931798Y-99775233D02*
X132965131Y-99841900D01*
X132965131Y-99841900D02*
X132998464Y-99975233D01*
X132998464Y-99975233D02*
X132998464Y-100075233D01*
X132998464Y-100075233D02*
X132965131Y-100208566D01*
X132965131Y-100208566D02*
X132931798Y-100275233D01*
X132931798Y-100275233D02*
X132865131Y-100341900D01*
X132865131Y-100341900D02*
X132765131Y-100375233D01*
X132765131Y-100375233D02*
X132598464Y-100375233D01*
D12*
X127719999Y-101275400D02*
X127786666Y-101208733D01*
X127786666Y-101208733D02*
X127919999Y-101142066D01*
X127919999Y-101142066D02*
X128253333Y-101142066D01*
X128253333Y-101142066D02*
X128386666Y-101208733D01*
X128386666Y-101208733D02*
X128453333Y-101275400D01*
X128453333Y-101275400D02*
X128519999Y-101408733D01*
X128519999Y-101408733D02*
X128519999Y-101542066D01*
X128519999Y-101542066D02*
X128453333Y-101742066D01*
X128453333Y-101742066D02*
X127653333Y-102542066D01*
X127653333Y-102542066D02*
X128519999Y-102542066D01*
X129119999Y-102008733D02*
X130186666Y-102008733D01*
X131586665Y-102542066D02*
X130786665Y-102542066D01*
X131186665Y-102542066D02*
X131186665Y-101142066D01*
X131186665Y-101142066D02*
X131053332Y-101342066D01*
X131053332Y-101342066D02*
X130919999Y-101475400D01*
X130919999Y-101475400D02*
X130786665Y-101542066D01*
X132119998Y-101275400D02*
X132186665Y-101208733D01*
X132186665Y-101208733D02*
X132319998Y-101142066D01*
X132319998Y-101142066D02*
X132653332Y-101142066D01*
X132653332Y-101142066D02*
X132786665Y-101208733D01*
X132786665Y-101208733D02*
X132853332Y-101275400D01*
X132853332Y-101275400D02*
X132919998Y-101408733D01*
X132919998Y-101408733D02*
X132919998Y-101542066D01*
X132919998Y-101542066D02*
X132853332Y-101742066D01*
X132853332Y-101742066D02*
X132053332Y-102542066D01*
X132053332Y-102542066D02*
X132919998Y-102542066D01*
X133453331Y-102475400D02*
X133653331Y-102542066D01*
X133653331Y-102542066D02*
X133986665Y-102542066D01*
X133986665Y-102542066D02*
X134119998Y-102475400D01*
X134119998Y-102475400D02*
X134186665Y-102408733D01*
X134186665Y-102408733D02*
X134253331Y-102275400D01*
X134253331Y-102275400D02*
X134253331Y-102142066D01*
X134253331Y-102142066D02*
X134186665Y-102008733D01*
X134186665Y-102008733D02*
X134119998Y-101942066D01*
X134119998Y-101942066D02*
X133986665Y-101875400D01*
X133986665Y-101875400D02*
X133719998Y-101808733D01*
X133719998Y-101808733D02*
X133586665Y-101742066D01*
X133586665Y-101742066D02*
X133519998Y-101675400D01*
X133519998Y-101675400D02*
X133453331Y-101542066D01*
X133453331Y-101542066D02*
X133453331Y-101408733D01*
X133453331Y-101408733D02*
X133519998Y-101275400D01*
X133519998Y-101275400D02*
X133586665Y-101208733D01*
X133586665Y-101208733D02*
X133719998Y-101142066D01*
X133719998Y-101142066D02*
X134053331Y-101142066D01*
X134053331Y-101142066D02*
X134253331Y-101208733D01*
X136386665Y-101808733D02*
X136586665Y-101875400D01*
X136586665Y-101875400D02*
X136653331Y-101942066D01*
X136653331Y-101942066D02*
X136719998Y-102075400D01*
X136719998Y-102075400D02*
X136719998Y-102275400D01*
X136719998Y-102275400D02*
X136653331Y-102408733D01*
X136653331Y-102408733D02*
X136586665Y-102475400D01*
X136586665Y-102475400D02*
X136453331Y-102542066D01*
X136453331Y-102542066D02*
X135919998Y-102542066D01*
X135919998Y-102542066D02*
X135919998Y-101142066D01*
X135919998Y-101142066D02*
X136386665Y-101142066D01*
X136386665Y-101142066D02*
X136519998Y-101208733D01*
X136519998Y-101208733D02*
X136586665Y-101275400D01*
X136586665Y-101275400D02*
X136653331Y-101408733D01*
X136653331Y-101408733D02*
X136653331Y-101542066D01*
X136653331Y-101542066D02*
X136586665Y-101675400D01*
X136586665Y-101675400D02*
X136519998Y-101742066D01*
X136519998Y-101742066D02*
X136386665Y-101808733D01*
X136386665Y-101808733D02*
X135919998Y-101808733D01*
X137919998Y-101608733D02*
X137919998Y-102542066D01*
X137319998Y-101608733D02*
X137319998Y-102342066D01*
X137319998Y-102342066D02*
X137386665Y-102475400D01*
X137386665Y-102475400D02*
X137519998Y-102542066D01*
X137519998Y-102542066D02*
X137719998Y-102542066D01*
X137719998Y-102542066D02*
X137853331Y-102475400D01*
X137853331Y-102475400D02*
X137919998Y-102408733D01*
X139186665Y-102475400D02*
X139053332Y-102542066D01*
X139053332Y-102542066D02*
X138786665Y-102542066D01*
X138786665Y-102542066D02*
X138653332Y-102475400D01*
X138653332Y-102475400D02*
X138586665Y-102408733D01*
X138586665Y-102408733D02*
X138519998Y-102275400D01*
X138519998Y-102275400D02*
X138519998Y-101875400D01*
X138519998Y-101875400D02*
X138586665Y-101742066D01*
X138586665Y-101742066D02*
X138653332Y-101675400D01*
X138653332Y-101675400D02*
X138786665Y-101608733D01*
X138786665Y-101608733D02*
X139053332Y-101608733D01*
X139053332Y-101608733D02*
X139186665Y-101675400D01*
X139786665Y-102542066D02*
X139786665Y-101142066D01*
X139919998Y-102008733D02*
X140319998Y-102542066D01*
X140319998Y-101608733D02*
X139786665Y-102142066D01*
X142786665Y-102408733D02*
X142719998Y-102475400D01*
X142719998Y-102475400D02*
X142519998Y-102542066D01*
X142519998Y-102542066D02*
X142386665Y-102542066D01*
X142386665Y-102542066D02*
X142186665Y-102475400D01*
X142186665Y-102475400D02*
X142053332Y-102342066D01*
X142053332Y-102342066D02*
X141986665Y-102208733D01*
X141986665Y-102208733D02*
X141919998Y-101942066D01*
X141919998Y-101942066D02*
X141919998Y-101742066D01*
X141919998Y-101742066D02*
X141986665Y-101475400D01*
X141986665Y-101475400D02*
X142053332Y-101342066D01*
X142053332Y-101342066D02*
X142186665Y-101208733D01*
X142186665Y-101208733D02*
X142386665Y-101142066D01*
X142386665Y-101142066D02*
X142519998Y-101142066D01*
X142519998Y-101142066D02*
X142719998Y-101208733D01*
X142719998Y-101208733D02*
X142786665Y-101275400D01*
X143586665Y-102542066D02*
X143453332Y-102475400D01*
X143453332Y-102475400D02*
X143386665Y-102408733D01*
X143386665Y-102408733D02*
X143319998Y-102275400D01*
X143319998Y-102275400D02*
X143319998Y-101875400D01*
X143319998Y-101875400D02*
X143386665Y-101742066D01*
X143386665Y-101742066D02*
X143453332Y-101675400D01*
X143453332Y-101675400D02*
X143586665Y-101608733D01*
X143586665Y-101608733D02*
X143786665Y-101608733D01*
X143786665Y-101608733D02*
X143919998Y-101675400D01*
X143919998Y-101675400D02*
X143986665Y-101742066D01*
X143986665Y-101742066D02*
X144053332Y-101875400D01*
X144053332Y-101875400D02*
X144053332Y-102275400D01*
X144053332Y-102275400D02*
X143986665Y-102408733D01*
X143986665Y-102408733D02*
X143919998Y-102475400D01*
X143919998Y-102475400D02*
X143786665Y-102542066D01*
X143786665Y-102542066D02*
X143586665Y-102542066D01*
X144653332Y-101608733D02*
X144653332Y-102542066D01*
X144653332Y-101742066D02*
X144719999Y-101675400D01*
X144719999Y-101675400D02*
X144853332Y-101608733D01*
X144853332Y-101608733D02*
X145053332Y-101608733D01*
X145053332Y-101608733D02*
X145186665Y-101675400D01*
X145186665Y-101675400D02*
X145253332Y-101808733D01*
X145253332Y-101808733D02*
X145253332Y-102542066D01*
X145786666Y-101608733D02*
X146119999Y-102542066D01*
X146119999Y-102542066D02*
X146453332Y-101608733D01*
X147519999Y-102475400D02*
X147386666Y-102542066D01*
X147386666Y-102542066D02*
X147119999Y-102542066D01*
X147119999Y-102542066D02*
X146986666Y-102475400D01*
X146986666Y-102475400D02*
X146919999Y-102342066D01*
X146919999Y-102342066D02*
X146919999Y-101808733D01*
X146919999Y-101808733D02*
X146986666Y-101675400D01*
X146986666Y-101675400D02*
X147119999Y-101608733D01*
X147119999Y-101608733D02*
X147386666Y-101608733D01*
X147386666Y-101608733D02*
X147519999Y-101675400D01*
X147519999Y-101675400D02*
X147586666Y-101808733D01*
X147586666Y-101808733D02*
X147586666Y-101942066D01*
X147586666Y-101942066D02*
X146919999Y-102075400D01*
X148186666Y-102542066D02*
X148186666Y-101608733D01*
X148186666Y-101875400D02*
X148253333Y-101742066D01*
X148253333Y-101742066D02*
X148319999Y-101675400D01*
X148319999Y-101675400D02*
X148453333Y-101608733D01*
X148453333Y-101608733D02*
X148586666Y-101608733D01*
X148853333Y-101608733D02*
X149386666Y-101608733D01*
X149053333Y-101142066D02*
X149053333Y-102342066D01*
X149053333Y-102342066D02*
X149120000Y-102475400D01*
X149120000Y-102475400D02*
X149253333Y-102542066D01*
X149253333Y-102542066D02*
X149386666Y-102542066D01*
X150386666Y-102475400D02*
X150253333Y-102542066D01*
X150253333Y-102542066D02*
X149986666Y-102542066D01*
X149986666Y-102542066D02*
X149853333Y-102475400D01*
X149853333Y-102475400D02*
X149786666Y-102342066D01*
X149786666Y-102342066D02*
X149786666Y-101808733D01*
X149786666Y-101808733D02*
X149853333Y-101675400D01*
X149853333Y-101675400D02*
X149986666Y-101608733D01*
X149986666Y-101608733D02*
X150253333Y-101608733D01*
X150253333Y-101608733D02*
X150386666Y-101675400D01*
X150386666Y-101675400D02*
X150453333Y-101808733D01*
X150453333Y-101808733D02*
X150453333Y-101942066D01*
X150453333Y-101942066D02*
X149786666Y-102075400D01*
X151053333Y-102542066D02*
X151053333Y-101608733D01*
X151053333Y-101875400D02*
X151120000Y-101742066D01*
X151120000Y-101742066D02*
X151186666Y-101675400D01*
X151186666Y-101675400D02*
X151320000Y-101608733D01*
X151320000Y-101608733D02*
X151453333Y-101608733D01*
D10*
X122060657Y-128674944D02*
X122540657Y-128674944D01*
X122750657Y-128284944D02*
X122960657Y-128914944D01*
X122960657Y-128914944D02*
X123170657Y-128284944D01*
X123380657Y-128914944D02*
X123380657Y-128494944D01*
X123380657Y-128284944D02*
X123350657Y-128314944D01*
X123350657Y-128314944D02*
X123380657Y-128344944D01*
X123380657Y-128344944D02*
X123410657Y-128314944D01*
X123410657Y-128314944D02*
X123380657Y-128284944D01*
X123380657Y-128284944D02*
X123380657Y-128344944D01*
X123680657Y-128494944D02*
X123680657Y-128914944D01*
X123680657Y-128554944D02*
X123710657Y-128524944D01*
X123710657Y-128524944D02*
X123770657Y-128494944D01*
X123770657Y-128494944D02*
X123860657Y-128494944D01*
X123860657Y-128494944D02*
X123920657Y-128524944D01*
X123920657Y-128524944D02*
X123950657Y-128584944D01*
X123950657Y-128584944D02*
X123950657Y-128914944D01*
X148460657Y-128474944D02*
X148550657Y-128504944D01*
X148550657Y-128504944D02*
X148700657Y-128504944D01*
X148700657Y-128504944D02*
X148760657Y-128474944D01*
X148760657Y-128474944D02*
X148790657Y-128444944D01*
X148790657Y-128444944D02*
X148820657Y-128384944D01*
X148820657Y-128384944D02*
X148820657Y-128324944D01*
X148820657Y-128324944D02*
X148790657Y-128264944D01*
X148790657Y-128264944D02*
X148760657Y-128234944D01*
X148760657Y-128234944D02*
X148700657Y-128204944D01*
X148700657Y-128204944D02*
X148580657Y-128174944D01*
X148580657Y-128174944D02*
X148520657Y-128144944D01*
X148520657Y-128144944D02*
X148490657Y-128114944D01*
X148490657Y-128114944D02*
X148460657Y-128054944D01*
X148460657Y-128054944D02*
X148460657Y-127994944D01*
X148460657Y-127994944D02*
X148490657Y-127934944D01*
X148490657Y-127934944D02*
X148520657Y-127904944D01*
X148520657Y-127904944D02*
X148580657Y-127874944D01*
X148580657Y-127874944D02*
X148730657Y-127874944D01*
X148730657Y-127874944D02*
X148820657Y-127904944D01*
X198580657Y-129324944D02*
X199060657Y-129324944D01*
X199270657Y-128934944D02*
X199480657Y-129564944D01*
X199480657Y-129564944D02*
X199690657Y-128934944D01*
X199990657Y-129564944D02*
X199930657Y-129534944D01*
X199930657Y-129534944D02*
X199900657Y-129504944D01*
X199900657Y-129504944D02*
X199870657Y-129444944D01*
X199870657Y-129444944D02*
X199870657Y-129264944D01*
X199870657Y-129264944D02*
X199900657Y-129204944D01*
X199900657Y-129204944D02*
X199930657Y-129174944D01*
X199930657Y-129174944D02*
X199990657Y-129144944D01*
X199990657Y-129144944D02*
X200080657Y-129144944D01*
X200080657Y-129144944D02*
X200140657Y-129174944D01*
X200140657Y-129174944D02*
X200170657Y-129204944D01*
X200170657Y-129204944D02*
X200200657Y-129264944D01*
X200200657Y-129264944D02*
X200200657Y-129444944D01*
X200200657Y-129444944D02*
X200170657Y-129504944D01*
X200170657Y-129504944D02*
X200140657Y-129534944D01*
X200140657Y-129534944D02*
X200080657Y-129564944D01*
X200080657Y-129564944D02*
X199990657Y-129564944D01*
X200740657Y-129144944D02*
X200740657Y-129564944D01*
X200470657Y-129144944D02*
X200470657Y-129474944D01*
X200470657Y-129474944D02*
X200500657Y-129534944D01*
X200500657Y-129534944D02*
X200560657Y-129564944D01*
X200560657Y-129564944D02*
X200650657Y-129564944D01*
X200650657Y-129564944D02*
X200710657Y-129534944D01*
X200710657Y-129534944D02*
X200740657Y-129504944D01*
X200950657Y-129144944D02*
X201190657Y-129144944D01*
X201040657Y-128934944D02*
X201040657Y-129474944D01*
X201040657Y-129474944D02*
X201070657Y-129534944D01*
X201070657Y-129534944D02*
X201130657Y-129564944D01*
X201130657Y-129564944D02*
X201190657Y-129564944D01*
X151570657Y-112544944D02*
X151570657Y-111914944D01*
X151570657Y-111914944D02*
X151720657Y-111914944D01*
X151720657Y-111914944D02*
X151810657Y-111944944D01*
X151810657Y-111944944D02*
X151870657Y-112004944D01*
X151870657Y-112004944D02*
X151900657Y-112064944D01*
X151900657Y-112064944D02*
X151930657Y-112184944D01*
X151930657Y-112184944D02*
X151930657Y-112274944D01*
X151930657Y-112274944D02*
X151900657Y-112394944D01*
X151900657Y-112394944D02*
X151870657Y-112454944D01*
X151870657Y-112454944D02*
X151810657Y-112514944D01*
X151810657Y-112514944D02*
X151720657Y-112544944D01*
X151720657Y-112544944D02*
X151570657Y-112544944D01*
X198370657Y-117440679D02*
X198850657Y-117440679D01*
X198610657Y-117680679D02*
X198610657Y-117200679D01*
X199060657Y-117050679D02*
X199270657Y-117680679D01*
X199270657Y-117680679D02*
X199480657Y-117050679D01*
X199780657Y-117680679D02*
X199720657Y-117650679D01*
X199720657Y-117650679D02*
X199690657Y-117620679D01*
X199690657Y-117620679D02*
X199660657Y-117560679D01*
X199660657Y-117560679D02*
X199660657Y-117380679D01*
X199660657Y-117380679D02*
X199690657Y-117320679D01*
X199690657Y-117320679D02*
X199720657Y-117290679D01*
X199720657Y-117290679D02*
X199780657Y-117260679D01*
X199780657Y-117260679D02*
X199870657Y-117260679D01*
X199870657Y-117260679D02*
X199930657Y-117290679D01*
X199930657Y-117290679D02*
X199960657Y-117320679D01*
X199960657Y-117320679D02*
X199990657Y-117380679D01*
X199990657Y-117380679D02*
X199990657Y-117560679D01*
X199990657Y-117560679D02*
X199960657Y-117620679D01*
X199960657Y-117620679D02*
X199930657Y-117650679D01*
X199930657Y-117650679D02*
X199870657Y-117680679D01*
X199870657Y-117680679D02*
X199780657Y-117680679D01*
X200530657Y-117260679D02*
X200530657Y-117680679D01*
X200260657Y-117260679D02*
X200260657Y-117590679D01*
X200260657Y-117590679D02*
X200290657Y-117650679D01*
X200290657Y-117650679D02*
X200350657Y-117680679D01*
X200350657Y-117680679D02*
X200440657Y-117680679D01*
X200440657Y-117680679D02*
X200500657Y-117650679D01*
X200500657Y-117650679D02*
X200530657Y-117620679D01*
X200740657Y-117260679D02*
X200980657Y-117260679D01*
X200830657Y-117050679D02*
X200830657Y-117590679D01*
X200830657Y-117590679D02*
X200860657Y-117650679D01*
X200860657Y-117650679D02*
X200920657Y-117680679D01*
X200920657Y-117680679D02*
X200980657Y-117680679D01*
X153180657Y-119404944D02*
X153120657Y-119374944D01*
X153120657Y-119374944D02*
X153030657Y-119374944D01*
X153030657Y-119374944D02*
X152940657Y-119404944D01*
X152940657Y-119404944D02*
X152880657Y-119464944D01*
X152880657Y-119464944D02*
X152850657Y-119524944D01*
X152850657Y-119524944D02*
X152820657Y-119644944D01*
X152820657Y-119644944D02*
X152820657Y-119734944D01*
X152820657Y-119734944D02*
X152850657Y-119854944D01*
X152850657Y-119854944D02*
X152880657Y-119914944D01*
X152880657Y-119914944D02*
X152940657Y-119974944D01*
X152940657Y-119974944D02*
X153030657Y-120004944D01*
X153030657Y-120004944D02*
X153090657Y-120004944D01*
X153090657Y-120004944D02*
X153180657Y-119974944D01*
X153180657Y-119974944D02*
X153210657Y-119944944D01*
X153210657Y-119944944D02*
X153210657Y-119734944D01*
X153210657Y-119734944D02*
X153090657Y-119734944D01*
X137775000Y-126773494D02*
X137565000Y-126473494D01*
X137415000Y-126773494D02*
X137415000Y-126143494D01*
X137415000Y-126143494D02*
X137655000Y-126143494D01*
X137655000Y-126143494D02*
X137715000Y-126173494D01*
X137715000Y-126173494D02*
X137745000Y-126203494D01*
X137745000Y-126203494D02*
X137775000Y-126263494D01*
X137775000Y-126263494D02*
X137775000Y-126353494D01*
X137775000Y-126353494D02*
X137745000Y-126413494D01*
X137745000Y-126413494D02*
X137715000Y-126443494D01*
X137715000Y-126443494D02*
X137655000Y-126473494D01*
X137655000Y-126473494D02*
X137415000Y-126473494D01*
X138015000Y-126203494D02*
X138045000Y-126173494D01*
X138045000Y-126173494D02*
X138105000Y-126143494D01*
X138105000Y-126143494D02*
X138255000Y-126143494D01*
X138255000Y-126143494D02*
X138315000Y-126173494D01*
X138315000Y-126173494D02*
X138345000Y-126203494D01*
X138345000Y-126203494D02*
X138375000Y-126263494D01*
X138375000Y-126263494D02*
X138375000Y-126323494D01*
X138375000Y-126323494D02*
X138345000Y-126413494D01*
X138345000Y-126413494D02*
X137985000Y-126773494D01*
X137985000Y-126773494D02*
X138375000Y-126773494D01*
X138435000Y-120843494D02*
X138435000Y-120213494D01*
X139095000Y-120783494D02*
X139065000Y-120813494D01*
X139065000Y-120813494D02*
X138975000Y-120843494D01*
X138975000Y-120843494D02*
X138915000Y-120843494D01*
X138915000Y-120843494D02*
X138825000Y-120813494D01*
X138825000Y-120813494D02*
X138765000Y-120753494D01*
X138765000Y-120753494D02*
X138735000Y-120693494D01*
X138735000Y-120693494D02*
X138705000Y-120573494D01*
X138705000Y-120573494D02*
X138705000Y-120483494D01*
X138705000Y-120483494D02*
X138735000Y-120363494D01*
X138735000Y-120363494D02*
X138765000Y-120303494D01*
X138765000Y-120303494D02*
X138825000Y-120243494D01*
X138825000Y-120243494D02*
X138915000Y-120213494D01*
X138915000Y-120213494D02*
X138975000Y-120213494D01*
X138975000Y-120213494D02*
X139065000Y-120243494D01*
X139065000Y-120243494D02*
X139095000Y-120273494D01*
X139695000Y-120843494D02*
X139335000Y-120843494D01*
X139515000Y-120843494D02*
X139515000Y-120213494D01*
X139515000Y-120213494D02*
X139455000Y-120303494D01*
X139455000Y-120303494D02*
X139395000Y-120363494D01*
X139395000Y-120363494D02*
X139335000Y-120393494D01*
X138595000Y-131133494D02*
X138565000Y-131163494D01*
X138565000Y-131163494D02*
X138475000Y-131193494D01*
X138475000Y-131193494D02*
X138415000Y-131193494D01*
X138415000Y-131193494D02*
X138325000Y-131163494D01*
X138325000Y-131163494D02*
X138265000Y-131103494D01*
X138265000Y-131103494D02*
X138235000Y-131043494D01*
X138235000Y-131043494D02*
X138205000Y-130923494D01*
X138205000Y-130923494D02*
X138205000Y-130833494D01*
X138205000Y-130833494D02*
X138235000Y-130713494D01*
X138235000Y-130713494D02*
X138265000Y-130653494D01*
X138265000Y-130653494D02*
X138325000Y-130593494D01*
X138325000Y-130593494D02*
X138415000Y-130563494D01*
X138415000Y-130563494D02*
X138475000Y-130563494D01*
X138475000Y-130563494D02*
X138565000Y-130593494D01*
X138565000Y-130593494D02*
X138595000Y-130623494D01*
X139165000Y-130563494D02*
X138865000Y-130563494D01*
X138865000Y-130563494D02*
X138835000Y-130863494D01*
X138835000Y-130863494D02*
X138865000Y-130833494D01*
X138865000Y-130833494D02*
X138925000Y-130803494D01*
X138925000Y-130803494D02*
X139075000Y-130803494D01*
X139075000Y-130803494D02*
X139135000Y-130833494D01*
X139135000Y-130833494D02*
X139165000Y-130863494D01*
X139165000Y-130863494D02*
X139195000Y-130923494D01*
X139195000Y-130923494D02*
X139195000Y-131073494D01*
X139195000Y-131073494D02*
X139165000Y-131133494D01*
X139165000Y-131133494D02*
X139135000Y-131163494D01*
X139135000Y-131163494D02*
X139075000Y-131193494D01*
X139075000Y-131193494D02*
X138925000Y-131193494D01*
X138925000Y-131193494D02*
X138865000Y-131163494D01*
X138865000Y-131163494D02*
X138835000Y-131133494D01*
X154450000Y-117933494D02*
X154390000Y-117903494D01*
X154390000Y-117903494D02*
X154330000Y-117843494D01*
X154330000Y-117843494D02*
X154240000Y-117753494D01*
X154240000Y-117753494D02*
X154180000Y-117723494D01*
X154180000Y-117723494D02*
X154120000Y-117723494D01*
X154150000Y-117873494D02*
X154090000Y-117843494D01*
X154090000Y-117843494D02*
X154030000Y-117783494D01*
X154030000Y-117783494D02*
X154000000Y-117663494D01*
X154000000Y-117663494D02*
X154000000Y-117453494D01*
X154000000Y-117453494D02*
X154030000Y-117333494D01*
X154030000Y-117333494D02*
X154090000Y-117273494D01*
X154090000Y-117273494D02*
X154150000Y-117243494D01*
X154150000Y-117243494D02*
X154270000Y-117243494D01*
X154270000Y-117243494D02*
X154330000Y-117273494D01*
X154330000Y-117273494D02*
X154390000Y-117333494D01*
X154390000Y-117333494D02*
X154420000Y-117453494D01*
X154420000Y-117453494D02*
X154420000Y-117663494D01*
X154420000Y-117663494D02*
X154390000Y-117783494D01*
X154390000Y-117783494D02*
X154330000Y-117843494D01*
X154330000Y-117843494D02*
X154270000Y-117873494D01*
X154270000Y-117873494D02*
X154150000Y-117873494D01*
X155020000Y-117873494D02*
X154660000Y-117873494D01*
X154840000Y-117873494D02*
X154840000Y-117243494D01*
X154840000Y-117243494D02*
X154780000Y-117333494D01*
X154780000Y-117333494D02*
X154720000Y-117393494D01*
X154720000Y-117393494D02*
X154660000Y-117423494D01*
X132875000Y-126263494D02*
X132665000Y-125963494D01*
X132515000Y-126263494D02*
X132515000Y-125633494D01*
X132515000Y-125633494D02*
X132755000Y-125633494D01*
X132755000Y-125633494D02*
X132815000Y-125663494D01*
X132815000Y-125663494D02*
X132845000Y-125693494D01*
X132845000Y-125693494D02*
X132875000Y-125753494D01*
X132875000Y-125753494D02*
X132875000Y-125843494D01*
X132875000Y-125843494D02*
X132845000Y-125903494D01*
X132845000Y-125903494D02*
X132815000Y-125933494D01*
X132815000Y-125933494D02*
X132755000Y-125963494D01*
X132755000Y-125963494D02*
X132515000Y-125963494D01*
X133415000Y-125843494D02*
X133415000Y-126263494D01*
X133265000Y-125603494D02*
X133115000Y-126053494D01*
X133115000Y-126053494D02*
X133505000Y-126053494D01*
X140835000Y-130973494D02*
X140805000Y-131003494D01*
X140805000Y-131003494D02*
X140715000Y-131033494D01*
X140715000Y-131033494D02*
X140655000Y-131033494D01*
X140655000Y-131033494D02*
X140565000Y-131003494D01*
X140565000Y-131003494D02*
X140505000Y-130943494D01*
X140505000Y-130943494D02*
X140475000Y-130883494D01*
X140475000Y-130883494D02*
X140445000Y-130763494D01*
X140445000Y-130763494D02*
X140445000Y-130673494D01*
X140445000Y-130673494D02*
X140475000Y-130553494D01*
X140475000Y-130553494D02*
X140505000Y-130493494D01*
X140505000Y-130493494D02*
X140565000Y-130433494D01*
X140565000Y-130433494D02*
X140655000Y-130403494D01*
X140655000Y-130403494D02*
X140715000Y-130403494D01*
X140715000Y-130403494D02*
X140805000Y-130433494D01*
X140805000Y-130433494D02*
X140835000Y-130463494D01*
X141045000Y-130403494D02*
X141465000Y-130403494D01*
X141465000Y-130403494D02*
X141195000Y-131033494D01*
X125260000Y-122593494D02*
X125260000Y-123043494D01*
X125260000Y-123043494D02*
X125230000Y-123133494D01*
X125230000Y-123133494D02*
X125170000Y-123193494D01*
X125170000Y-123193494D02*
X125080000Y-123223494D01*
X125080000Y-123223494D02*
X125020000Y-123223494D01*
X125890000Y-123223494D02*
X125530000Y-123223494D01*
X125710000Y-123223494D02*
X125710000Y-122593494D01*
X125710000Y-122593494D02*
X125650000Y-122683494D01*
X125650000Y-122683494D02*
X125590000Y-122743494D01*
X125590000Y-122743494D02*
X125530000Y-122773494D01*
X141655000Y-116653494D02*
X141625000Y-116683494D01*
X141625000Y-116683494D02*
X141535000Y-116713494D01*
X141535000Y-116713494D02*
X141475000Y-116713494D01*
X141475000Y-116713494D02*
X141385000Y-116683494D01*
X141385000Y-116683494D02*
X141325000Y-116623494D01*
X141325000Y-116623494D02*
X141295000Y-116563494D01*
X141295000Y-116563494D02*
X141265000Y-116443494D01*
X141265000Y-116443494D02*
X141265000Y-116353494D01*
X141265000Y-116353494D02*
X141295000Y-116233494D01*
X141295000Y-116233494D02*
X141325000Y-116173494D01*
X141325000Y-116173494D02*
X141385000Y-116113494D01*
X141385000Y-116113494D02*
X141475000Y-116083494D01*
X141475000Y-116083494D02*
X141535000Y-116083494D01*
X141535000Y-116083494D02*
X141625000Y-116113494D01*
X141625000Y-116113494D02*
X141655000Y-116143494D01*
X141895000Y-116143494D02*
X141925000Y-116113494D01*
X141925000Y-116113494D02*
X141985000Y-116083494D01*
X141985000Y-116083494D02*
X142135000Y-116083494D01*
X142135000Y-116083494D02*
X142195000Y-116113494D01*
X142195000Y-116113494D02*
X142225000Y-116143494D01*
X142225000Y-116143494D02*
X142255000Y-116203494D01*
X142255000Y-116203494D02*
X142255000Y-116263494D01*
X142255000Y-116263494D02*
X142225000Y-116353494D01*
X142225000Y-116353494D02*
X141865000Y-116713494D01*
X141865000Y-116713494D02*
X142255000Y-116713494D01*
X141595000Y-112853494D02*
X141565000Y-112883494D01*
X141565000Y-112883494D02*
X141475000Y-112913494D01*
X141475000Y-112913494D02*
X141415000Y-112913494D01*
X141415000Y-112913494D02*
X141325000Y-112883494D01*
X141325000Y-112883494D02*
X141265000Y-112823494D01*
X141265000Y-112823494D02*
X141235000Y-112763494D01*
X141235000Y-112763494D02*
X141205000Y-112643494D01*
X141205000Y-112643494D02*
X141205000Y-112553494D01*
X141205000Y-112553494D02*
X141235000Y-112433494D01*
X141235000Y-112433494D02*
X141265000Y-112373494D01*
X141265000Y-112373494D02*
X141325000Y-112313494D01*
X141325000Y-112313494D02*
X141415000Y-112283494D01*
X141415000Y-112283494D02*
X141475000Y-112283494D01*
X141475000Y-112283494D02*
X141565000Y-112313494D01*
X141565000Y-112313494D02*
X141595000Y-112343494D01*
X141805000Y-112283494D02*
X142195000Y-112283494D01*
X142195000Y-112283494D02*
X141985000Y-112523494D01*
X141985000Y-112523494D02*
X142075000Y-112523494D01*
X142075000Y-112523494D02*
X142135000Y-112553494D01*
X142135000Y-112553494D02*
X142165000Y-112583494D01*
X142165000Y-112583494D02*
X142195000Y-112643494D01*
X142195000Y-112643494D02*
X142195000Y-112793494D01*
X142195000Y-112793494D02*
X142165000Y-112853494D01*
X142165000Y-112853494D02*
X142135000Y-112883494D01*
X142135000Y-112883494D02*
X142075000Y-112913494D01*
X142075000Y-112913494D02*
X141895000Y-112913494D01*
X141895000Y-112913494D02*
X141835000Y-112883494D01*
X141835000Y-112883494D02*
X141805000Y-112853494D01*
X169735000Y-123073494D02*
X169435000Y-123073494D01*
X169435000Y-123073494D02*
X169435000Y-122443494D01*
X170275000Y-123073494D02*
X169915000Y-123073494D01*
X170095000Y-123073494D02*
X170095000Y-122443494D01*
X170095000Y-122443494D02*
X170035000Y-122533494D01*
X170035000Y-122533494D02*
X169975000Y-122593494D01*
X169975000Y-122593494D02*
X169915000Y-122623494D01*
X184875000Y-133933494D02*
X184845000Y-133963494D01*
X184845000Y-133963494D02*
X184755000Y-133993494D01*
X184755000Y-133993494D02*
X184695000Y-133993494D01*
X184695000Y-133993494D02*
X184605000Y-133963494D01*
X184605000Y-133963494D02*
X184545000Y-133903494D01*
X184545000Y-133903494D02*
X184515000Y-133843494D01*
X184515000Y-133843494D02*
X184485000Y-133723494D01*
X184485000Y-133723494D02*
X184485000Y-133633494D01*
X184485000Y-133633494D02*
X184515000Y-133513494D01*
X184515000Y-133513494D02*
X184545000Y-133453494D01*
X184545000Y-133453494D02*
X184605000Y-133393494D01*
X184605000Y-133393494D02*
X184695000Y-133363494D01*
X184695000Y-133363494D02*
X184755000Y-133363494D01*
X184755000Y-133363494D02*
X184845000Y-133393494D01*
X184845000Y-133393494D02*
X184875000Y-133423494D01*
X185475000Y-133993494D02*
X185115000Y-133993494D01*
X185295000Y-133993494D02*
X185295000Y-133363494D01*
X185295000Y-133363494D02*
X185235000Y-133453494D01*
X185235000Y-133453494D02*
X185175000Y-133513494D01*
X185175000Y-133513494D02*
X185115000Y-133543494D01*
X185685000Y-133363494D02*
X186075000Y-133363494D01*
X186075000Y-133363494D02*
X185865000Y-133603494D01*
X185865000Y-133603494D02*
X185955000Y-133603494D01*
X185955000Y-133603494D02*
X186015000Y-133633494D01*
X186015000Y-133633494D02*
X186045000Y-133663494D01*
X186045000Y-133663494D02*
X186075000Y-133723494D01*
X186075000Y-133723494D02*
X186075000Y-133873494D01*
X186075000Y-133873494D02*
X186045000Y-133933494D01*
X186045000Y-133933494D02*
X186015000Y-133963494D01*
X186015000Y-133963494D02*
X185955000Y-133993494D01*
X185955000Y-133993494D02*
X185775000Y-133993494D01*
X185775000Y-133993494D02*
X185715000Y-133963494D01*
X185715000Y-133963494D02*
X185685000Y-133933494D01*
X130905000Y-110173494D02*
X130695000Y-109873494D01*
X130545000Y-110173494D02*
X130545000Y-109543494D01*
X130545000Y-109543494D02*
X130785000Y-109543494D01*
X130785000Y-109543494D02*
X130845000Y-109573494D01*
X130845000Y-109573494D02*
X130875000Y-109603494D01*
X130875000Y-109603494D02*
X130905000Y-109663494D01*
X130905000Y-109663494D02*
X130905000Y-109753494D01*
X130905000Y-109753494D02*
X130875000Y-109813494D01*
X130875000Y-109813494D02*
X130845000Y-109843494D01*
X130845000Y-109843494D02*
X130785000Y-109873494D01*
X130785000Y-109873494D02*
X130545000Y-109873494D01*
X131505000Y-110173494D02*
X131145000Y-110173494D01*
X131325000Y-110173494D02*
X131325000Y-109543494D01*
X131325000Y-109543494D02*
X131265000Y-109633494D01*
X131265000Y-109633494D02*
X131205000Y-109693494D01*
X131205000Y-109693494D02*
X131145000Y-109723494D01*
X185055000Y-122343494D02*
X184845000Y-122043494D01*
X184695000Y-122343494D02*
X184695000Y-121713494D01*
X184695000Y-121713494D02*
X184935000Y-121713494D01*
X184935000Y-121713494D02*
X184995000Y-121743494D01*
X184995000Y-121743494D02*
X185025000Y-121773494D01*
X185025000Y-121773494D02*
X185055000Y-121833494D01*
X185055000Y-121833494D02*
X185055000Y-121923494D01*
X185055000Y-121923494D02*
X185025000Y-121983494D01*
X185025000Y-121983494D02*
X184995000Y-122013494D01*
X184995000Y-122013494D02*
X184935000Y-122043494D01*
X184935000Y-122043494D02*
X184695000Y-122043494D01*
X185265000Y-121713494D02*
X185685000Y-121713494D01*
X185685000Y-121713494D02*
X185415000Y-122343494D01*
X132865000Y-124473494D02*
X132655000Y-124173494D01*
X132505000Y-124473494D02*
X132505000Y-123843494D01*
X132505000Y-123843494D02*
X132745000Y-123843494D01*
X132745000Y-123843494D02*
X132805000Y-123873494D01*
X132805000Y-123873494D02*
X132835000Y-123903494D01*
X132835000Y-123903494D02*
X132865000Y-123963494D01*
X132865000Y-123963494D02*
X132865000Y-124053494D01*
X132865000Y-124053494D02*
X132835000Y-124113494D01*
X132835000Y-124113494D02*
X132805000Y-124143494D01*
X132805000Y-124143494D02*
X132745000Y-124173494D01*
X132745000Y-124173494D02*
X132505000Y-124173494D01*
X133435000Y-123843494D02*
X133135000Y-123843494D01*
X133135000Y-123843494D02*
X133105000Y-124143494D01*
X133105000Y-124143494D02*
X133135000Y-124113494D01*
X133135000Y-124113494D02*
X133195000Y-124083494D01*
X133195000Y-124083494D02*
X133345000Y-124083494D01*
X133345000Y-124083494D02*
X133405000Y-124113494D01*
X133405000Y-124113494D02*
X133435000Y-124143494D01*
X133435000Y-124143494D02*
X133465000Y-124203494D01*
X133465000Y-124203494D02*
X133465000Y-124353494D01*
X133465000Y-124353494D02*
X133435000Y-124413494D01*
X133435000Y-124413494D02*
X133405000Y-124443494D01*
X133405000Y-124443494D02*
X133345000Y-124473494D01*
X133345000Y-124473494D02*
X133195000Y-124473494D01*
X133195000Y-124473494D02*
X133135000Y-124443494D01*
X133135000Y-124443494D02*
X133105000Y-124413494D01*
X132355000Y-128163494D02*
X132325000Y-128193494D01*
X132325000Y-128193494D02*
X132235000Y-128223494D01*
X132235000Y-128223494D02*
X132175000Y-128223494D01*
X132175000Y-128223494D02*
X132085000Y-128193494D01*
X132085000Y-128193494D02*
X132025000Y-128133494D01*
X132025000Y-128133494D02*
X131995000Y-128073494D01*
X131995000Y-128073494D02*
X131965000Y-127953494D01*
X131965000Y-127953494D02*
X131965000Y-127863494D01*
X131965000Y-127863494D02*
X131995000Y-127743494D01*
X131995000Y-127743494D02*
X132025000Y-127683494D01*
X132025000Y-127683494D02*
X132085000Y-127623494D01*
X132085000Y-127623494D02*
X132175000Y-127593494D01*
X132175000Y-127593494D02*
X132235000Y-127593494D01*
X132235000Y-127593494D02*
X132325000Y-127623494D01*
X132325000Y-127623494D02*
X132355000Y-127653494D01*
X132895000Y-127593494D02*
X132775000Y-127593494D01*
X132775000Y-127593494D02*
X132715000Y-127623494D01*
X132715000Y-127623494D02*
X132685000Y-127653494D01*
X132685000Y-127653494D02*
X132625000Y-127743494D01*
X132625000Y-127743494D02*
X132595000Y-127863494D01*
X132595000Y-127863494D02*
X132595000Y-128103494D01*
X132595000Y-128103494D02*
X132625000Y-128163494D01*
X132625000Y-128163494D02*
X132655000Y-128193494D01*
X132655000Y-128193494D02*
X132715000Y-128223494D01*
X132715000Y-128223494D02*
X132835000Y-128223494D01*
X132835000Y-128223494D02*
X132895000Y-128193494D01*
X132895000Y-128193494D02*
X132925000Y-128163494D01*
X132925000Y-128163494D02*
X132955000Y-128103494D01*
X132955000Y-128103494D02*
X132955000Y-127953494D01*
X132955000Y-127953494D02*
X132925000Y-127893494D01*
X132925000Y-127893494D02*
X132895000Y-127863494D01*
X132895000Y-127863494D02*
X132835000Y-127833494D01*
X132835000Y-127833494D02*
X132715000Y-127833494D01*
X132715000Y-127833494D02*
X132655000Y-127863494D01*
X132655000Y-127863494D02*
X132625000Y-127893494D01*
X132625000Y-127893494D02*
X132595000Y-127953494D01*
X184915000Y-107493494D02*
X184885000Y-107523494D01*
X184885000Y-107523494D02*
X184795000Y-107553494D01*
X184795000Y-107553494D02*
X184735000Y-107553494D01*
X184735000Y-107553494D02*
X184645000Y-107523494D01*
X184645000Y-107523494D02*
X184585000Y-107463494D01*
X184585000Y-107463494D02*
X184555000Y-107403494D01*
X184555000Y-107403494D02*
X184525000Y-107283494D01*
X184525000Y-107283494D02*
X184525000Y-107193494D01*
X184525000Y-107193494D02*
X184555000Y-107073494D01*
X184555000Y-107073494D02*
X184585000Y-107013494D01*
X184585000Y-107013494D02*
X184645000Y-106953494D01*
X184645000Y-106953494D02*
X184735000Y-106923494D01*
X184735000Y-106923494D02*
X184795000Y-106923494D01*
X184795000Y-106923494D02*
X184885000Y-106953494D01*
X184885000Y-106953494D02*
X184915000Y-106983494D01*
X185515000Y-107553494D02*
X185155000Y-107553494D01*
X185335000Y-107553494D02*
X185335000Y-106923494D01*
X185335000Y-106923494D02*
X185275000Y-107013494D01*
X185275000Y-107013494D02*
X185215000Y-107073494D01*
X185215000Y-107073494D02*
X185155000Y-107103494D01*
X185905000Y-106923494D02*
X185965000Y-106923494D01*
X185965000Y-106923494D02*
X186025000Y-106953494D01*
X186025000Y-106953494D02*
X186055000Y-106983494D01*
X186055000Y-106983494D02*
X186085000Y-107043494D01*
X186085000Y-107043494D02*
X186115000Y-107163494D01*
X186115000Y-107163494D02*
X186115000Y-107313494D01*
X186115000Y-107313494D02*
X186085000Y-107433494D01*
X186085000Y-107433494D02*
X186055000Y-107493494D01*
X186055000Y-107493494D02*
X186025000Y-107523494D01*
X186025000Y-107523494D02*
X185965000Y-107553494D01*
X185965000Y-107553494D02*
X185905000Y-107553494D01*
X185905000Y-107553494D02*
X185845000Y-107523494D01*
X185845000Y-107523494D02*
X185815000Y-107493494D01*
X185815000Y-107493494D02*
X185785000Y-107433494D01*
X185785000Y-107433494D02*
X185755000Y-107313494D01*
X185755000Y-107313494D02*
X185755000Y-107163494D01*
X185755000Y-107163494D02*
X185785000Y-107043494D01*
X185785000Y-107043494D02*
X185815000Y-106983494D01*
X185815000Y-106983494D02*
X185845000Y-106953494D01*
X185845000Y-106953494D02*
X185905000Y-106923494D01*
X146435000Y-119743494D02*
X146405000Y-119773494D01*
X146405000Y-119773494D02*
X146315000Y-119803494D01*
X146315000Y-119803494D02*
X146255000Y-119803494D01*
X146255000Y-119803494D02*
X146165000Y-119773494D01*
X146165000Y-119773494D02*
X146105000Y-119713494D01*
X146105000Y-119713494D02*
X146075000Y-119653494D01*
X146075000Y-119653494D02*
X146045000Y-119533494D01*
X146045000Y-119533494D02*
X146045000Y-119443494D01*
X146045000Y-119443494D02*
X146075000Y-119323494D01*
X146075000Y-119323494D02*
X146105000Y-119263494D01*
X146105000Y-119263494D02*
X146165000Y-119203494D01*
X146165000Y-119203494D02*
X146255000Y-119173494D01*
X146255000Y-119173494D02*
X146315000Y-119173494D01*
X146315000Y-119173494D02*
X146405000Y-119203494D01*
X146405000Y-119203494D02*
X146435000Y-119233494D01*
X146735000Y-119803494D02*
X146855000Y-119803494D01*
X146855000Y-119803494D02*
X146915000Y-119773494D01*
X146915000Y-119773494D02*
X146945000Y-119743494D01*
X146945000Y-119743494D02*
X147005000Y-119653494D01*
X147005000Y-119653494D02*
X147035000Y-119533494D01*
X147035000Y-119533494D02*
X147035000Y-119293494D01*
X147035000Y-119293494D02*
X147005000Y-119233494D01*
X147005000Y-119233494D02*
X146975000Y-119203494D01*
X146975000Y-119203494D02*
X146915000Y-119173494D01*
X146915000Y-119173494D02*
X146795000Y-119173494D01*
X146795000Y-119173494D02*
X146735000Y-119203494D01*
X146735000Y-119203494D02*
X146705000Y-119233494D01*
X146705000Y-119233494D02*
X146675000Y-119293494D01*
X146675000Y-119293494D02*
X146675000Y-119443494D01*
X146675000Y-119443494D02*
X146705000Y-119503494D01*
X146705000Y-119503494D02*
X146735000Y-119533494D01*
X146735000Y-119533494D02*
X146795000Y-119563494D01*
X146795000Y-119563494D02*
X146915000Y-119563494D01*
X146915000Y-119563494D02*
X146975000Y-119533494D01*
X146975000Y-119533494D02*
X147005000Y-119503494D01*
X147005000Y-119503494D02*
X147035000Y-119443494D01*
X196130000Y-122583494D02*
X196130000Y-123033494D01*
X196130000Y-123033494D02*
X196100000Y-123123494D01*
X196100000Y-123123494D02*
X196040000Y-123183494D01*
X196040000Y-123183494D02*
X195950000Y-123213494D01*
X195950000Y-123213494D02*
X195890000Y-123213494D01*
X196400000Y-122643494D02*
X196430000Y-122613494D01*
X196430000Y-122613494D02*
X196490000Y-122583494D01*
X196490000Y-122583494D02*
X196640000Y-122583494D01*
X196640000Y-122583494D02*
X196700000Y-122613494D01*
X196700000Y-122613494D02*
X196730000Y-122643494D01*
X196730000Y-122643494D02*
X196760000Y-122703494D01*
X196760000Y-122703494D02*
X196760000Y-122763494D01*
X196760000Y-122763494D02*
X196730000Y-122853494D01*
X196730000Y-122853494D02*
X196370000Y-123213494D01*
X196370000Y-123213494D02*
X196760000Y-123213494D01*
X154420000Y-126483494D02*
X154360000Y-126453494D01*
X154360000Y-126453494D02*
X154300000Y-126393494D01*
X154300000Y-126393494D02*
X154210000Y-126303494D01*
X154210000Y-126303494D02*
X154150000Y-126273494D01*
X154150000Y-126273494D02*
X154090000Y-126273494D01*
X154120000Y-126423494D02*
X154060000Y-126393494D01*
X154060000Y-126393494D02*
X154000000Y-126333494D01*
X154000000Y-126333494D02*
X153970000Y-126213494D01*
X153970000Y-126213494D02*
X153970000Y-126003494D01*
X153970000Y-126003494D02*
X154000000Y-125883494D01*
X154000000Y-125883494D02*
X154060000Y-125823494D01*
X154060000Y-125823494D02*
X154120000Y-125793494D01*
X154120000Y-125793494D02*
X154240000Y-125793494D01*
X154240000Y-125793494D02*
X154300000Y-125823494D01*
X154300000Y-125823494D02*
X154360000Y-125883494D01*
X154360000Y-125883494D02*
X154390000Y-126003494D01*
X154390000Y-126003494D02*
X154390000Y-126213494D01*
X154390000Y-126213494D02*
X154360000Y-126333494D01*
X154360000Y-126333494D02*
X154300000Y-126393494D01*
X154300000Y-126393494D02*
X154240000Y-126423494D01*
X154240000Y-126423494D02*
X154120000Y-126423494D01*
X154630000Y-125853494D02*
X154660000Y-125823494D01*
X154660000Y-125823494D02*
X154720000Y-125793494D01*
X154720000Y-125793494D02*
X154870000Y-125793494D01*
X154870000Y-125793494D02*
X154930000Y-125823494D01*
X154930000Y-125823494D02*
X154960000Y-125853494D01*
X154960000Y-125853494D02*
X154990000Y-125913494D01*
X154990000Y-125913494D02*
X154990000Y-125973494D01*
X154990000Y-125973494D02*
X154960000Y-126063494D01*
X154960000Y-126063494D02*
X154600000Y-126423494D01*
X154600000Y-126423494D02*
X154990000Y-126423494D01*
X153685000Y-109313494D02*
X153655000Y-109343494D01*
X153655000Y-109343494D02*
X153565000Y-109373494D01*
X153565000Y-109373494D02*
X153505000Y-109373494D01*
X153505000Y-109373494D02*
X153415000Y-109343494D01*
X153415000Y-109343494D02*
X153355000Y-109283494D01*
X153355000Y-109283494D02*
X153325000Y-109223494D01*
X153325000Y-109223494D02*
X153295000Y-109103494D01*
X153295000Y-109103494D02*
X153295000Y-109013494D01*
X153295000Y-109013494D02*
X153325000Y-108893494D01*
X153325000Y-108893494D02*
X153355000Y-108833494D01*
X153355000Y-108833494D02*
X153415000Y-108773494D01*
X153415000Y-108773494D02*
X153505000Y-108743494D01*
X153505000Y-108743494D02*
X153565000Y-108743494D01*
X153565000Y-108743494D02*
X153655000Y-108773494D01*
X153655000Y-108773494D02*
X153685000Y-108803494D01*
X154225000Y-108953494D02*
X154225000Y-109373494D01*
X154075000Y-108713494D02*
X153925000Y-109163494D01*
X153925000Y-109163494D02*
X154315000Y-109163494D01*
X140245000Y-126793494D02*
X140035000Y-126493494D01*
X139885000Y-126793494D02*
X139885000Y-126163494D01*
X139885000Y-126163494D02*
X140125000Y-126163494D01*
X140125000Y-126163494D02*
X140185000Y-126193494D01*
X140185000Y-126193494D02*
X140215000Y-126223494D01*
X140215000Y-126223494D02*
X140245000Y-126283494D01*
X140245000Y-126283494D02*
X140245000Y-126373494D01*
X140245000Y-126373494D02*
X140215000Y-126433494D01*
X140215000Y-126433494D02*
X140185000Y-126463494D01*
X140185000Y-126463494D02*
X140125000Y-126493494D01*
X140125000Y-126493494D02*
X139885000Y-126493494D01*
X140455000Y-126163494D02*
X140845000Y-126163494D01*
X140845000Y-126163494D02*
X140635000Y-126403494D01*
X140635000Y-126403494D02*
X140725000Y-126403494D01*
X140725000Y-126403494D02*
X140785000Y-126433494D01*
X140785000Y-126433494D02*
X140815000Y-126463494D01*
X140815000Y-126463494D02*
X140845000Y-126523494D01*
X140845000Y-126523494D02*
X140845000Y-126673494D01*
X140845000Y-126673494D02*
X140815000Y-126733494D01*
X140815000Y-126733494D02*
X140785000Y-126763494D01*
X140785000Y-126763494D02*
X140725000Y-126793494D01*
X140725000Y-126793494D02*
X140545000Y-126793494D01*
X140545000Y-126793494D02*
X140485000Y-126763494D01*
X140485000Y-126763494D02*
X140455000Y-126733494D01*
X184825000Y-129043494D02*
X184795000Y-129073494D01*
X184795000Y-129073494D02*
X184705000Y-129103494D01*
X184705000Y-129103494D02*
X184645000Y-129103494D01*
X184645000Y-129103494D02*
X184555000Y-129073494D01*
X184555000Y-129073494D02*
X184495000Y-129013494D01*
X184495000Y-129013494D02*
X184465000Y-128953494D01*
X184465000Y-128953494D02*
X184435000Y-128833494D01*
X184435000Y-128833494D02*
X184435000Y-128743494D01*
X184435000Y-128743494D02*
X184465000Y-128623494D01*
X184465000Y-128623494D02*
X184495000Y-128563494D01*
X184495000Y-128563494D02*
X184555000Y-128503494D01*
X184555000Y-128503494D02*
X184645000Y-128473494D01*
X184645000Y-128473494D02*
X184705000Y-128473494D01*
X184705000Y-128473494D02*
X184795000Y-128503494D01*
X184795000Y-128503494D02*
X184825000Y-128533494D01*
X185425000Y-129103494D02*
X185065000Y-129103494D01*
X185245000Y-129103494D02*
X185245000Y-128473494D01*
X185245000Y-128473494D02*
X185185000Y-128563494D01*
X185185000Y-128563494D02*
X185125000Y-128623494D01*
X185125000Y-128623494D02*
X185065000Y-128653494D01*
X185665000Y-128533494D02*
X185695000Y-128503494D01*
X185695000Y-128503494D02*
X185755000Y-128473494D01*
X185755000Y-128473494D02*
X185905000Y-128473494D01*
X185905000Y-128473494D02*
X185965000Y-128503494D01*
X185965000Y-128503494D02*
X185995000Y-128533494D01*
X185995000Y-128533494D02*
X186025000Y-128593494D01*
X186025000Y-128593494D02*
X186025000Y-128653494D01*
X186025000Y-128653494D02*
X185995000Y-128743494D01*
X185995000Y-128743494D02*
X185635000Y-129103494D01*
X185635000Y-129103494D02*
X186025000Y-129103494D01*
X130605000Y-104453494D02*
X130305000Y-104453494D01*
X130305000Y-104453494D02*
X130305000Y-103823494D01*
X130815000Y-104123494D02*
X131025000Y-104123494D01*
X131115000Y-104453494D02*
X130815000Y-104453494D01*
X130815000Y-104453494D02*
X130815000Y-103823494D01*
X130815000Y-103823494D02*
X131115000Y-103823494D01*
X131385000Y-104453494D02*
X131385000Y-103823494D01*
X131385000Y-103823494D02*
X131535000Y-103823494D01*
X131535000Y-103823494D02*
X131625000Y-103853494D01*
X131625000Y-103853494D02*
X131685000Y-103913494D01*
X131685000Y-103913494D02*
X131715000Y-103973494D01*
X131715000Y-103973494D02*
X131745000Y-104093494D01*
X131745000Y-104093494D02*
X131745000Y-104183494D01*
X131745000Y-104183494D02*
X131715000Y-104303494D01*
X131715000Y-104303494D02*
X131685000Y-104363494D01*
X131685000Y-104363494D02*
X131625000Y-104423494D01*
X131625000Y-104423494D02*
X131535000Y-104453494D01*
X131535000Y-104453494D02*
X131385000Y-104453494D01*
X132345000Y-104453494D02*
X131985000Y-104453494D01*
X132165000Y-104453494D02*
X132165000Y-103823494D01*
X132165000Y-103823494D02*
X132105000Y-103913494D01*
X132105000Y-103913494D02*
X132045000Y-103973494D01*
X132045000Y-103973494D02*
X131985000Y-104003494D01*
X140195000Y-115193494D02*
X139985000Y-114893494D01*
X139835000Y-115193494D02*
X139835000Y-114563494D01*
X139835000Y-114563494D02*
X140075000Y-114563494D01*
X140075000Y-114563494D02*
X140135000Y-114593494D01*
X140135000Y-114593494D02*
X140165000Y-114623494D01*
X140165000Y-114623494D02*
X140195000Y-114683494D01*
X140195000Y-114683494D02*
X140195000Y-114773494D01*
X140195000Y-114773494D02*
X140165000Y-114833494D01*
X140165000Y-114833494D02*
X140135000Y-114863494D01*
X140135000Y-114863494D02*
X140075000Y-114893494D01*
X140075000Y-114893494D02*
X139835000Y-114893494D01*
X140735000Y-114563494D02*
X140615000Y-114563494D01*
X140615000Y-114563494D02*
X140555000Y-114593494D01*
X140555000Y-114593494D02*
X140525000Y-114623494D01*
X140525000Y-114623494D02*
X140465000Y-114713494D01*
X140465000Y-114713494D02*
X140435000Y-114833494D01*
X140435000Y-114833494D02*
X140435000Y-115073494D01*
X140435000Y-115073494D02*
X140465000Y-115133494D01*
X140465000Y-115133494D02*
X140495000Y-115163494D01*
X140495000Y-115163494D02*
X140555000Y-115193494D01*
X140555000Y-115193494D02*
X140675000Y-115193494D01*
X140675000Y-115193494D02*
X140735000Y-115163494D01*
X140735000Y-115163494D02*
X140765000Y-115133494D01*
X140765000Y-115133494D02*
X140795000Y-115073494D01*
X140795000Y-115073494D02*
X140795000Y-114923494D01*
X140795000Y-114923494D02*
X140765000Y-114863494D01*
X140765000Y-114863494D02*
X140735000Y-114833494D01*
X140735000Y-114833494D02*
X140675000Y-114803494D01*
X140675000Y-114803494D02*
X140555000Y-114803494D01*
X140555000Y-114803494D02*
X140495000Y-114833494D01*
X140495000Y-114833494D02*
X140465000Y-114863494D01*
X140465000Y-114863494D02*
X140435000Y-114923494D01*
X184855000Y-113173494D02*
X184825000Y-113203494D01*
X184825000Y-113203494D02*
X184735000Y-113233494D01*
X184735000Y-113233494D02*
X184675000Y-113233494D01*
X184675000Y-113233494D02*
X184585000Y-113203494D01*
X184585000Y-113203494D02*
X184525000Y-113143494D01*
X184525000Y-113143494D02*
X184495000Y-113083494D01*
X184495000Y-113083494D02*
X184465000Y-112963494D01*
X184465000Y-112963494D02*
X184465000Y-112873494D01*
X184465000Y-112873494D02*
X184495000Y-112753494D01*
X184495000Y-112753494D02*
X184525000Y-112693494D01*
X184525000Y-112693494D02*
X184585000Y-112633494D01*
X184585000Y-112633494D02*
X184675000Y-112603494D01*
X184675000Y-112603494D02*
X184735000Y-112603494D01*
X184735000Y-112603494D02*
X184825000Y-112633494D01*
X184825000Y-112633494D02*
X184855000Y-112663494D01*
X185455000Y-113233494D02*
X185095000Y-113233494D01*
X185275000Y-113233494D02*
X185275000Y-112603494D01*
X185275000Y-112603494D02*
X185215000Y-112693494D01*
X185215000Y-112693494D02*
X185155000Y-112753494D01*
X185155000Y-112753494D02*
X185095000Y-112783494D01*
X186055000Y-113233494D02*
X185695000Y-113233494D01*
X185875000Y-113233494D02*
X185875000Y-112603494D01*
X185875000Y-112603494D02*
X185815000Y-112693494D01*
X185815000Y-112693494D02*
X185755000Y-112753494D01*
X185755000Y-112753494D02*
X185695000Y-112783494D01*
X141545000Y-109283494D02*
X141515000Y-109313494D01*
X141515000Y-109313494D02*
X141425000Y-109343494D01*
X141425000Y-109343494D02*
X141365000Y-109343494D01*
X141365000Y-109343494D02*
X141275000Y-109313494D01*
X141275000Y-109313494D02*
X141215000Y-109253494D01*
X141215000Y-109253494D02*
X141185000Y-109193494D01*
X141185000Y-109193494D02*
X141155000Y-109073494D01*
X141155000Y-109073494D02*
X141155000Y-108983494D01*
X141155000Y-108983494D02*
X141185000Y-108863494D01*
X141185000Y-108863494D02*
X141215000Y-108803494D01*
X141215000Y-108803494D02*
X141275000Y-108743494D01*
X141275000Y-108743494D02*
X141365000Y-108713494D01*
X141365000Y-108713494D02*
X141425000Y-108713494D01*
X141425000Y-108713494D02*
X141515000Y-108743494D01*
X141515000Y-108743494D02*
X141545000Y-108773494D01*
X142145000Y-109343494D02*
X141785000Y-109343494D01*
X141965000Y-109343494D02*
X141965000Y-108713494D01*
X141965000Y-108713494D02*
X141905000Y-108803494D01*
X141905000Y-108803494D02*
X141845000Y-108863494D01*
X141845000Y-108863494D02*
X141785000Y-108893494D01*
X138555000Y-115143494D02*
X138525000Y-115173494D01*
X138525000Y-115173494D02*
X138435000Y-115203494D01*
X138435000Y-115203494D02*
X138375000Y-115203494D01*
X138375000Y-115203494D02*
X138285000Y-115173494D01*
X138285000Y-115173494D02*
X138225000Y-115113494D01*
X138225000Y-115113494D02*
X138195000Y-115053494D01*
X138195000Y-115053494D02*
X138165000Y-114933494D01*
X138165000Y-114933494D02*
X138165000Y-114843494D01*
X138165000Y-114843494D02*
X138195000Y-114723494D01*
X138195000Y-114723494D02*
X138225000Y-114663494D01*
X138225000Y-114663494D02*
X138285000Y-114603494D01*
X138285000Y-114603494D02*
X138375000Y-114573494D01*
X138375000Y-114573494D02*
X138435000Y-114573494D01*
X138435000Y-114573494D02*
X138525000Y-114603494D01*
X138525000Y-114603494D02*
X138555000Y-114633494D01*
X138915000Y-114843494D02*
X138855000Y-114813494D01*
X138855000Y-114813494D02*
X138825000Y-114783494D01*
X138825000Y-114783494D02*
X138795000Y-114723494D01*
X138795000Y-114723494D02*
X138795000Y-114693494D01*
X138795000Y-114693494D02*
X138825000Y-114633494D01*
X138825000Y-114633494D02*
X138855000Y-114603494D01*
X138855000Y-114603494D02*
X138915000Y-114573494D01*
X138915000Y-114573494D02*
X139035000Y-114573494D01*
X139035000Y-114573494D02*
X139095000Y-114603494D01*
X139095000Y-114603494D02*
X139125000Y-114633494D01*
X139125000Y-114633494D02*
X139155000Y-114693494D01*
X139155000Y-114693494D02*
X139155000Y-114723494D01*
X139155000Y-114723494D02*
X139125000Y-114783494D01*
X139125000Y-114783494D02*
X139095000Y-114813494D01*
X139095000Y-114813494D02*
X139035000Y-114843494D01*
X139035000Y-114843494D02*
X138915000Y-114843494D01*
X138915000Y-114843494D02*
X138855000Y-114873494D01*
X138855000Y-114873494D02*
X138825000Y-114903494D01*
X138825000Y-114903494D02*
X138795000Y-114963494D01*
X138795000Y-114963494D02*
X138795000Y-115083494D01*
X138795000Y-115083494D02*
X138825000Y-115143494D01*
X138825000Y-115143494D02*
X138855000Y-115173494D01*
X138855000Y-115173494D02*
X138915000Y-115203494D01*
X138915000Y-115203494D02*
X139035000Y-115203494D01*
X139035000Y-115203494D02*
X139095000Y-115173494D01*
X139095000Y-115173494D02*
X139125000Y-115143494D01*
X139125000Y-115143494D02*
X139155000Y-115083494D01*
X139155000Y-115083494D02*
X139155000Y-114963494D01*
X139155000Y-114963494D02*
X139125000Y-114903494D01*
X139125000Y-114903494D02*
X139095000Y-114873494D01*
X139095000Y-114873494D02*
X139035000Y-114843494D01*
D13*
%TO.C,R2*%
X137957836Y-127080000D02*
X137742164Y-127080000D01*
X137957836Y-127800000D02*
X137742164Y-127800000D01*
D14*
%TO.C,IC1*%
X137970000Y-123780000D02*
X137970000Y-123780000D01*
X138070000Y-123780000D02*
X138070000Y-123780000D01*
D15*
X138720000Y-123430000D02*
X138720000Y-122630000D01*
X144220000Y-123430000D02*
X144220000Y-122630000D01*
D14*
X137970000Y-123780000D02*
G75*
G02*
X138070000Y-123780000I50000J0D01*
G01*
X138070000Y-123780000D02*
G75*
G02*
X137970000Y-123780000I-50000J0D01*
G01*
D13*
%TO.C,C5*%
X138831252Y-128515000D02*
X138308748Y-128515000D01*
X138831252Y-129985000D02*
X138308748Y-129985000D01*
D15*
%TO.C,Q1*%
X148630000Y-118994440D02*
X148630000Y-113244440D01*
X153530000Y-113244440D02*
X153530000Y-118994440D01*
X149175560Y-119689940D02*
G75*
G02*
X149110440Y-119689940I-32560J0D01*
G01*
X149110440Y-119689940D02*
G75*
G02*
X149175560Y-119689940I32560J0D01*
G01*
D13*
%TO.C,R4*%
X135390580Y-125470000D02*
X135109420Y-125470000D01*
X135390580Y-126490000D02*
X135109420Y-126490000D01*
%TO.C,C7*%
X140580000Y-129307836D02*
X140580000Y-129092164D01*
X141300000Y-129307836D02*
X141300000Y-129092164D01*
%TO.C,J1*%
D14*
X120850000Y-118430000D02*
X124850000Y-118430000D01*
X124850000Y-127430000D01*
X120850000Y-127430000D01*
X120850000Y-118430000D01*
D13*
%TO.C,C2*%
X143918748Y-114940000D02*
X145341252Y-114940000D01*
X143918748Y-117660000D02*
X145341252Y-117660000D01*
%TO.C,C3*%
X143918748Y-111240000D02*
X145341252Y-111240000D01*
X143918748Y-113960000D02*
X145341252Y-113960000D01*
D15*
%TO.C,L1*%
X157190000Y-107790000D02*
X158340000Y-107790000D01*
X157190000Y-137790000D02*
X157190000Y-107790000D01*
X158340000Y-137790000D02*
X157190000Y-137790000D01*
D14*
X169640000Y-138190000D02*
X169640000Y-138190000D01*
X169640000Y-138290000D02*
X169640000Y-138290000D01*
D15*
X181340000Y-137790000D02*
X182490000Y-137790000D01*
X182490000Y-107790000D02*
X181340000Y-107790000D01*
X182490000Y-137790000D02*
X182490000Y-107790000D01*
D14*
X169640000Y-138190000D02*
G75*
G02*
X169640000Y-138290000I0J-50000D01*
G01*
X169640000Y-138290000D02*
G75*
G02*
X169640000Y-138190000I0J50000D01*
G01*
D13*
%TO.C,C13*%
X187671252Y-134450000D02*
X186248748Y-134450000D01*
X187671252Y-137170000D02*
X186248748Y-137170000D01*
%TO.C,R1*%
X130785000Y-112291252D02*
X130785000Y-111768748D01*
X132255000Y-112291252D02*
X132255000Y-111768748D01*
%TO.C,R7*%
X186278748Y-122690000D02*
X187701252Y-122690000D01*
X186278748Y-124510000D02*
X187701252Y-124510000D01*
%TO.C,R5*%
X135390580Y-123640000D02*
X135109420Y-123640000D01*
X135390580Y-124660000D02*
X135109420Y-124660000D01*
%TO.C,C6*%
X135291252Y-127245000D02*
X134768748Y-127245000D01*
X135291252Y-128715000D02*
X134768748Y-128715000D01*
%TO.C,C10*%
X187671252Y-108120000D02*
X186248748Y-108120000D01*
X187671252Y-110840000D02*
X186248748Y-110840000D01*
%TO.C,C9*%
X145057836Y-119140000D02*
X144842164Y-119140000D01*
X145057836Y-119860000D02*
X144842164Y-119860000D01*
%TO.C,J2*%
D14*
X197430000Y-118430000D02*
X201430000Y-118430000D01*
X201430000Y-127430000D01*
X197430000Y-127430000D01*
X197430000Y-118430000D01*
D15*
%TO.C,Q2*%
X148600000Y-127512220D02*
X148600000Y-121762220D01*
X153500000Y-121762220D02*
X153500000Y-127512220D01*
X149145560Y-128207720D02*
G75*
G02*
X149080440Y-128207720I-32560J0D01*
G01*
X149080440Y-128207720D02*
G75*
G02*
X149145560Y-128207720I32560J0D01*
G01*
D13*
%TO.C,C4*%
X151591252Y-107630000D02*
X150168748Y-107630000D01*
X151591252Y-110350000D02*
X150168748Y-110350000D01*
%TO.C,R3*%
X140262164Y-127110000D02*
X140477836Y-127110000D01*
X140262164Y-127830000D02*
X140477836Y-127830000D01*
%TO.C,C12*%
X187671252Y-129520000D02*
X186248748Y-129520000D01*
X187671252Y-132240000D02*
X186248748Y-132240000D01*
D15*
%TO.C,LED1*%
X130640000Y-105420000D02*
X130640000Y-108620000D01*
X132240000Y-108620000D02*
X132240000Y-104895000D01*
D13*
%TO.C,R6*%
X139760000Y-116935580D02*
X139760000Y-116654420D01*
X140780000Y-116935580D02*
X140780000Y-116654420D01*
%TO.C,C11*%
X187671252Y-113630000D02*
X186248748Y-113630000D01*
X187671252Y-116350000D02*
X186248748Y-116350000D01*
%TO.C,C1*%
X143918748Y-107600000D02*
X145341252Y-107600000D01*
X143918748Y-110320000D02*
X145341252Y-110320000D01*
%TO.C,C8*%
X138180000Y-116950580D02*
X138180000Y-116669420D01*
X139200000Y-116950580D02*
X139200000Y-116669420D01*
D16*
%TO.C,G\u002A\u002A\u002A*%
G36*
X190617966Y-144492204D02*
G01*
X190320877Y-144492204D01*
X190328161Y-143947341D01*
X190335444Y-143402479D01*
X190617966Y-143386213D01*
X190617966Y-144492204D01*
G37*
G36*
X193953109Y-136615944D02*
G01*
X193965722Y-136623832D01*
X193961133Y-136626337D01*
X193935126Y-136660741D01*
X193927500Y-136704933D01*
X193918000Y-136754416D01*
X193900593Y-136769958D01*
X193880117Y-136747002D01*
X193873686Y-136704933D01*
X193861319Y-136649662D01*
X193840052Y-136626337D01*
X193840541Y-136617634D01*
X193883787Y-136612999D01*
X193900593Y-136612766D01*
X193953109Y-136615944D01*
G37*
G36*
X194088770Y-136623444D02*
G01*
X194100151Y-136642151D01*
X194117822Y-136661938D01*
X194131543Y-136642151D01*
X194164655Y-136607449D01*
X194199290Y-136617011D01*
X194221334Y-136663606D01*
X194223474Y-136689237D01*
X194214011Y-136749063D01*
X194192351Y-136769302D01*
X194168588Y-136744495D01*
X194161301Y-136722871D01*
X194151075Y-136689710D01*
X194146860Y-136708817D01*
X194145875Y-136722871D01*
X194128366Y-136764305D01*
X194097403Y-136762215D01*
X194079853Y-136736324D01*
X194067696Y-136716496D01*
X194064158Y-136736324D01*
X194052272Y-136771102D01*
X194031544Y-136765591D01*
X194013355Y-136729373D01*
X194008220Y-136689237D01*
X194021874Y-136630582D01*
X194053429Y-136606241D01*
X194088770Y-136623444D01*
G37*
G36*
X191897232Y-143918678D02*
G01*
X191845280Y-144018771D01*
X191804294Y-144099276D01*
X191779658Y-144149529D01*
X191774957Y-144160839D01*
X191799177Y-144165680D01*
X191861097Y-144168751D01*
X191909491Y-144169322D01*
X192044025Y-144169322D01*
X192044025Y-144492204D01*
X191667330Y-144492204D01*
X191531946Y-144491509D01*
X191418147Y-144489602D01*
X191335561Y-144486747D01*
X191293816Y-144483207D01*
X191290635Y-144481866D01*
X191301871Y-144454832D01*
X191331938Y-144391219D01*
X191375371Y-144302468D01*
X191398262Y-144256496D01*
X191446115Y-144159127D01*
X191483032Y-144080655D01*
X191503507Y-144032942D01*
X191505889Y-144024672D01*
X191481824Y-144014656D01*
X191420939Y-144008650D01*
X191384809Y-144007882D01*
X191263728Y-144007882D01*
X191263728Y-143685000D01*
X192019507Y-143685000D01*
X191897232Y-143918678D01*
G37*
G36*
X195175955Y-143396476D02*
G01*
X195352263Y-143417572D01*
X195505096Y-143454984D01*
X195620309Y-143506140D01*
X195626094Y-143509838D01*
X195728250Y-143607140D01*
X195798177Y-143736797D01*
X195832810Y-143885941D01*
X195829085Y-144041702D01*
X195786857Y-144184890D01*
X195701030Y-144312277D01*
X195578352Y-144411323D01*
X195431863Y-144473857D01*
X195296459Y-144492204D01*
X195192118Y-144492204D01*
X195192118Y-144330763D01*
X195193501Y-144241316D01*
X195201232Y-144193026D01*
X195220685Y-144173246D01*
X195257236Y-144169329D01*
X195260721Y-144169322D01*
X195343535Y-144154569D01*
X195425280Y-144117653D01*
X195484557Y-144069590D01*
X195498286Y-144047036D01*
X195519384Y-143932889D01*
X195492858Y-143836699D01*
X195423499Y-143764246D01*
X195316101Y-143721308D01*
X195220361Y-143711907D01*
X195111398Y-143711907D01*
X195111398Y-144492204D01*
X194787402Y-144492204D01*
X194794686Y-143947341D01*
X194801970Y-143402479D01*
X194990317Y-143394267D01*
X195175955Y-143396476D01*
G37*
G36*
X189831806Y-143692522D02*
G01*
X189967963Y-143725311D01*
X190074971Y-143795156D01*
X190150612Y-143892523D01*
X190192671Y-144007879D01*
X190198930Y-144131691D01*
X190167173Y-144254425D01*
X190095183Y-144366548D01*
X190006257Y-144442780D01*
X189907252Y-144481346D01*
X189785055Y-144491845D01*
X189662250Y-144474500D01*
X189575082Y-144438535D01*
X189469570Y-144346438D01*
X189404738Y-144231179D01*
X189383396Y-144120237D01*
X189681482Y-144120237D01*
X189718510Y-144180854D01*
X189759463Y-144216134D01*
X189794495Y-144217141D01*
X189836272Y-144196976D01*
X189888677Y-144146696D01*
X189904663Y-144083653D01*
X189886930Y-144024728D01*
X189838174Y-143986798D01*
X189801744Y-143980975D01*
X189725940Y-144001569D01*
X189683721Y-144053111D01*
X189681482Y-144120237D01*
X189383396Y-144120237D01*
X189380255Y-144103908D01*
X189395790Y-143975775D01*
X189451014Y-143857932D01*
X189545597Y-143761528D01*
X189596044Y-143730597D01*
X189698362Y-143696254D01*
X189824815Y-143692032D01*
X189831806Y-143692522D01*
G37*
G36*
X191075381Y-143550466D02*
G01*
X191076805Y-143639939D01*
X191084588Y-143688245D01*
X191103995Y-143708021D01*
X191140290Y-143711903D01*
X191142648Y-143711907D01*
X191181173Y-143715748D01*
X191201233Y-143736052D01*
X191208813Y-143785986D01*
X191209915Y-143859894D01*
X191208169Y-143944650D01*
X191198940Y-143988781D01*
X191176242Y-144005457D01*
X191142648Y-144007882D01*
X191091589Y-144018871D01*
X191075707Y-144062315D01*
X191075381Y-144075725D01*
X191097635Y-144142097D01*
X191142648Y-144174218D01*
X191182349Y-144198722D01*
X191202473Y-144236224D01*
X191209401Y-144303259D01*
X191209915Y-144348535D01*
X191208261Y-144431612D01*
X191198694Y-144474291D01*
X191174305Y-144489978D01*
X191135921Y-144492103D01*
X191062633Y-144477864D01*
X190982239Y-144443241D01*
X190974235Y-144438535D01*
X190905546Y-144391177D01*
X190854978Y-144339114D01*
X190819839Y-144273517D01*
X190797438Y-144185552D01*
X190785086Y-144066390D01*
X190780092Y-143907198D01*
X190779507Y-143799354D01*
X190779406Y-143389026D01*
X191075381Y-143389026D01*
X191075381Y-143550466D01*
G37*
G36*
X192857955Y-143394478D02*
G01*
X193041178Y-143409787D01*
X193178730Y-143439513D01*
X193277747Y-143487706D01*
X193345362Y-143558420D01*
X193388711Y-143655707D01*
X193400814Y-143702788D01*
X193401026Y-143801045D01*
X193369583Y-143905521D01*
X193315255Y-143989795D01*
X193301152Y-144002961D01*
X193282457Y-144024776D01*
X193278459Y-144055678D01*
X193291362Y-144106820D01*
X193323369Y-144189354D01*
X193350797Y-144254233D01*
X193392238Y-144352236D01*
X193424058Y-144429742D01*
X193441390Y-144474792D01*
X193443177Y-144481134D01*
X193418712Y-144486947D01*
X193355066Y-144490956D01*
X193280049Y-144492204D01*
X193116921Y-144492204D01*
X193037888Y-144317900D01*
X192992955Y-144198563D01*
X192964881Y-144081980D01*
X192954290Y-143978600D01*
X192961805Y-143898868D01*
X192988047Y-143853232D01*
X193009790Y-143846441D01*
X193061702Y-143826356D01*
X193081375Y-143780542D01*
X193062065Y-143730658D01*
X193049351Y-143719343D01*
X192988184Y-143690673D01*
X192953713Y-143685000D01*
X192934951Y-143688870D01*
X192921722Y-143705758D01*
X192913073Y-143743584D01*
X192908048Y-143810268D01*
X192905692Y-143913728D01*
X192905049Y-144061885D01*
X192905042Y-144088602D01*
X192905042Y-144492204D01*
X192582161Y-144492204D01*
X192582161Y-143381972D01*
X192857955Y-143394478D01*
G37*
G36*
X188781842Y-143394476D02*
G01*
X188955282Y-143408762D01*
X189081770Y-143434978D01*
X189167550Y-143476911D01*
X189218863Y-143538346D01*
X189241953Y-143623070D01*
X189244864Y-143675293D01*
X189229432Y-143782618D01*
X189195723Y-143848409D01*
X189165252Y-143890788D01*
X189166331Y-143920727D01*
X189203264Y-143958454D01*
X189222630Y-143974862D01*
X189272274Y-144026506D01*
X189294681Y-144085525D01*
X189299533Y-144165727D01*
X189289236Y-144264367D01*
X189262620Y-144343208D01*
X189255657Y-144354525D01*
X189185842Y-144418291D01*
X189086549Y-144467782D01*
X188982037Y-144491543D01*
X188964063Y-144492204D01*
X188925052Y-144488474D01*
X188904740Y-144468500D01*
X188897060Y-144419101D01*
X188895932Y-144344216D01*
X188897678Y-144259461D01*
X188906907Y-144215329D01*
X188929604Y-144198653D01*
X188963199Y-144196229D01*
X189017080Y-144182354D01*
X189030466Y-144156381D01*
X189007506Y-144120699D01*
X188963199Y-144099651D01*
X188922366Y-144083400D01*
X188902468Y-144051007D01*
X188896232Y-143986566D01*
X188895932Y-143952488D01*
X188903135Y-143859217D01*
X188926690Y-143807877D01*
X188940449Y-143797295D01*
X188970327Y-143758856D01*
X188960265Y-143715590D01*
X188918052Y-143687525D01*
X188896776Y-143685000D01*
X188875775Y-143687481D01*
X188860979Y-143700257D01*
X188851303Y-143731330D01*
X188845664Y-143788699D01*
X188842978Y-143880365D01*
X188842163Y-144014328D01*
X188842118Y-144088602D01*
X188842118Y-144492204D01*
X188519237Y-144492204D01*
X188519237Y-143381831D01*
X188781842Y-143394476D01*
G37*
G36*
X194139703Y-143408773D02*
G01*
X194234564Y-143470306D01*
X194290895Y-143550763D01*
X194327007Y-143634332D01*
X194325728Y-143683674D01*
X194282984Y-143706823D01*
X194209176Y-143711907D01*
X194118619Y-143703601D01*
X194074880Y-143677801D01*
X194071764Y-143671547D01*
X194040816Y-143637093D01*
X194002913Y-143635690D01*
X193981631Y-143666952D01*
X193981313Y-143673023D01*
X193995713Y-143714978D01*
X194033566Y-143785689D01*
X194086854Y-143870259D01*
X194089943Y-143874824D01*
X194149611Y-143958976D01*
X194193832Y-144007103D01*
X194235269Y-144029068D01*
X194286583Y-144034734D01*
X194295286Y-144034788D01*
X194392000Y-144034788D01*
X194376545Y-144149142D01*
X194373352Y-144238208D01*
X194396227Y-144317737D01*
X194427950Y-144377850D01*
X194494810Y-144492204D01*
X194360730Y-144492204D01*
X194280414Y-144487566D01*
X194224676Y-144475742D01*
X194211153Y-144467129D01*
X194178518Y-144460076D01*
X194122118Y-144480416D01*
X194006472Y-144515951D01*
X193892480Y-144498683D01*
X193829739Y-144467501D01*
X193728579Y-144385636D01*
X193673873Y-144286249D01*
X193658432Y-144165400D01*
X193658728Y-144162595D01*
X193900593Y-144162595D01*
X193914504Y-144224358D01*
X193962970Y-144248584D01*
X193989079Y-144250043D01*
X194024233Y-144245391D01*
X194021556Y-144221616D01*
X194002472Y-144190977D01*
X193955881Y-144136841D01*
X193919258Y-144122739D01*
X193901215Y-144151068D01*
X193900593Y-144162595D01*
X193658728Y-144162595D01*
X193669480Y-144060835D01*
X193707944Y-143981343D01*
X193723019Y-143962160D01*
X193763529Y-143907555D01*
X193770010Y-143870205D01*
X193749925Y-143833872D01*
X193724992Y-143773288D01*
X193712560Y-143691183D01*
X193712245Y-143677167D01*
X193722066Y-143597094D01*
X193759106Y-143529680D01*
X193803728Y-143480509D01*
X193872943Y-143421013D01*
X193938681Y-143394438D01*
X194012996Y-143389026D01*
X194139703Y-143408773D01*
G37*
G36*
X192511749Y-137688799D02*
G01*
X192727073Y-137703796D01*
X192927536Y-137732427D01*
X193103575Y-137774698D01*
X193245629Y-137830617D01*
X193326264Y-137883348D01*
X193366309Y-137920345D01*
X193384955Y-137953859D01*
X193385174Y-138001177D01*
X193369936Y-138079584D01*
X193364330Y-138104853D01*
X193302297Y-138301319D01*
X193200126Y-138507499D01*
X193054149Y-138730709D01*
X193042291Y-138747030D01*
X192980035Y-138835722D01*
X192932520Y-138910115D01*
X192907250Y-138958181D01*
X192905042Y-138966945D01*
X192926063Y-138995718D01*
X192982001Y-139044105D01*
X193062166Y-139103154D01*
X193091052Y-139122747D01*
X193237965Y-139230134D01*
X193348629Y-139331650D01*
X193418534Y-139422487D01*
X193443175Y-139497834D01*
X193443177Y-139498503D01*
X193433666Y-139538589D01*
X193407113Y-139620774D01*
X193366484Y-139737201D01*
X193314750Y-139880015D01*
X193254879Y-140041359D01*
X193189839Y-140213379D01*
X193122599Y-140388217D01*
X193056127Y-140558019D01*
X192993393Y-140714928D01*
X192937364Y-140851088D01*
X192893713Y-140952580D01*
X192825739Y-141088919D01*
X192758716Y-141193461D01*
X192696798Y-141262048D01*
X192644140Y-141290524D01*
X192604895Y-141274731D01*
X192593185Y-141253310D01*
X192593223Y-141215983D01*
X192602014Y-141134956D01*
X192618277Y-141019397D01*
X192640731Y-140878476D01*
X192665567Y-140735355D01*
X192695402Y-140558273D01*
X192722217Y-140377988D01*
X192743976Y-140209807D01*
X192758646Y-140069036D01*
X192763448Y-139998771D01*
X192767664Y-139876489D01*
X192765900Y-139793557D01*
X192756007Y-139735648D01*
X192735839Y-139688437D01*
X192711027Y-139648983D01*
X192655199Y-139584833D01*
X192572062Y-139509896D01*
X192486922Y-139445609D01*
X192391313Y-139373053D01*
X192334958Y-139305669D01*
X192316055Y-139232267D01*
X192332800Y-139141655D01*
X192383393Y-139022643D01*
X192410225Y-138969373D01*
X192507180Y-138780767D01*
X192581727Y-138633596D01*
X192636661Y-138521749D01*
X192674778Y-138439115D01*
X192698872Y-138379582D01*
X192711739Y-138337039D01*
X192716175Y-138305374D01*
X192716295Y-138300212D01*
X192713439Y-138256579D01*
X192700176Y-138222679D01*
X192670300Y-138196992D01*
X192617599Y-138177995D01*
X192535866Y-138164166D01*
X192418891Y-138153985D01*
X192260465Y-138145929D01*
X192056710Y-138138553D01*
X191869912Y-138131062D01*
X191706275Y-138121929D01*
X191573297Y-138111735D01*
X191478475Y-138101063D01*
X191429309Y-138090499D01*
X191427427Y-138089599D01*
X191379949Y-138040515D01*
X191379657Y-137975158D01*
X191425908Y-137901912D01*
X191443165Y-137884735D01*
X191546863Y-137818077D01*
X191693069Y-137765010D01*
X191872223Y-137725542D01*
X192074762Y-137699679D01*
X192291125Y-137687430D01*
X192511749Y-137688799D01*
G37*
G36*
X192336760Y-136744390D02*
G01*
X192541927Y-136749354D01*
X192721531Y-136756919D01*
X192864240Y-136767088D01*
X192880488Y-136768705D01*
X193069711Y-136790497D01*
X193213313Y-136812672D01*
X193319454Y-136837491D01*
X193396293Y-136867213D01*
X193451990Y-136904099D01*
X193482908Y-136935558D01*
X193535037Y-137008641D01*
X193546287Y-137066199D01*
X193518026Y-137126041D01*
X193499396Y-137150399D01*
X193485725Y-137166124D01*
X193469358Y-137179287D01*
X193445849Y-137190043D01*
X193410753Y-137198542D01*
X193359624Y-137204938D01*
X193288018Y-137209383D01*
X193191489Y-137212029D01*
X193065593Y-137213030D01*
X192905883Y-137212538D01*
X192707916Y-137210705D01*
X192467245Y-137207683D01*
X192179425Y-137203626D01*
X192017118Y-137201267D01*
X191686665Y-137201140D01*
X191406721Y-137211440D01*
X191174921Y-137232593D01*
X190988897Y-137265026D01*
X190846285Y-137309164D01*
X190744716Y-137365434D01*
X190681826Y-137434262D01*
X190677163Y-137442627D01*
X190655236Y-137525025D01*
X190649670Y-137652333D01*
X190659286Y-137818588D01*
X190682904Y-138017826D01*
X190719345Y-138244084D01*
X190767429Y-138491396D01*
X190825977Y-138753800D01*
X190893810Y-139025332D01*
X190969748Y-139300027D01*
X191052611Y-139571921D01*
X191141222Y-139835052D01*
X191161360Y-139891144D01*
X191272742Y-140180371D01*
X191400774Y-140483367D01*
X191539705Y-140788152D01*
X191683783Y-141082741D01*
X191827256Y-141355153D01*
X191964373Y-141593403D01*
X192024617Y-141689601D01*
X192096419Y-141802874D01*
X192141696Y-141882060D01*
X192164723Y-141937194D01*
X192169780Y-141978316D01*
X192162208Y-142012482D01*
X192139554Y-142056943D01*
X192100844Y-142080135D01*
X192029079Y-142090818D01*
X192007221Y-142092356D01*
X191928770Y-142093935D01*
X191874416Y-142079964D01*
X191822482Y-142041133D01*
X191774099Y-141992218D01*
X191709105Y-141910932D01*
X191626542Y-141787371D01*
X191530173Y-141628666D01*
X191423759Y-141441947D01*
X191311061Y-141234346D01*
X191195840Y-141012993D01*
X191081859Y-140785018D01*
X190972878Y-140557554D01*
X190872659Y-140337730D01*
X190784964Y-140132677D01*
X190758053Y-140066038D01*
X190629777Y-139721463D01*
X190513214Y-139366300D01*
X190410499Y-139009505D01*
X190323771Y-138660038D01*
X190255166Y-138326857D01*
X190206823Y-138018919D01*
X190180879Y-137745182D01*
X190177031Y-137630975D01*
X190182447Y-137426495D01*
X190207103Y-137266046D01*
X190256889Y-137141529D01*
X190337693Y-137044843D01*
X190455404Y-136967891D01*
X190615909Y-136902571D01*
X190733017Y-136866222D01*
X190877662Y-136829436D01*
X191040211Y-136795480D01*
X191188153Y-136771067D01*
X191203448Y-136769090D01*
X191324050Y-136758500D01*
X191487073Y-136750496D01*
X191681187Y-136745081D01*
X191895059Y-136742256D01*
X192117361Y-136742025D01*
X192336760Y-136744390D01*
G37*
%TD*%
M02*
