M48
; DRILL file {KiCad 9.0.0} date 2025-03-31T18:14:23+0530
; FORMAT={-:-/ absolute / metric / decimal}
; #@! TF.CreationDate,2025-03-31T18:14:23+05:30
; #@! TF.GenerationSoftware,Kicad,Pcbnew,9.0.0
; #@! TF.FileFunction,Plated,1,2,PTH
FMAT,2
METRIC
; #@! TA.AperFunction,Plated,PTH,ViaDrill
T1C0.300
; #@! TA.AperFunction,Plated,PTH,ViaDrill
T2C0.508
%
G90
G05
T1
X120.56Y-126.03
X120.58Y-126.88
X120.6Y-125.17
X120.6Y-127.76
X120.6Y-130.0
X121.78Y-100.4
X121.78Y-145.07
X121.99Y-127.76
X122.0Y-130.0
X123.45Y-127.76
X123.5Y-130.0
X124.86Y-127.76
X124.946Y-130.0
X129.68Y-130.68
X129.76Y-140.13
X130.71Y-123.05
X130.71Y-125.79
X130.75Y-128.57
X133.22Y-105.89
X134.84Y-121.06
X136.74Y-119.62
X137.78Y-122.92
X138.44Y-121.36
X138.68Y-114.23
X139.3Y-123.02
X139.81Y-119.56
X139.86Y-111.36
X139.92Y-112.56
X139.92Y-113.61
X140.62Y-120.0
X140.96Y-111.34
X141.04Y-113.68
X141.187Y-118.087
X141.316Y-126.748
X141.84Y-119.74
X141.903Y-128.812
X141.931Y-127.959
X141.97Y-109.86
X142.0Y-111.39
X142.02Y-113.68
X142.07Y-115.05
X142.3Y-103.18
X142.35Y-118.19
X142.839Y-119.411
X143.27Y-140.76
X143.8Y-118.748
X144.43Y-116.29
X144.64Y-145.07
X144.94Y-123.79
X145.58Y-100.4
X146.8Y-133.526
X146.8Y-134.66
X147.02Y-127.35
X147.02Y-128.66
X147.02Y-129.99
X147.55Y-140.38
X147.78Y-103.16
X148.05Y-128.75
X148.1Y-127.42
X148.26Y-129.99
X148.35Y-120.74
X148.96Y-133.48
X148.97Y-134.66
X149.47Y-128.706
X149.47Y-129.99
X150.67Y-128.706
X150.78Y-129.99
X151.05Y-133.48
X151.05Y-134.66
X151.89Y-128.706
X151.95Y-129.99
X152.52Y-106.07
X152.91Y-103.22
X152.98Y-120.24
X153.18Y-134.66
X153.2Y-133.48
X154.8Y-109.15
X154.87Y-106.73
X154.87Y-111.5
X154.87Y-114.0
X154.94Y-116.05
X155.4Y-134.66
X155.44Y-133.48
X157.38Y-133.48
X157.4Y-134.66
X157.56Y-105.88
X158.84Y-103.28
X163.27Y-105.91
X164.58Y-103.18
X171.26Y-105.88
X173.33Y-145.07
X176.29Y-100.28
X177.35Y-141.37
X177.46Y-105.82
X178.2Y-103.28
X183.4Y-105.88
X183.69Y-108.2
X183.69Y-110.46
X183.69Y-112.65
X183.69Y-114.77
X183.69Y-116.758
X183.69Y-118.65
X183.69Y-120.58
X184.15Y-126.4
X184.15Y-128.46
X184.15Y-130.73
X184.15Y-132.64
X184.15Y-134.86
X184.37Y-103.24
X185.55Y-118.74
X190.24Y-103.28
X194.35Y-125.89
X196.86Y-126.82
X196.89Y-127.84
X197.0Y-130.5
X197.84Y-123.91
X198.32Y-127.84
X198.323Y-130.5
X199.51Y-123.94
X199.82Y-127.84
X199.916Y-130.5
X200.87Y-145.07
X201.04Y-100.4
X201.1Y-123.95
X201.25Y-127.84
X201.25Y-130.5
T2
X134.86Y-118.19
X136.79Y-108.69
X143.63Y-134.8
M30
