%TF.GenerationSoftware,KiCad,Pcbnew,9.0.0*%
%TF.CreationDate,2025-03-31T14:23:32+05:30*%
%TF.ProjectId,Buck,4275636b-2e6b-4696-9361-645f70636258,rev?*%
%TF.SameCoordinates,Original*%
%TF.FileFunction,Copper,L1,Top*%
%TF.FilePolarity,Positive*%
%FSLAX46Y46*%
G04 Gerber Fmt 4.6, Leading zero omitted, Abs format (unit mm)*
G04 Created by KiCad (PCBNEW 9.0.0) date 2025-03-31 14:23:32*
%MOMM*%
%LPD*%
G01*
G04 APERTURE LIST*
G04 Aperture macros list*
%AMRoundRect*
0 Rectangle with rounded corners*
0 $1 Rounding radius*
0 $2 $3 $4 $5 $6 $7 $8 $9 X,Y pos of 4 corners*
0 Add a 4 corners polygon primitive as box body*
4,1,4,$2,$3,$4,$5,$6,$7,$8,$9,$2,$3,0*
0 Add four circle primitives for the rounded corners*
1,1,$1+$1,$2,$3*
1,1,$1+$1,$4,$5*
1,1,$1+$1,$6,$7*
1,1,$1+$1,$8,$9*
0 Add four rect primitives between the rounded corners*
20,1,$1+$1,$2,$3,$4,$5,0*
20,1,$1+$1,$4,$5,$6,$7,0*
20,1,$1+$1,$6,$7,$8,$9,0*
20,1,$1+$1,$8,$9,$2,$3,0*%
G04 Aperture macros list end*
%TA.AperFunction,EtchedComponent*%
%ADD10C,0.228600*%
%TD*%
%TA.AperFunction,SMDPad,CuDef*%
%ADD11RoundRect,0.140000X0.140000X0.170000X-0.140000X0.170000X-0.140000X-0.170000X0.140000X-0.170000X0*%
%TD*%
%TA.AperFunction,SMDPad,CuDef*%
%ADD12R,0.600000X0.250000*%
%TD*%
%TA.AperFunction,SMDPad,CuDef*%
%ADD13R,0.250000X0.600000*%
%TD*%
%TA.AperFunction,SMDPad,CuDef*%
%ADD14R,4.100000X2.100000*%
%TD*%
%TA.AperFunction,SMDPad,CuDef*%
%ADD15RoundRect,0.250000X0.250000X0.475000X-0.250000X0.475000X-0.250000X-0.475000X0.250000X-0.475000X0*%
%TD*%
%TA.AperFunction,SMDPad,CuDef*%
%ADD16R,0.675000X0.750000*%
%TD*%
%TA.AperFunction,SMDPad,CuDef*%
%ADD17R,0.675000X0.655000*%
%TD*%
%TA.AperFunction,SMDPad,CuDef*%
%ADD18R,4.510000X4.295000*%
%TD*%
%TA.AperFunction,SMDPad,CuDef*%
%ADD19RoundRect,0.225000X0.225000X0.250000X-0.225000X0.250000X-0.225000X-0.250000X0.225000X-0.250000X0*%
%TD*%
%TA.AperFunction,SMDPad,CuDef*%
%ADD20RoundRect,0.140000X0.170000X-0.140000X0.170000X0.140000X-0.170000X0.140000X-0.170000X-0.140000X0*%
%TD*%
%TA.AperFunction,SMDPad,CuDef*%
%ADD21RoundRect,0.381000X-1.206500X-0.889000X1.206500X-0.889000X1.206500X0.889000X-1.206500X0.889000X0*%
%TD*%
%TA.AperFunction,SMDPad,CuDef*%
%ADD22RoundRect,0.250000X-0.325000X-1.100000X0.325000X-1.100000X0.325000X1.100000X-0.325000X1.100000X0*%
%TD*%
%TA.AperFunction,SMDPad,CuDef*%
%ADD23R,22.000000X5.500000*%
%TD*%
%TA.AperFunction,SMDPad,CuDef*%
%ADD24RoundRect,0.250000X0.325000X1.100000X-0.325000X1.100000X-0.325000X-1.100000X0.325000X-1.100000X0*%
%TD*%
%TA.AperFunction,SMDPad,CuDef*%
%ADD25RoundRect,0.250000X0.475000X-0.250000X0.475000X0.250000X-0.475000X0.250000X-0.475000X-0.250000X0*%
%TD*%
%TA.AperFunction,SMDPad,CuDef*%
%ADD26RoundRect,0.250000X-0.325000X-0.650000X0.325000X-0.650000X0.325000X0.650000X-0.325000X0.650000X0*%
%TD*%
%TA.AperFunction,SMDPad,CuDef*%
%ADD27RoundRect,0.140000X-0.140000X-0.170000X0.140000X-0.170000X0.140000X0.170000X-0.140000X0.170000X0*%
%TD*%
%TA.AperFunction,SMDPad,CuDef*%
%ADD28C,0.228600*%
%TD*%
%TA.AperFunction,SMDPad,CuDef*%
%ADD29R,1.250000X1.300000*%
%TD*%
%TA.AperFunction,SMDPad,CuDef*%
%ADD30RoundRect,0.225000X0.250000X-0.225000X0.250000X0.225000X-0.250000X0.225000X-0.250000X-0.225000X0*%
%TD*%
%TA.AperFunction,ViaPad*%
%ADD31C,0.508000*%
%TD*%
%TA.AperFunction,ViaPad*%
%ADD32C,0.600000*%
%TD*%
%TA.AperFunction,ViaPad*%
%ADD33C,0.584200*%
%TD*%
%TA.AperFunction,ViaPad*%
%ADD34C,0.500000*%
%TD*%
%TA.AperFunction,ViaPad*%
%ADD35C,0.889000*%
%TD*%
%TA.AperFunction,ViaPad*%
%ADD36C,0.558800*%
%TD*%
%TA.AperFunction,ViaPad*%
%ADD37C,0.635000*%
%TD*%
%TA.AperFunction,ViaPad*%
%ADD38C,0.609600*%
%TD*%
%TA.AperFunction,Conductor*%
%ADD39C,0.508000*%
%TD*%
%TA.AperFunction,Conductor*%
%ADD40C,0.228600*%
%TD*%
%TA.AperFunction,Conductor*%
%ADD41C,0.203200*%
%TD*%
%TA.AperFunction,Conductor*%
%ADD42C,1.524000*%
%TD*%
%TA.AperFunction,Conductor*%
%ADD43C,1.016000*%
%TD*%
%TA.AperFunction,Conductor*%
%ADD44C,1.651000*%
%TD*%
%TA.AperFunction,Conductor*%
%ADD45C,0.762000*%
%TD*%
%TA.AperFunction,Conductor*%
%ADD46C,1.270000*%
%TD*%
%TA.AperFunction,Conductor*%
%ADD47C,0.254000*%
%TD*%
%TA.AperFunction,Conductor*%
%ADD48C,1.778000*%
%TD*%
%TA.AperFunction,Conductor*%
%ADD49C,0.166000*%
%TD*%
%TA.AperFunction,Conductor*%
%ADD50C,0.635000*%
%TD*%
G04 APERTURE END LIST*
D10*
%TO.C,NT1*%
X141720000Y-124520000D02*
X141720000Y-123520000D01*
%TD*%
D11*
%TO.P,R2,1*%
%TO.N,Net-(C5-Pad1)*%
X138330000Y-127440000D03*
%TO.P,R2,2*%
%TO.N,Net-(IC1-EXTCOMP)*%
X137370000Y-127440000D03*
%TD*%
D12*
%TO.P,IC1,1,NC_1*%
%TO.N,GND*%
X138820000Y-123780000D03*
D13*
%TO.P,IC1,2,NC_2*%
X139220000Y-124680000D03*
%TO.P,IC1,3,CNFG*%
%TO.N,Net-(IC1-CNFG)*%
X139720000Y-124680000D03*
%TO.P,IC1,4,RT*%
%TO.N,Net-(IC1-RT)*%
X140220000Y-124680000D03*
%TO.P,IC1,5,EXTCOMP*%
%TO.N,Net-(IC1-EXTCOMP)*%
X140720000Y-124680000D03*
%TO.P,IC1,6,FB*%
%TO.N,Net-(IC1-FB)*%
X141220000Y-124680000D03*
%TO.P,IC1,7,AGND_1*%
%TO.N,GND2*%
X141720000Y-124680000D03*
%TO.P,IC1,8,VDDA*%
%TO.N,Net-(IC1-PFM{slash}SYNC)*%
X142220000Y-124680000D03*
%TO.P,IC1,9,VCC*%
%TO.N,Net-(IC1-VCC)*%
X142720000Y-124680000D03*
%TO.P,IC1,10,PGND*%
%TO.N,GND*%
X143220000Y-124680000D03*
%TO.P,IC1,11,LO*%
%TO.N,Net-(IC1-LO)*%
X143720000Y-124680000D03*
D12*
%TO.P,IC1,12,VIN*%
%TO.N,VIN*%
X144120000Y-123780000D03*
%TO.P,IC1,13,HO*%
%TO.N,Net-(IC1-HO)*%
X144120000Y-122280000D03*
D13*
%TO.P,IC1,14,SW*%
%TO.N,Net-(IC1-SW)*%
X143720000Y-121380000D03*
%TO.P,IC1,15,CBOOT*%
%TO.N,Net-(IC1-CBOOT)*%
X143220000Y-121380000D03*
%TO.P,IC1,16,VCCX*%
%TO.N,GND*%
X142720000Y-121380000D03*
%TO.P,IC1,17,PG/SYNCOUT*%
%TO.N,Net-(IC1-PG{slash}SYNCOUT)*%
X142220000Y-121380000D03*
%TO.P,IC1,18,PFM/SYNC*%
%TO.N,Net-(IC1-PFM{slash}SYNC)*%
X141720000Y-121380000D03*
%TO.P,IC1,19,EN*%
%TO.N,VIN*%
X141220000Y-121380000D03*
%TO.P,IC1,20,ISNS+*%
%TO.N,ISNS*%
X140720000Y-121380000D03*
%TO.P,IC1,21,VOUT*%
%TO.N,VOUT*%
X140220000Y-121380000D03*
%TO.P,IC1,22,NC_3*%
%TO.N,GND*%
X139720000Y-121380000D03*
%TO.P,IC1,23,NC_4*%
X139220000Y-121380000D03*
D12*
%TO.P,IC1,24,NC_5*%
X138820000Y-122280000D03*
D14*
%TO.P,IC1,25,AGND_2*%
X141470000Y-123030000D03*
%TD*%
D15*
%TO.P,C5,1*%
%TO.N,Net-(C5-Pad1)*%
X139520000Y-129250000D03*
%TO.P,C5,2*%
%TO.N,GND2*%
X137620000Y-129250000D03*
%TD*%
D16*
%TO.P,Q1,1,S*%
%TO.N,Net-(IC1-SW)*%
X151715000Y-118871940D03*
X150445000Y-118871940D03*
X149175000Y-118871940D03*
%TO.P,Q1,2,G*%
%TO.N,Net-(IC1-HO)*%
X152985000Y-118871940D03*
D17*
%TO.P,Q1,3,D*%
%TO.N,VIN*%
X152985000Y-113319440D03*
X151715000Y-113319440D03*
X150445000Y-113319440D03*
X149187000Y-113319440D03*
D18*
X151080000Y-115794440D03*
%TD*%
D19*
%TO.P,R4,1*%
%TO.N,Net-(IC1-RT)*%
X136025000Y-125980000D03*
%TO.P,R4,2*%
%TO.N,GND2*%
X134475000Y-125980000D03*
%TD*%
D20*
%TO.P,C7,1*%
%TO.N,GND2*%
X140940000Y-129680000D03*
%TO.P,C7,2*%
%TO.N,Net-(IC1-PFM{slash}SYNC)*%
X140940000Y-128720000D03*
%TD*%
D21*
%TO.P,J1,1,Pin_1*%
%TO.N,VIN*%
X122850000Y-119930000D03*
%TO.P,J1,2,Pin_2*%
%TO.N,GND*%
X122850000Y-125930000D03*
%TD*%
D22*
%TO.P,C2,1*%
%TO.N,GND*%
X143155000Y-116300000D03*
%TO.P,C2,2*%
%TO.N,VIN*%
X146105000Y-116300000D03*
%TD*%
%TO.P,C3,1*%
%TO.N,GND*%
X143155000Y-112600000D03*
%TO.P,C3,2*%
%TO.N,VIN*%
X146105000Y-112600000D03*
%TD*%
D23*
%TO.P,L1,1*%
%TO.N,ISNS*%
X169840000Y-135040000D03*
%TO.P,L1,2*%
%TO.N,Net-(IC1-SW)*%
X169840000Y-110540000D03*
%TD*%
D24*
%TO.P,C13,1*%
%TO.N,VOUT*%
X188435000Y-135810000D03*
%TO.P,C13,2*%
%TO.N,GND*%
X185485000Y-135810000D03*
%TD*%
D25*
%TO.P,R1,1*%
%TO.N,VIN*%
X131520000Y-112980000D03*
%TO.P,R1,2*%
%TO.N,Net-(LED1-Pad2)*%
X131520000Y-111080000D03*
%TD*%
D26*
%TO.P,R7,1*%
%TO.N,ISNS*%
X185515000Y-123600000D03*
%TO.P,R7,2*%
%TO.N,VOUT*%
X188465000Y-123600000D03*
%TD*%
D19*
%TO.P,R5,1*%
%TO.N,Net-(IC1-CNFG)*%
X136025000Y-124150000D03*
%TO.P,R5,2*%
%TO.N,GND2*%
X134475000Y-124150000D03*
%TD*%
D15*
%TO.P,C6,1*%
%TO.N,Net-(IC1-EXTCOMP)*%
X135980000Y-127980000D03*
%TO.P,C6,2*%
%TO.N,GND2*%
X134080000Y-127980000D03*
%TD*%
D24*
%TO.P,C10,1*%
%TO.N,VOUT*%
X188435000Y-109480000D03*
%TO.P,C10,2*%
%TO.N,GND*%
X185485000Y-109480000D03*
%TD*%
D11*
%TO.P,C9,1*%
%TO.N,Net-(IC1-SW)*%
X145430000Y-119500000D03*
%TO.P,C9,2*%
%TO.N,Net-(IC1-CBOOT)*%
X144470000Y-119500000D03*
%TD*%
D21*
%TO.P,J2,1,Pin_1*%
%TO.N,VOUT*%
X199430000Y-119930000D03*
%TO.P,J2,2,Pin_2*%
%TO.N,GND*%
X199430000Y-125930000D03*
%TD*%
D16*
%TO.P,Q2,1,S*%
%TO.N,GND*%
X151685000Y-127389720D03*
X150415000Y-127389720D03*
X149145000Y-127389720D03*
%TO.P,Q2,2,G*%
%TO.N,Net-(IC1-LO)*%
X152955000Y-127389720D03*
D17*
%TO.P,Q2,3,D*%
%TO.N,Net-(IC1-SW)*%
X152955000Y-121837220D03*
X151685000Y-121837220D03*
X150415000Y-121837220D03*
X149157000Y-121837220D03*
D18*
X151050000Y-124312220D03*
%TD*%
D24*
%TO.P,C4,1*%
%TO.N,GND*%
X152355000Y-108990000D03*
%TO.P,C4,2*%
%TO.N,VIN*%
X149405000Y-108990000D03*
%TD*%
D27*
%TO.P,R3,1*%
%TO.N,Net-(IC1-FB)*%
X139890000Y-127470000D03*
%TO.P,R3,2*%
%TO.N,Net-(IC1-PFM{slash}SYNC)*%
X140850000Y-127470000D03*
%TD*%
D28*
%TO.P,NT1,1,1*%
%TO.N,GND2*%
X141720000Y-124520000D03*
%TO.P,NT1,2,2*%
%TO.N,GND*%
X141720000Y-123520000D03*
%TD*%
D24*
%TO.P,C12,1*%
%TO.N,VOUT*%
X188435000Y-130880000D03*
%TO.P,C12,2*%
%TO.N,GND*%
X185485000Y-130880000D03*
%TD*%
D29*
%TO.P,LED1,1*%
%TO.N,GND*%
X131440000Y-105520000D03*
%TO.P,LED1,2*%
%TO.N,Net-(LED1-Pad2)*%
X131440000Y-108520000D03*
%TD*%
D30*
%TO.P,R6,1*%
%TO.N,Net-(IC1-VCC)*%
X140270000Y-117570000D03*
%TO.P,R6,2*%
%TO.N,Net-(IC1-PG{slash}SYNCOUT)*%
X140270000Y-116020000D03*
%TD*%
D24*
%TO.P,C11,1*%
%TO.N,VOUT*%
X188435000Y-114990000D03*
%TO.P,C11,2*%
%TO.N,GND*%
X185485000Y-114990000D03*
%TD*%
D22*
%TO.P,C1,1*%
%TO.N,GND*%
X143155000Y-108960000D03*
%TO.P,C1,2*%
%TO.N,VIN*%
X146105000Y-108960000D03*
%TD*%
D30*
%TO.P,C8,1*%
%TO.N,Net-(IC1-VCC)*%
X138690000Y-117585000D03*
%TO.P,C8,2*%
%TO.N,GND*%
X138690000Y-116035000D03*
%TD*%
D31*
%TO.N,GND*%
X151890000Y-128706000D03*
X123500000Y-130000000D03*
D32*
X133220000Y-105890000D03*
D31*
X197000000Y-130500000D03*
X199820000Y-127840000D03*
D32*
X163270000Y-105910000D03*
X190240000Y-103280000D03*
D31*
X121990000Y-127760000D03*
D32*
X157380000Y-133480000D03*
X139860000Y-111360000D03*
X130710000Y-123050000D03*
D31*
X196890000Y-127840000D03*
X143270000Y-140760000D03*
X196860000Y-126820000D03*
X144640000Y-145070000D03*
X198320000Y-127840000D03*
X129760000Y-140130000D03*
D32*
X147020000Y-128660000D03*
X183690000Y-118650000D03*
X134840000Y-121060000D03*
D31*
X177350000Y-141370000D03*
X201100000Y-123950000D03*
D32*
X157400000Y-134660000D03*
D31*
X148050000Y-128750000D03*
D32*
X142020000Y-113680000D03*
D31*
X121780000Y-145070000D03*
D32*
X183690000Y-116758160D03*
X150780000Y-129990000D03*
D31*
X184150000Y-130730000D03*
D32*
X154870000Y-106730000D03*
X148970000Y-134660000D03*
X183400000Y-105880000D03*
D31*
X120600000Y-125170000D03*
D32*
X140960000Y-111340000D03*
X183690000Y-114770000D03*
D31*
X146800000Y-133526000D03*
D32*
X152520000Y-106070000D03*
D31*
X184150000Y-126400000D03*
X145580000Y-100400000D03*
D32*
X155400000Y-134660000D03*
D31*
X199510000Y-123940000D03*
X184150000Y-128460000D03*
D32*
X148960000Y-133480000D03*
D31*
X129680000Y-130680000D03*
X120560000Y-126030000D03*
D32*
X147020000Y-127350000D03*
D31*
X121780000Y-100400000D03*
X184150000Y-134860000D03*
D32*
X149470000Y-129990000D03*
X147550000Y-140380000D03*
X183690000Y-108200000D03*
D31*
X143800000Y-118748300D03*
D32*
X139920000Y-112560000D03*
X147020000Y-129990000D03*
D31*
X124946348Y-130000000D03*
X201250000Y-127840000D03*
D32*
X142000000Y-111390000D03*
D33*
X194350000Y-125890000D03*
D32*
X164580000Y-103180000D03*
X148260000Y-129990000D03*
D31*
X199916417Y-130500000D03*
D32*
X154940000Y-116050000D03*
D31*
X148100000Y-127420000D03*
X197840000Y-123910000D03*
D32*
X152910000Y-103220000D03*
X177460000Y-105820000D03*
X130750000Y-128570000D03*
X158840000Y-103280000D03*
X155440000Y-133480000D03*
X154870000Y-114000000D03*
D34*
X144430000Y-116290000D03*
D32*
X138440000Y-121360000D03*
X141040000Y-113680000D03*
X141970000Y-109860000D03*
D31*
X123450000Y-127760000D03*
D32*
X171260000Y-105880000D03*
X130710000Y-125790000D03*
D31*
X120600000Y-127760000D03*
D32*
X183690000Y-112650000D03*
X146800000Y-134660000D03*
D31*
X173330000Y-145070000D03*
X150670000Y-128706000D03*
X201250000Y-130500000D03*
D32*
X157560000Y-105880000D03*
D31*
X176290000Y-100280000D03*
X149470000Y-128706000D03*
D32*
X142300000Y-103180000D03*
X151950000Y-129990000D03*
X183690000Y-120580000D03*
D31*
X120580000Y-126880000D03*
D32*
X153180000Y-134660000D03*
X151050000Y-134660000D03*
D31*
X122000000Y-130000000D03*
D32*
X139920000Y-113610000D03*
X147780000Y-103160000D03*
D31*
X201040000Y-100400000D03*
X124860000Y-127760000D03*
D32*
X183690000Y-110460000D03*
X184370000Y-103240000D03*
D31*
X200870000Y-145070000D03*
D32*
X178200000Y-103280000D03*
D31*
X184150000Y-132640000D03*
D32*
X153200000Y-133480000D03*
D31*
X120600000Y-130000000D03*
D32*
X136740000Y-119620000D03*
D31*
X198323207Y-130500000D03*
D32*
X154800000Y-109150000D03*
X154870000Y-111500000D03*
X142070000Y-115050000D03*
D33*
X185550000Y-118740000D03*
D32*
X138680000Y-114230000D03*
X139300000Y-123020000D03*
X151050000Y-133480000D03*
D31*
%TO.N,VIN*%
X144940000Y-123790000D03*
D33*
X142350000Y-118190000D03*
D35*
%TO.N,VOUT*%
X134860000Y-118190000D03*
X136790000Y-108690000D03*
%TO.N,ISNS*%
X143630000Y-134800000D03*
D31*
X140619801Y-119999576D03*
%TO.N,GND2*%
X141316361Y-126747619D03*
X137780000Y-122920000D03*
D32*
%TO.N,Net-(IC1-PFM{slash}SYNC)*%
X141903339Y-128812083D03*
D31*
X141840000Y-119740000D03*
D36*
%TO.N,Net-(IC1-VCC)*%
X139810000Y-119560000D03*
D32*
X141931475Y-127958544D03*
D37*
%TO.N,Net-(IC1-HO)*%
X152980000Y-120240000D03*
X148349500Y-120740000D03*
D31*
%TO.N,Net-(IC1-PG{slash}SYNCOUT)*%
X142838506Y-119411494D03*
D38*
X141187440Y-118087440D03*
%TD*%
D39*
%TO.N,GND*%
X185485000Y-114990000D02*
X185485000Y-109480000D01*
D40*
X144420000Y-116300000D02*
X143155000Y-116300000D01*
X122850000Y-125930000D02*
X126215000Y-125930000D01*
X138840000Y-123790000D02*
X138840000Y-124290000D01*
D39*
X185485000Y-135810000D02*
X185485000Y-137965000D01*
D41*
X143240000Y-124690000D02*
X143240000Y-130830000D01*
D40*
X126215000Y-125930000D02*
X130235000Y-121910000D01*
D39*
X185485000Y-114990000D02*
X185485000Y-118675000D01*
D40*
X143800000Y-118748300D02*
X143800000Y-119482486D01*
D39*
X199390000Y-125890000D02*
X199430000Y-125930000D01*
D41*
X148130280Y-127389720D02*
X149145000Y-127389720D01*
D40*
X142370000Y-123380000D02*
X143223600Y-124233600D01*
X138840000Y-122290000D02*
X138840000Y-121790000D01*
X138460000Y-121910000D02*
X138840000Y-122290000D01*
D39*
X192290000Y-130240000D02*
X196640000Y-125890000D01*
D40*
X138840000Y-121790000D02*
X139240000Y-121390000D01*
X138820000Y-122280000D02*
X140720000Y-122280000D01*
X130235000Y-121910000D02*
X138460000Y-121910000D01*
X140720000Y-123780000D02*
X141470000Y-123030000D01*
D39*
X196640000Y-125890000D02*
X199390000Y-125890000D01*
D40*
X138840000Y-124290000D02*
X139240000Y-124690000D01*
X138690000Y-114240000D02*
X138680000Y-114230000D01*
D39*
X191330000Y-139230000D02*
X192290000Y-138270000D01*
X186720000Y-139200000D02*
X191300000Y-139200000D01*
D40*
X133200000Y-105910000D02*
X131440000Y-105910000D01*
X141710000Y-123380000D02*
X142370000Y-123380000D01*
D41*
X148100000Y-127420000D02*
X148130280Y-127389720D01*
D40*
X149340000Y-140500000D02*
X147670000Y-140500000D01*
X197140000Y-125890000D02*
X197180000Y-125930000D01*
X144430000Y-116290000D02*
X144420000Y-116300000D01*
D39*
X191300000Y-139200000D02*
X191330000Y-139230000D01*
D40*
X146630000Y-133650000D02*
X146060000Y-133650000D01*
X143215000Y-108960000D02*
X143155000Y-109020000D01*
X133220000Y-105890000D02*
X133200000Y-105910000D01*
X139720000Y-121380000D02*
X139220000Y-121380000D01*
D39*
X192290000Y-138270000D02*
X192290000Y-130240000D01*
D40*
X146060000Y-133650000D02*
X143240000Y-130830000D01*
X147670000Y-140500000D02*
X147550000Y-140380000D01*
X143155000Y-109020000D02*
X143155000Y-116300000D01*
D39*
X185485000Y-137965000D02*
X186720000Y-139200000D01*
D40*
X180795000Y-140500000D02*
X149340000Y-140500000D01*
X143223600Y-124233600D02*
X143223600Y-124680000D01*
X142740000Y-120542486D02*
X142740000Y-121390000D01*
D39*
X194350000Y-125890000D02*
X197140000Y-125890000D01*
D40*
X143800000Y-119482486D02*
X142740000Y-120542486D01*
X138690000Y-116035000D02*
X138690000Y-114240000D01*
X138840000Y-122290000D02*
X138840000Y-123790000D01*
D41*
X149145000Y-127389720D02*
X151685000Y-127389720D01*
D40*
X138820000Y-123780000D02*
X140720000Y-123780000D01*
X141740000Y-123290000D02*
X141490000Y-123040000D01*
X185485000Y-118675000D02*
X185550000Y-118740000D01*
D39*
X185485000Y-135810000D02*
X185485000Y-130880000D01*
D40*
X185485000Y-135810000D02*
X180795000Y-140500000D01*
X146800000Y-133480000D02*
X146630000Y-133650000D01*
D42*
%TO.N,VIN*%
X150574440Y-116300000D02*
X151080000Y-115794440D01*
D43*
X149065560Y-113780000D02*
X151080000Y-115794440D01*
D39*
X146060000Y-113225000D02*
X146105000Y-113180000D01*
D42*
X148563000Y-106593000D02*
X149290000Y-107320000D01*
X142358264Y-106593000D02*
X146220000Y-106593000D01*
D40*
X131460000Y-117735000D02*
X131460000Y-113510000D01*
X146105000Y-117605000D02*
X146105000Y-116300000D01*
D44*
X128930000Y-119930000D02*
X122850000Y-119930000D01*
D40*
X142350000Y-118190000D02*
X141216700Y-119323300D01*
D42*
X146165000Y-116240000D02*
X146165000Y-106648000D01*
D40*
X129265000Y-119930000D02*
X131460000Y-117735000D01*
X142410000Y-118130000D02*
X145580000Y-118130000D01*
D42*
X146165000Y-106648000D02*
X146220000Y-106593000D01*
D40*
X141217701Y-119751917D02*
X141217701Y-119999181D01*
D42*
X128930000Y-119930000D02*
X129021264Y-119930000D01*
D40*
X141217701Y-119999181D02*
X141223600Y-120005080D01*
X144940000Y-123790000D02*
X144140000Y-123790000D01*
D42*
X147780000Y-106593000D02*
X148563000Y-106593000D01*
X129021264Y-119930000D02*
X142358264Y-106593000D01*
D40*
X141216700Y-119750916D02*
X141217701Y-119751917D01*
X141223600Y-120005080D02*
X141223600Y-120720700D01*
D45*
X149187000Y-113319440D02*
X152985000Y-113319440D01*
D40*
X142350000Y-118190000D02*
X142410000Y-118130000D01*
X141234300Y-120720700D02*
X141234300Y-121384300D01*
X141216700Y-119323300D02*
X141216700Y-119750916D01*
D42*
X146220000Y-106593000D02*
X146940000Y-106593000D01*
X149290000Y-107320000D02*
X149290000Y-115680000D01*
D40*
X145580000Y-118130000D02*
X146105000Y-117605000D01*
D42*
X146940000Y-106593000D02*
X147780000Y-106593000D01*
D40*
X141223600Y-120720700D02*
X141234300Y-120720700D01*
X128930000Y-119930000D02*
X129265000Y-119930000D01*
X141234300Y-121384300D02*
X141240000Y-121390000D01*
D46*
%TO.N,VOUT*%
X195760000Y-119930000D02*
X199430000Y-119930000D01*
X188435000Y-127255000D02*
X195760000Y-119930000D01*
D40*
X188450000Y-121350000D02*
X188450000Y-123585000D01*
X188450000Y-123585000D02*
X188465000Y-123600000D01*
X134930000Y-118120000D02*
X137414300Y-118120000D01*
X134860000Y-118190000D02*
X134930000Y-118120000D01*
X137414300Y-118120000D02*
X140220000Y-120925700D01*
D46*
X188435000Y-130880000D02*
X188435000Y-127255000D01*
X188435000Y-109480000D02*
X188435000Y-114990000D01*
D47*
X188435000Y-121335000D02*
X188435000Y-114990000D01*
D40*
X188435000Y-121335000D02*
X188450000Y-121350000D01*
X141020000Y-104460000D02*
X184765000Y-104460000D01*
X140240000Y-121390000D02*
X140240000Y-121100000D01*
X140240000Y-121100000D02*
X140234300Y-121094300D01*
X140220000Y-120925700D02*
X140220000Y-121380000D01*
D46*
X188435000Y-116315000D02*
X192050000Y-119930000D01*
X188435000Y-135810000D02*
X188435000Y-130880000D01*
X192050000Y-119930000D02*
X195760000Y-119930000D01*
X188435000Y-114990000D02*
X188435000Y-116315000D01*
D40*
X184765000Y-104460000D02*
X188435000Y-108130000D01*
X136790000Y-108690000D02*
X141020000Y-104460000D01*
%TO.N,ISNS*%
X180015000Y-124785000D02*
X180015000Y-124865000D01*
X140733100Y-120198494D02*
X140740000Y-120205394D01*
D48*
X185515000Y-123600000D02*
X181200000Y-123600000D01*
D40*
X140619801Y-119999576D02*
X140733100Y-119999576D01*
D48*
X169840000Y-135040000D02*
X180015000Y-124865000D01*
D47*
X143630000Y-134800000D02*
X143630000Y-134930000D01*
D40*
X140733100Y-119999576D02*
X140733100Y-120198494D01*
X140740000Y-120205394D02*
X140740000Y-120482300D01*
D48*
X181200000Y-123600000D02*
X180015000Y-124785000D01*
D47*
X145430000Y-136730000D02*
X168150000Y-136730000D01*
D40*
X140740000Y-120482300D02*
X140740000Y-120520386D01*
D47*
X143630000Y-134930000D02*
X145430000Y-136730000D01*
D48*
X180015000Y-124865000D02*
X180385000Y-124495000D01*
D40*
X140740000Y-120921014D02*
X140740000Y-121390000D01*
X140740000Y-120520386D02*
X140740000Y-120921014D01*
D47*
X168150000Y-136730000D02*
X169840000Y-135040000D01*
D40*
%TO.N,Net-(LED1-Pad2)*%
X131460000Y-111020000D02*
X131460000Y-108930000D01*
X131460000Y-108930000D02*
X131440000Y-108910000D01*
X131520000Y-111080000D02*
X131460000Y-111020000D01*
%TO.N,GND2*%
X134475000Y-124150000D02*
X134475000Y-125980000D01*
X138714300Y-130344300D02*
X137620000Y-129250000D01*
X137780000Y-122920000D02*
X137740000Y-122880000D01*
X141740000Y-126323980D02*
X141740000Y-125830000D01*
X137740000Y-122880000D02*
X135745000Y-122880000D01*
X137620000Y-129250000D02*
X136600000Y-130270000D01*
X134080000Y-127980000D02*
X134080000Y-129400000D01*
X140275700Y-130344300D02*
X138714300Y-130344300D01*
X134080000Y-129400000D02*
X134950000Y-130270000D01*
X141316361Y-126747619D02*
X141740000Y-126323980D01*
X136600000Y-130270000D02*
X134950000Y-130270000D01*
X134475000Y-125980000D02*
X134475000Y-127585000D01*
X141740000Y-125830000D02*
X141740000Y-124690000D01*
X134475000Y-127585000D02*
X134080000Y-127980000D01*
X140940000Y-129680000D02*
X140275700Y-130344300D01*
X135745000Y-122880000D02*
X134475000Y-124150000D01*
%TO.N,Net-(C5-Pad1)*%
X138330000Y-127440000D02*
X138330000Y-128160000D01*
X138330000Y-128160000D02*
X139420000Y-129250000D01*
X139420000Y-129250000D02*
X139520000Y-129250000D01*
%TO.N,Net-(IC1-EXTCOMP)*%
X137370000Y-127440000D02*
X137340000Y-127410000D01*
X140740000Y-124690000D02*
X140740000Y-125760000D01*
X137229300Y-126730700D02*
X135980000Y-127980000D01*
X139769300Y-126730700D02*
X137229300Y-126730700D01*
X136550000Y-127410000D02*
X135980000Y-127980000D01*
X140740000Y-125760000D02*
X139769300Y-126730700D01*
X137340000Y-127410000D02*
X136550000Y-127410000D01*
%TO.N,Net-(IC1-PFM{slash}SYNC)*%
X140940000Y-128720000D02*
X141811256Y-128720000D01*
X140850000Y-128630000D02*
X140940000Y-128720000D01*
X140850000Y-127470000D02*
X141473485Y-127470000D01*
X141473485Y-127470000D02*
X142223600Y-126719885D01*
X141740000Y-119840000D02*
X141740000Y-121390000D01*
X141734300Y-121384300D02*
X141740000Y-121390000D01*
X141811256Y-128720000D02*
X141903339Y-128812083D01*
X140850000Y-127470000D02*
X140850000Y-128630000D01*
X141840000Y-119740000D02*
X141740000Y-119840000D01*
X142223600Y-126719885D02*
X142223600Y-124680000D01*
%TO.N,Net-(IC1-VCC)*%
X139810000Y-119560000D02*
X139824146Y-119560000D01*
X140270000Y-119100000D02*
X140270000Y-117570000D01*
X142740000Y-127150019D02*
X141931475Y-127958544D01*
X142725700Y-126045700D02*
X142725700Y-124740000D01*
X142740000Y-126060000D02*
X142725700Y-126045700D01*
X140255000Y-117585000D02*
X140270000Y-117570000D01*
X142740000Y-124690000D02*
X142740000Y-126060000D01*
X142740000Y-126060000D02*
X142740000Y-127150019D01*
X140605000Y-117525000D02*
X140260000Y-117525000D01*
X139817073Y-119552927D02*
X140270000Y-119100000D01*
X138690000Y-117585000D02*
X140255000Y-117585000D01*
X139824146Y-119560000D02*
X139817073Y-119552927D01*
%TO.N,Net-(IC1-CBOOT)*%
X144466400Y-119500000D02*
X143240000Y-120726400D01*
X144470000Y-119500000D02*
X144466400Y-119500000D01*
X143240000Y-120726400D02*
X143240000Y-121390000D01*
%TO.N,Net-(IC1-SW)*%
X145430000Y-119500000D02*
X145440000Y-119500000D01*
D39*
X149175000Y-118871940D02*
X149175000Y-121819220D01*
X151715000Y-118871940D02*
X151715000Y-121807220D01*
D40*
X146068060Y-118871940D02*
X149175000Y-118871940D01*
D39*
X151715000Y-121807220D02*
X151685000Y-121837220D01*
D40*
X143740000Y-121390000D02*
X145430000Y-119700000D01*
D42*
X160037780Y-124312220D02*
X151050000Y-124312220D01*
D39*
X150445000Y-121807220D02*
X150415000Y-121837220D01*
D42*
X169840000Y-110540000D02*
X169840000Y-114510000D01*
D40*
X145430000Y-119700000D02*
X145430000Y-119500000D01*
X145440000Y-119500000D02*
X146068060Y-118871940D01*
D42*
X169840000Y-114510000D02*
X160037780Y-124312220D01*
D39*
X149175000Y-121819220D02*
X149157000Y-121837220D01*
X150445000Y-118871940D02*
X150445000Y-121807220D01*
D40*
%TO.N,Net-(IC1-CNFG)*%
X139363600Y-125730000D02*
X137096702Y-125730000D01*
X139740000Y-124690000D02*
X139740000Y-125353600D01*
X136025000Y-124658298D02*
X136025000Y-124150000D01*
X137096702Y-125730000D02*
X136025000Y-124658298D01*
X139740000Y-125353600D02*
X139363600Y-125730000D01*
%TO.N,Net-(IC1-FB)*%
X141223600Y-125960314D02*
X139890000Y-127293914D01*
X139890000Y-127293914D02*
X139890000Y-127470000D01*
X141234300Y-125359300D02*
X141223600Y-125359300D01*
X141223600Y-125359300D02*
X141223600Y-125960314D01*
X141240000Y-124690000D02*
X141234300Y-124695700D01*
X141234300Y-124695700D02*
X141234300Y-125359300D01*
D39*
%TO.N,Net-(IC1-HO)*%
X148299500Y-120690000D02*
X145780000Y-120690000D01*
X152985000Y-120235000D02*
X152985000Y-118871940D01*
X152980000Y-120240000D02*
X152985000Y-120235000D01*
X148349500Y-120740000D02*
X148299500Y-120690000D01*
X145780000Y-120690000D02*
X144180000Y-122290000D01*
X144180000Y-122290000D02*
X144140000Y-122290000D01*
D40*
%TO.N,Net-(IC1-RT)*%
X137429614Y-126247100D02*
X137028986Y-126247100D01*
X140240000Y-125576086D02*
X139568986Y-126247100D01*
X140240000Y-124690000D02*
X140240000Y-125576086D01*
X139568986Y-126247100D02*
X137429614Y-126247100D01*
X137028986Y-126247100D02*
X137016086Y-126260000D01*
X136305000Y-126260000D02*
X136025000Y-125980000D01*
X137016086Y-126260000D02*
X136305000Y-126260000D01*
D49*
%TO.N,Net-(IC1-PG{slash}SYNCOUT)*%
X142240000Y-121390000D02*
X142240000Y-120221480D01*
X142240000Y-120221480D02*
X142838506Y-119622974D01*
X142245700Y-121384300D02*
X142240000Y-121390000D01*
D40*
X141187440Y-118087440D02*
X141167440Y-118087440D01*
X140270000Y-116020000D02*
X141187440Y-116937440D01*
X141187440Y-116937440D02*
X141187440Y-118087440D01*
D49*
X142838506Y-119622974D02*
X142838506Y-119411494D01*
D50*
%TO.N,Net-(IC1-LO)*%
X152955000Y-130995000D02*
X152955000Y-127389720D01*
X144017804Y-129727804D02*
X146170000Y-131880000D01*
X146170000Y-131880000D02*
X152070000Y-131880000D01*
X144017804Y-125397804D02*
X144017804Y-129727804D01*
D40*
X144017804Y-125397804D02*
X143740000Y-125120000D01*
D50*
X152070000Y-131880000D02*
X152955000Y-130995000D01*
D40*
X143740000Y-125120000D02*
X143740000Y-124690000D01*
%TD*%
%TA.AperFunction,Conductor*%
%TO.N,GND*%
G36*
X143471945Y-107974804D02*
G01*
X143472147Y-107974271D01*
X143503995Y-107986272D01*
X143575646Y-108013272D01*
X143580044Y-108014929D01*
X143589966Y-108017456D01*
X143632892Y-108028395D01*
X143743674Y-108043852D01*
X144012524Y-108051319D01*
X144262049Y-108058251D01*
X144328516Y-108079789D01*
X144372787Y-108133843D01*
X144382605Y-108182586D01*
X144354645Y-117241503D01*
X144354646Y-117241518D01*
X144355995Y-117280013D01*
X144356960Y-117293189D01*
X144357374Y-117298839D01*
X144361649Y-117337115D01*
X144367175Y-117355487D01*
X144367632Y-117425355D01*
X144330243Y-117484379D01*
X144266879Y-117513820D01*
X144248429Y-117515200D01*
X142804349Y-117515200D01*
X142737310Y-117495515D01*
X142735459Y-117494303D01*
X142725441Y-117487609D01*
X142725434Y-117487605D01*
X142581193Y-117427859D01*
X142581185Y-117427857D01*
X142428068Y-117397400D01*
X142428064Y-117397400D01*
X142271936Y-117397400D01*
X142271931Y-117397400D01*
X142118814Y-117427857D01*
X142118802Y-117427860D01*
X141973692Y-117487967D01*
X141904223Y-117495436D01*
X141841744Y-117464161D01*
X141806092Y-117404072D01*
X141802240Y-117373406D01*
X141802240Y-116876886D01*
X141802239Y-116876882D01*
X141800172Y-116866488D01*
X141778614Y-116758109D01*
X141732269Y-116646223D01*
X141732268Y-116646222D01*
X141732265Y-116646216D01*
X141664988Y-116545529D01*
X141641567Y-116522108D01*
X141579352Y-116459893D01*
X141281818Y-116162359D01*
X141248333Y-116101036D01*
X141245499Y-116074678D01*
X141245499Y-115746662D01*
X141245498Y-115746644D01*
X141235349Y-115647292D01*
X141235348Y-115647289D01*
X141182003Y-115486303D01*
X141181999Y-115486297D01*
X141181998Y-115486294D01*
X141092970Y-115341959D01*
X141092967Y-115341955D01*
X140973044Y-115222032D01*
X140973040Y-115222029D01*
X140828705Y-115133001D01*
X140828699Y-115132998D01*
X140828697Y-115132997D01*
X140828694Y-115132996D01*
X140667709Y-115079651D01*
X140568346Y-115069500D01*
X139971662Y-115069500D01*
X139971644Y-115069501D01*
X139872292Y-115079650D01*
X139872289Y-115079651D01*
X139711305Y-115132996D01*
X139711294Y-115133001D01*
X139566959Y-115222029D01*
X139566955Y-115222032D01*
X139447032Y-115341955D01*
X139447029Y-115341959D01*
X139358001Y-115486294D01*
X139357996Y-115486305D01*
X139304651Y-115647290D01*
X139294500Y-115746647D01*
X139294500Y-116293337D01*
X139294501Y-116293355D01*
X139304650Y-116392707D01*
X139304651Y-116392710D01*
X139347530Y-116522108D01*
X139349932Y-116591936D01*
X139314200Y-116651978D01*
X139251680Y-116683171D01*
X139190821Y-116678818D01*
X139087711Y-116644651D01*
X138988346Y-116634500D01*
X138391662Y-116634500D01*
X138391644Y-116634501D01*
X138292292Y-116644650D01*
X138292289Y-116644651D01*
X138131305Y-116697996D01*
X138131294Y-116698001D01*
X137986959Y-116787029D01*
X137986955Y-116787032D01*
X137867032Y-116906955D01*
X137867029Y-116906959D01*
X137778001Y-117051294D01*
X137777996Y-117051305D01*
X137724651Y-117212290D01*
X137714500Y-117311647D01*
X137714500Y-117401773D01*
X137694815Y-117468812D01*
X137642011Y-117514567D01*
X137572853Y-117524511D01*
X137566310Y-117523391D01*
X137497334Y-117509671D01*
X137474853Y-117505200D01*
X137474852Y-117505200D01*
X135562994Y-117505200D01*
X135495955Y-117485515D01*
X135475313Y-117468881D01*
X135462405Y-117455973D01*
X135462401Y-117455970D01*
X135307631Y-117352555D01*
X135307622Y-117352550D01*
X135135646Y-117281316D01*
X135135638Y-117281314D01*
X134953077Y-117245000D01*
X134953074Y-117245000D01*
X134766926Y-117245000D01*
X134766923Y-117245000D01*
X134584361Y-117281314D01*
X134584353Y-117281316D01*
X134412377Y-117352550D01*
X134412368Y-117352555D01*
X134257598Y-117455970D01*
X134257594Y-117455973D01*
X134125973Y-117587594D01*
X134125970Y-117587598D01*
X134022555Y-117742368D01*
X134022550Y-117742377D01*
X133951316Y-117914353D01*
X133951314Y-117914361D01*
X133915000Y-118096921D01*
X133915000Y-118283078D01*
X133951314Y-118465638D01*
X133951316Y-118465646D01*
X134022550Y-118637622D01*
X134022555Y-118637631D01*
X134125970Y-118792401D01*
X134125973Y-118792405D01*
X134257594Y-118924026D01*
X134257598Y-118924029D01*
X134412368Y-119027444D01*
X134412374Y-119027447D01*
X134412375Y-119027448D01*
X134584354Y-119098684D01*
X134766921Y-119134999D01*
X134766924Y-119135000D01*
X134766926Y-119135000D01*
X134953076Y-119135000D01*
X134953077Y-119134999D01*
X135135646Y-119098684D01*
X135307625Y-119027448D01*
X135462402Y-118924029D01*
X135520836Y-118865595D01*
X135594023Y-118792409D01*
X135594024Y-118792407D01*
X135594029Y-118792402D01*
X135595695Y-118789907D01*
X135596904Y-118788897D01*
X135597887Y-118787700D01*
X135598114Y-118787886D01*
X135649305Y-118745105D01*
X135698796Y-118734800D01*
X137108279Y-118734800D01*
X137175318Y-118754485D01*
X137195960Y-118771119D01*
X139558181Y-121133340D01*
X139591666Y-121194663D01*
X139594500Y-121221021D01*
X139594500Y-121727870D01*
X139594501Y-121727876D01*
X139600908Y-121787483D01*
X139651202Y-121922328D01*
X139651206Y-121922335D01*
X139737452Y-122037544D01*
X139737455Y-122037547D01*
X139852664Y-122123793D01*
X139852671Y-122123797D01*
X139897618Y-122140561D01*
X139987517Y-122174091D01*
X140047127Y-122180500D01*
X140392872Y-122180499D01*
X140452483Y-122174091D01*
X140452486Y-122174089D01*
X140456744Y-122173632D01*
X140483254Y-122173632D01*
X140487514Y-122174089D01*
X140487517Y-122174091D01*
X140547127Y-122180500D01*
X140892872Y-122180499D01*
X140952483Y-122174091D01*
X140952486Y-122174089D01*
X140956744Y-122173632D01*
X140983254Y-122173632D01*
X140987514Y-122174089D01*
X140987517Y-122174091D01*
X141047127Y-122180500D01*
X141392872Y-122180499D01*
X141452483Y-122174091D01*
X141452486Y-122174089D01*
X141456744Y-122173632D01*
X141483254Y-122173632D01*
X141487514Y-122174089D01*
X141487517Y-122174091D01*
X141547127Y-122180500D01*
X141892872Y-122180499D01*
X141952483Y-122174091D01*
X141952486Y-122174089D01*
X141956744Y-122173632D01*
X141983254Y-122173632D01*
X141987514Y-122174089D01*
X141987517Y-122174091D01*
X142047127Y-122180500D01*
X142392872Y-122180499D01*
X142452483Y-122174091D01*
X142587331Y-122123796D01*
X142645689Y-122080108D01*
X142711153Y-122055692D01*
X142779426Y-122070543D01*
X142794311Y-122080109D01*
X142852669Y-122123796D01*
X142852671Y-122123797D01*
X142897618Y-122140561D01*
X142987517Y-122174091D01*
X143047127Y-122180500D01*
X143150120Y-122180499D01*
X143150122Y-122180500D01*
X143150124Y-122180499D01*
X143150130Y-122180499D01*
X143184531Y-122190603D01*
X143217156Y-122200183D01*
X143217159Y-122200187D01*
X143217166Y-122200189D01*
X143238098Y-122224350D01*
X143262912Y-122252986D01*
X143262912Y-122252992D01*
X143262917Y-122252997D01*
X143267264Y-122283251D01*
X143272856Y-122322145D01*
X143272853Y-122322153D01*
X143272854Y-122322156D01*
X143262908Y-122356020D01*
X143238818Y-122408758D01*
X143234862Y-122416660D01*
X143204694Y-122471912D01*
X143204692Y-122471918D01*
X143195442Y-122514430D01*
X143192390Y-122528455D01*
X143191712Y-122528257D01*
X143185474Y-122549503D01*
X143180917Y-122581190D01*
X143179973Y-122585532D01*
X143179972Y-122585542D01*
X143174106Y-122612505D01*
X143174105Y-122612512D01*
X143172135Y-122640062D01*
X143171189Y-122648858D01*
X143165000Y-122691906D01*
X143165000Y-122691911D01*
X143165000Y-123380951D01*
X143171838Y-123432610D01*
X143182408Y-123512469D01*
X143197888Y-123569919D01*
X143199193Y-123574763D01*
X143227894Y-123643645D01*
X143250216Y-123697219D01*
X143292757Y-123751005D01*
X143301642Y-123773021D01*
X143314477Y-123792993D01*
X143317119Y-123811373D01*
X143318905Y-123815797D01*
X143319500Y-123827928D01*
X143319500Y-123862283D01*
X143299815Y-123929322D01*
X143247011Y-123975077D01*
X143177853Y-123985021D01*
X143121189Y-123961550D01*
X143087331Y-123936204D01*
X143087328Y-123936202D01*
X142952486Y-123885910D01*
X142952485Y-123885909D01*
X142952483Y-123885909D01*
X142892873Y-123879500D01*
X142892863Y-123879500D01*
X142547130Y-123879500D01*
X142547120Y-123879501D01*
X142483248Y-123886367D01*
X142465290Y-123886988D01*
X142454251Y-123886568D01*
X142452483Y-123885909D01*
X142392873Y-123879500D01*
X142268148Y-123879500D01*
X142265805Y-123879411D01*
X142234813Y-123869017D01*
X142203472Y-123859815D01*
X142200307Y-123857446D01*
X142199561Y-123857196D01*
X142198941Y-123856424D01*
X142189308Y-123849213D01*
X142161287Y-123824932D01*
X142161283Y-123824930D01*
X142030417Y-123765164D01*
X142030412Y-123765162D01*
X142030411Y-123765162D01*
X141963372Y-123745477D01*
X141963374Y-123745477D01*
X141963369Y-123745476D01*
X141915896Y-123738650D01*
X141820952Y-123725000D01*
X141619048Y-123725000D01*
X141619041Y-123725000D01*
X141487489Y-123742420D01*
X141487483Y-123742421D01*
X141425160Y-123759220D01*
X141425158Y-123759221D01*
X141302666Y-123810281D01*
X141302658Y-123810286D01*
X141249004Y-123852741D01*
X141229071Y-123860789D01*
X141211431Y-123873085D01*
X141189960Y-123876583D01*
X141184217Y-123878903D01*
X141176708Y-123879413D01*
X141174381Y-123879500D01*
X141047128Y-123879501D01*
X140987517Y-123885909D01*
X140985733Y-123886574D01*
X140974642Y-123886990D01*
X140972183Y-123886367D01*
X140956742Y-123886367D01*
X140952483Y-123885909D01*
X140892873Y-123879500D01*
X140892865Y-123879500D01*
X140547130Y-123879500D01*
X140547120Y-123879501D01*
X140483248Y-123886367D01*
X140456742Y-123886367D01*
X140452483Y-123885909D01*
X140392873Y-123879500D01*
X140392865Y-123879500D01*
X140047130Y-123879500D01*
X140047120Y-123879501D01*
X139983248Y-123886367D01*
X139956742Y-123886367D01*
X139952483Y-123885909D01*
X139892873Y-123879500D01*
X139892865Y-123879500D01*
X139547130Y-123879500D01*
X139547123Y-123879501D01*
X139487516Y-123885908D01*
X139352671Y-123936202D01*
X139352668Y-123936204D01*
X139232292Y-124026318D01*
X139211743Y-124033982D01*
X139193337Y-124045904D01*
X139179650Y-124045952D01*
X139166828Y-124050735D01*
X139145399Y-124046073D01*
X139123468Y-124046151D01*
X139111927Y-124038791D01*
X139098555Y-124035883D01*
X139083049Y-124020377D01*
X139064557Y-124008586D01*
X139054169Y-123991498D01*
X139049149Y-123986478D01*
X139045370Y-123978962D01*
X139043889Y-123975749D01*
X139011147Y-123892533D01*
X138981649Y-123840732D01*
X138979424Y-123835905D01*
X138975072Y-123806387D01*
X138968213Y-123777357D01*
X138969826Y-123770792D01*
X138969235Y-123766782D01*
X138972687Y-123759151D01*
X138979242Y-123732480D01*
X138980764Y-123729145D01*
X138980767Y-123729143D01*
X139040538Y-123598266D01*
X139060223Y-123531227D01*
X139060224Y-123531223D01*
X139080700Y-123388807D01*
X139080700Y-122671192D01*
X139080700Y-122671181D01*
X139080699Y-122671179D01*
X139079827Y-122656170D01*
X139077301Y-122612666D01*
X139073977Y-122584149D01*
X139063827Y-122526423D01*
X139011147Y-122392533D01*
X138976573Y-122331818D01*
X138888307Y-122218194D01*
X138854770Y-122194010D01*
X138823640Y-122156821D01*
X138821824Y-122157994D01*
X138813139Y-122144536D01*
X138739591Y-122030574D01*
X138739587Y-122030569D01*
X138739585Y-122030566D01*
X138693741Y-121977864D01*
X138693737Y-121977861D01*
X138693735Y-121977858D01*
X138584821Y-121883847D01*
X138584817Y-121883845D01*
X138584814Y-121883843D01*
X138453841Y-121824331D01*
X138453835Y-121824329D01*
X138453830Y-121824327D01*
X138453829Y-121824327D01*
X138386754Y-121804771D01*
X138386747Y-121804769D01*
X138244292Y-121784567D01*
X138244289Y-121784567D01*
X133119091Y-121794423D01*
X133105301Y-121794638D01*
X133101358Y-121794753D01*
X133098550Y-121794836D01*
X133098539Y-121794836D01*
X133098521Y-121794837D01*
X133084843Y-121795424D01*
X133084838Y-121795424D01*
X132943815Y-121823898D01*
X132883819Y-121845258D01*
X132879413Y-121846583D01*
X132750686Y-121914391D01*
X131814578Y-122593529D01*
X131814577Y-122593530D01*
X131743381Y-122656172D01*
X131743376Y-122656176D01*
X131711638Y-122689884D01*
X131653402Y-122764704D01*
X131594122Y-122895798D01*
X131594118Y-122895808D01*
X131574682Y-122962928D01*
X131554740Y-123105414D01*
X131554740Y-123105415D01*
X131559101Y-124270964D01*
X131559240Y-124308221D01*
X131574359Y-128349999D01*
X131576342Y-128880000D01*
X131584306Y-131009201D01*
X131584307Y-131009212D01*
X131587938Y-131067837D01*
X131591383Y-131096394D01*
X131601781Y-131154161D01*
X131601782Y-131154165D01*
X131655023Y-131287837D01*
X131689850Y-131348406D01*
X131689855Y-131348414D01*
X131689857Y-131348416D01*
X131778590Y-131461659D01*
X131778593Y-131461662D01*
X134232052Y-133809286D01*
X134254387Y-133830657D01*
X134291708Y-133863027D01*
X134291729Y-133863044D01*
X134291750Y-133863061D01*
X134310733Y-133877964D01*
X134310740Y-133877969D01*
X134310749Y-133877976D01*
X134344522Y-133901919D01*
X134351048Y-133906546D01*
X134351055Y-133906550D01*
X134482132Y-133965876D01*
X134523532Y-133977880D01*
X134549236Y-133985333D01*
X134691720Y-134005328D01*
X142815908Y-133977880D01*
X142883013Y-133997338D01*
X142928946Y-134049987D01*
X142939123Y-134119111D01*
X142910313Y-134182765D01*
X142904011Y-134189557D01*
X142895970Y-134197597D01*
X142895970Y-134197598D01*
X142792555Y-134352368D01*
X142792550Y-134352377D01*
X142721316Y-134524353D01*
X142721314Y-134524361D01*
X142685000Y-134706921D01*
X142685000Y-134893078D01*
X142721314Y-135075638D01*
X142721316Y-135075646D01*
X142792550Y-135247622D01*
X142792555Y-135247631D01*
X142895970Y-135402401D01*
X142895973Y-135402405D01*
X143027594Y-135534026D01*
X143027598Y-135534029D01*
X143182368Y-135637444D01*
X143182374Y-135637447D01*
X143182375Y-135637448D01*
X143354354Y-135708684D01*
X143427379Y-135723209D01*
X143525818Y-135742791D01*
X143587729Y-135775176D01*
X143589308Y-135776727D01*
X145029988Y-137217408D01*
X145029992Y-137217411D01*
X145132760Y-137286079D01*
X145132773Y-137286086D01*
X145246960Y-137333383D01*
X145246965Y-137333385D01*
X145246969Y-137333385D01*
X145246970Y-137333386D01*
X145368193Y-137357500D01*
X145368196Y-137357500D01*
X145368197Y-137357500D01*
X158215501Y-137357500D01*
X158282540Y-137377185D01*
X158328295Y-137429989D01*
X158339501Y-137481500D01*
X158339501Y-137837876D01*
X158345908Y-137897483D01*
X158396202Y-138032328D01*
X158396206Y-138032335D01*
X158482452Y-138147544D01*
X158482455Y-138147547D01*
X158597664Y-138233793D01*
X158597671Y-138233797D01*
X158732517Y-138284091D01*
X158732516Y-138284091D01*
X158739444Y-138284835D01*
X158792127Y-138290500D01*
X180887872Y-138290499D01*
X180947483Y-138284091D01*
X181082331Y-138233796D01*
X181197546Y-138147546D01*
X181283796Y-138032331D01*
X181334091Y-137897483D01*
X181340500Y-137837873D01*
X181340499Y-132242128D01*
X181334091Y-132182517D01*
X181297886Y-132085447D01*
X181283797Y-132047671D01*
X181283793Y-132047664D01*
X181197547Y-131932455D01*
X181197544Y-131932452D01*
X181082335Y-131846206D01*
X181082328Y-131846202D01*
X180947482Y-131795908D01*
X180947483Y-131795908D01*
X180887883Y-131789501D01*
X180887881Y-131789500D01*
X180887873Y-131789500D01*
X180887865Y-131789500D01*
X175354911Y-131789500D01*
X175287872Y-131769815D01*
X175242117Y-131717011D01*
X175232173Y-131647853D01*
X175261198Y-131584297D01*
X175267230Y-131577819D01*
X181074851Y-125770199D01*
X181444851Y-125400199D01*
X181573407Y-125223257D01*
X181597335Y-125176293D01*
X181598718Y-125174390D01*
X181598985Y-125173165D01*
X181620129Y-125144919D01*
X181739232Y-125025817D01*
X181800555Y-124992334D01*
X181826912Y-124989500D01*
X185026000Y-124989500D01*
X185038602Y-124990141D01*
X185139991Y-125000500D01*
X185890008Y-125000499D01*
X185890016Y-125000498D01*
X185890019Y-125000498D01*
X185946302Y-124994748D01*
X185992797Y-124989999D01*
X186159334Y-124934814D01*
X186308656Y-124842712D01*
X186395033Y-124756334D01*
X186456352Y-124722852D01*
X186526044Y-124727836D01*
X186581978Y-124769707D01*
X186606395Y-124835171D01*
X186606710Y-124843647D01*
X186644353Y-137412331D01*
X186646626Y-137458734D01*
X186646627Y-137458748D01*
X186648781Y-137481383D01*
X186655302Y-137527373D01*
X186701869Y-137663502D01*
X186701873Y-137663509D01*
X186733665Y-137725724D01*
X186816699Y-137843220D01*
X186816702Y-137843223D01*
X187487257Y-138551556D01*
X187508027Y-138572090D01*
X187511058Y-138575087D01*
X187519733Y-138583113D01*
X187523075Y-138586205D01*
X187539799Y-138600684D01*
X187548336Y-138608075D01*
X187716859Y-138744498D01*
X187716875Y-138744510D01*
X187742386Y-138763857D01*
X187754818Y-138772679D01*
X187755198Y-138772949D01*
X187763738Y-138778611D01*
X187763739Y-138778612D01*
X187770442Y-138783055D01*
X187781885Y-138790643D01*
X187783222Y-138791225D01*
X187797199Y-138798401D01*
X187806340Y-138803852D01*
X187806345Y-138803854D01*
X187806349Y-138803857D01*
X187867699Y-138834737D01*
X187870763Y-138836279D01*
X187900536Y-138843948D01*
X187910894Y-138847106D01*
X187913773Y-138848122D01*
X187913783Y-138848127D01*
X187918295Y-138849367D01*
X187918295Y-138849366D01*
X187956596Y-138859893D01*
X187956596Y-138859894D01*
X187981149Y-138866642D01*
X187981150Y-138866642D01*
X187981152Y-138866642D01*
X187981155Y-138866643D01*
X187988246Y-138867599D01*
X187988359Y-138867607D01*
X187996197Y-138868590D01*
X188010095Y-138872171D01*
X188035405Y-138874949D01*
X188035559Y-138873531D01*
X188088249Y-138880144D01*
X188089060Y-138880246D01*
X188089078Y-138880254D01*
X188089126Y-138880254D01*
X188123900Y-138884639D01*
X190322517Y-138846402D01*
X190322528Y-138846401D01*
X190322533Y-138846401D01*
X190393187Y-138840193D01*
X190393187Y-138840192D01*
X190393198Y-138840192D01*
X190418496Y-138836164D01*
X190427467Y-138834737D01*
X190427475Y-138834735D01*
X190427490Y-138834733D01*
X190496602Y-138818689D01*
X190626708Y-138757257D01*
X190685000Y-138718737D01*
X190792528Y-138623138D01*
X191486861Y-137800902D01*
X191507556Y-137774684D01*
X191517272Y-137761502D01*
X191536186Y-137733982D01*
X191595681Y-137602979D01*
X191614582Y-137538103D01*
X191615082Y-137536503D01*
X191615221Y-137535910D01*
X191615225Y-137535898D01*
X191615226Y-137535895D01*
X191635403Y-137393437D01*
X191616053Y-128192614D01*
X191635597Y-128125534D01*
X191652882Y-128104165D01*
X194931454Y-124863643D01*
X196451430Y-123361308D01*
X196512948Y-123328182D01*
X196538598Y-123325500D01*
X201000789Y-123325500D01*
X201000798Y-123325500D01*
X201007321Y-123325199D01*
X201047268Y-123323358D01*
X201047285Y-123323356D01*
X201047301Y-123323356D01*
X201070021Y-123321257D01*
X201116140Y-123314843D01*
X201252393Y-123268619D01*
X201314691Y-123236984D01*
X201432401Y-123154246D01*
X202040484Y-122581516D01*
X202102780Y-122549883D01*
X202172291Y-122556951D01*
X202226947Y-122600478D01*
X202249393Y-122666643D01*
X202249500Y-122671784D01*
X202249500Y-146495500D01*
X202229815Y-146562539D01*
X202177011Y-146608294D01*
X202125500Y-146619500D01*
X120224500Y-146619500D01*
X120157461Y-146599815D01*
X120111706Y-146547011D01*
X120100500Y-146495500D01*
X120100500Y-142777648D01*
X122629500Y-142777648D01*
X122629500Y-142982351D01*
X122661522Y-143184534D01*
X122724781Y-143379223D01*
X122817715Y-143561613D01*
X122938028Y-143727213D01*
X123082786Y-143871971D01*
X123237749Y-143984556D01*
X123248390Y-143992287D01*
X123364607Y-144051503D01*
X123430776Y-144085218D01*
X123430778Y-144085218D01*
X123430781Y-144085220D01*
X123535137Y-144119127D01*
X123625465Y-144148477D01*
X123710631Y-144161966D01*
X123827648Y-144180500D01*
X123827649Y-144180500D01*
X124032351Y-144180500D01*
X124032352Y-144180500D01*
X124234534Y-144148477D01*
X124429219Y-144085220D01*
X124611610Y-143992287D01*
X124704590Y-143924732D01*
X124777213Y-143871971D01*
X124777215Y-143871968D01*
X124777219Y-143871966D01*
X124921966Y-143727219D01*
X124921968Y-143727215D01*
X124921971Y-143727213D01*
X124974732Y-143654590D01*
X125042287Y-143561610D01*
X125135220Y-143379219D01*
X125177206Y-143250000D01*
X127750000Y-143250000D01*
X195500000Y-143250000D01*
X195500000Y-143067648D01*
X197129500Y-143067648D01*
X197129500Y-143272351D01*
X197161522Y-143474534D01*
X197224781Y-143669223D01*
X197317715Y-143851613D01*
X197438028Y-144017213D01*
X197582786Y-144161971D01*
X197737749Y-144274556D01*
X197748390Y-144282287D01*
X197864607Y-144341503D01*
X197930776Y-144375218D01*
X197930778Y-144375218D01*
X197930781Y-144375220D01*
X198035137Y-144409127D01*
X198125465Y-144438477D01*
X198226557Y-144454488D01*
X198327648Y-144470500D01*
X198327649Y-144470500D01*
X198532351Y-144470500D01*
X198532352Y-144470500D01*
X198734534Y-144438477D01*
X198929219Y-144375220D01*
X199111610Y-144282287D01*
X199204590Y-144214732D01*
X199277213Y-144161971D01*
X199277215Y-144161968D01*
X199277219Y-144161966D01*
X199421966Y-144017219D01*
X199421968Y-144017215D01*
X199421971Y-144017213D01*
X199474732Y-143944590D01*
X199542287Y-143851610D01*
X199635220Y-143669219D01*
X199698477Y-143474534D01*
X199730500Y-143272352D01*
X199730500Y-143067648D01*
X199698477Y-142865466D01*
X199635220Y-142670781D01*
X199635218Y-142670778D01*
X199635218Y-142670776D01*
X199601503Y-142604607D01*
X199542287Y-142488390D01*
X199509338Y-142443039D01*
X199421971Y-142322786D01*
X199277213Y-142178028D01*
X199111613Y-142057715D01*
X199111612Y-142057714D01*
X199111610Y-142057713D01*
X199054653Y-142028691D01*
X198929223Y-141964781D01*
X198734534Y-141901522D01*
X198559995Y-141873878D01*
X198532352Y-141869500D01*
X198327648Y-141869500D01*
X198303329Y-141873351D01*
X198125465Y-141901522D01*
X197930776Y-141964781D01*
X197748386Y-142057715D01*
X197582786Y-142178028D01*
X197438028Y-142322786D01*
X197317715Y-142488386D01*
X197224781Y-142670776D01*
X197161522Y-142865465D01*
X197129500Y-143067648D01*
X195500000Y-143067648D01*
X195500000Y-130500000D01*
X194750000Y-130500000D01*
X194750000Y-142376000D01*
X194730315Y-142443039D01*
X194677511Y-142488794D01*
X194626000Y-142500000D01*
X128624000Y-142500000D01*
X128556961Y-142480315D01*
X128511206Y-142427511D01*
X128500000Y-142376000D01*
X128500000Y-130500000D01*
X127750000Y-130500000D01*
X127750000Y-143250000D01*
X125177206Y-143250000D01*
X125198477Y-143184534D01*
X125230500Y-142982352D01*
X125230500Y-142777648D01*
X125198477Y-142575466D01*
X125135220Y-142380781D01*
X125135218Y-142380778D01*
X125135218Y-142380776D01*
X125101503Y-142314607D01*
X125042287Y-142198390D01*
X125027493Y-142178028D01*
X124921971Y-142032786D01*
X124777213Y-141888028D01*
X124611613Y-141767715D01*
X124611612Y-141767714D01*
X124611610Y-141767713D01*
X124554653Y-141738691D01*
X124429223Y-141674781D01*
X124234534Y-141611522D01*
X124059995Y-141583878D01*
X124032352Y-141579500D01*
X123827648Y-141579500D01*
X123803329Y-141583351D01*
X123625465Y-141611522D01*
X123430776Y-141674781D01*
X123248386Y-141767715D01*
X123082786Y-141888028D01*
X122938028Y-142032786D01*
X122817715Y-142198386D01*
X122724781Y-142380776D01*
X122661522Y-142575465D01*
X122629500Y-142777648D01*
X120100500Y-142777648D01*
X120100500Y-121094649D01*
X120120185Y-121027610D01*
X120172989Y-120981855D01*
X120242147Y-120971911D01*
X120305703Y-121000936D01*
X120335532Y-121044036D01*
X120337323Y-121043219D01*
X120339160Y-121047242D01*
X120339167Y-121047255D01*
X120339168Y-121047257D01*
X120372653Y-121108580D01*
X120458877Y-121223761D01*
X120458881Y-121223765D01*
X120458886Y-121223771D01*
X121246005Y-122010890D01*
X121246028Y-122010912D01*
X121287097Y-122047726D01*
X121308162Y-122064629D01*
X121308182Y-122064645D01*
X121353036Y-122096776D01*
X121353037Y-122096776D01*
X121353038Y-122096777D01*
X121484164Y-122155995D01*
X121484162Y-122155995D01*
X121487020Y-122156821D01*
X121540505Y-122172281D01*
X121546948Y-122174794D01*
X121551288Y-122175399D01*
X121551289Y-122175400D01*
X121693790Y-122195278D01*
X123963682Y-122185741D01*
X124041617Y-122179365D01*
X124079379Y-122173308D01*
X124155384Y-122154994D01*
X124284521Y-122091550D01*
X124341736Y-122052452D01*
X124342167Y-122052161D01*
X124342197Y-122052137D01*
X124342208Y-122052130D01*
X124342211Y-122052128D01*
X124448242Y-121954870D01*
X124500608Y-121890866D01*
X124816768Y-121507325D01*
X124818192Y-121506360D01*
X124818911Y-121504796D01*
X124846995Y-121486832D01*
X124874598Y-121468118D01*
X124876784Y-121467778D01*
X124877770Y-121467148D01*
X124912710Y-121462200D01*
X125139174Y-121462686D01*
X125139177Y-121462687D01*
X125333028Y-121463102D01*
X129051090Y-121471082D01*
X129051109Y-121471080D01*
X129051111Y-121471081D01*
X129106363Y-121468169D01*
X129106365Y-121468168D01*
X129106380Y-121468168D01*
X129133343Y-121465260D01*
X129187972Y-121456320D01*
X129322640Y-121405662D01*
X129383870Y-121372005D01*
X129383870Y-121372004D01*
X129396478Y-121365074D01*
X129403503Y-121357221D01*
X129498810Y-121285458D01*
X137963640Y-112773068D01*
X142716743Y-108019964D01*
X142727520Y-108013272D01*
X142733231Y-108006119D01*
X142753442Y-107997177D01*
X142764719Y-107990175D01*
X142770839Y-107988106D01*
X142778977Y-107986272D01*
X142818656Y-107971945D01*
X142819891Y-107971528D01*
X142823008Y-107971402D01*
X142859594Y-107965000D01*
X143425464Y-107965000D01*
X143471945Y-107974804D01*
G37*
%TD.AperFunction*%
%TA.AperFunction,Conductor*%
G36*
X184526018Y-105094485D02*
G01*
X184546660Y-105111119D01*
X186562606Y-107127065D01*
X186596091Y-107188388D01*
X186594006Y-107249324D01*
X186574690Y-107315842D01*
X186554641Y-107458322D01*
X186599236Y-122348136D01*
X186579753Y-122415234D01*
X186527086Y-122461147D01*
X186457958Y-122471297D01*
X186394315Y-122442463D01*
X186387556Y-122436188D01*
X186308657Y-122357289D01*
X186308656Y-122357288D01*
X186159334Y-122265186D01*
X185992797Y-122210001D01*
X185992795Y-122210000D01*
X185890010Y-122199500D01*
X185139998Y-122199500D01*
X185139980Y-122199501D01*
X185038603Y-122209858D01*
X185026002Y-122210500D01*
X181314491Y-122210500D01*
X181314467Y-122210499D01*
X181309356Y-122210499D01*
X181090644Y-122210499D01*
X180886400Y-122242849D01*
X180886399Y-122242849D01*
X180874624Y-122244713D01*
X180666619Y-122312297D01*
X180666616Y-122312298D01*
X180471739Y-122411595D01*
X180294806Y-122540142D01*
X180294802Y-122540146D01*
X180140145Y-122694804D01*
X178955151Y-123879798D01*
X178955149Y-123879801D01*
X178949926Y-123886990D01*
X178826592Y-124056743D01*
X178802664Y-124103703D01*
X178779862Y-124135086D01*
X171161767Y-131753181D01*
X171100444Y-131786666D01*
X171074086Y-131789500D01*
X158792129Y-131789500D01*
X158792123Y-131789501D01*
X158732516Y-131795908D01*
X158597671Y-131846202D01*
X158597664Y-131846206D01*
X158482455Y-131932452D01*
X158482452Y-131932455D01*
X158396206Y-132047664D01*
X158396202Y-132047671D01*
X158345908Y-132182517D01*
X158339501Y-132242116D01*
X158339500Y-132242127D01*
X158339500Y-134119111D01*
X158339501Y-135978500D01*
X158319816Y-136045539D01*
X158267012Y-136091294D01*
X158215501Y-136102500D01*
X145741281Y-136102500D01*
X145674242Y-136082815D01*
X145653600Y-136066181D01*
X144606187Y-135018768D01*
X144572702Y-134957445D01*
X144572251Y-134906894D01*
X144575000Y-134893075D01*
X144575000Y-134706923D01*
X144574999Y-134706921D01*
X144538685Y-134524361D01*
X144538684Y-134524354D01*
X144467448Y-134352375D01*
X144467447Y-134352374D01*
X144467444Y-134352368D01*
X144364029Y-134197598D01*
X144364026Y-134197594D01*
X144232405Y-134065973D01*
X144232401Y-134065970D01*
X144077631Y-133962555D01*
X144077622Y-133962550D01*
X144018144Y-133937914D01*
X143963741Y-133894073D01*
X143941676Y-133827779D01*
X143958955Y-133760080D01*
X143981608Y-133732129D01*
X144452366Y-133298734D01*
X144496962Y-133252076D01*
X144517291Y-133227888D01*
X144555567Y-133175947D01*
X144615338Y-133045070D01*
X144635023Y-132978031D01*
X144635024Y-132978027D01*
X144655500Y-132835611D01*
X144655500Y-132165845D01*
X144652603Y-132111805D01*
X144649769Y-132085447D01*
X144641113Y-132032031D01*
X144590831Y-131897223D01*
X144557346Y-131835901D01*
X144471123Y-131720723D01*
X144471113Y-131720712D01*
X144450663Y-131700262D01*
X144445748Y-131691261D01*
X144437658Y-131684957D01*
X144429287Y-131661114D01*
X144417178Y-131638939D01*
X144417909Y-131628709D01*
X144414512Y-131619033D01*
X144420359Y-131594452D01*
X144422162Y-131569247D01*
X144428739Y-131559227D01*
X144430682Y-131551060D01*
X144447654Y-131530411D01*
X144452375Y-131523220D01*
X144454695Y-131520987D01*
X144461347Y-131515224D01*
X144464656Y-131511404D01*
X144468709Y-131507506D01*
X144494885Y-131493863D01*
X144519721Y-131477896D01*
X144525524Y-131477894D01*
X144530668Y-131475214D01*
X144560062Y-131477888D01*
X144589591Y-131477883D01*
X144594951Y-131481062D01*
X144600251Y-131481545D01*
X144614560Y-131492695D01*
X144642359Y-131509186D01*
X145530277Y-132397103D01*
X145530287Y-132397114D01*
X145534617Y-132401444D01*
X145534618Y-132401445D01*
X145648555Y-132515382D01*
X145702217Y-132551236D01*
X145702219Y-132551239D01*
X145702219Y-132551238D01*
X145782526Y-132604899D01*
X145782532Y-132604903D01*
X145782536Y-132604905D01*
X145854851Y-132634858D01*
X145927167Y-132664812D01*
X145927172Y-132664816D01*
X145927173Y-132664815D01*
X145928580Y-132665397D01*
X145931398Y-132666565D01*
X145931402Y-132666565D01*
X145931403Y-132666566D01*
X146089429Y-132697999D01*
X146089433Y-132698000D01*
X146089434Y-132698000D01*
X152150567Y-132698000D01*
X152150568Y-132697999D01*
X152308602Y-132666565D01*
X152383035Y-132635733D01*
X152457468Y-132604903D01*
X152591445Y-132515382D01*
X153590382Y-131516445D01*
X153679903Y-131382468D01*
X153724163Y-131275613D01*
X153741565Y-131233602D01*
X153773000Y-131075566D01*
X153773000Y-127931014D01*
X153780819Y-127887678D01*
X153786591Y-127872203D01*
X153793000Y-127812593D01*
X153792999Y-127274444D01*
X153812683Y-127207406D01*
X153865487Y-127161651D01*
X153916643Y-127150446D01*
X162608320Y-127125649D01*
X162608344Y-127125647D01*
X162608360Y-127125647D01*
X162668358Y-127121897D01*
X162668359Y-127121896D01*
X162668389Y-127121895D01*
X162697648Y-127118308D01*
X162756857Y-127107438D01*
X162890262Y-127053543D01*
X162947313Y-127020364D01*
X162949210Y-127019340D01*
X162950666Y-127018415D01*
X162996833Y-126981871D01*
X163063480Y-126929120D01*
X170240729Y-119354212D01*
X170301128Y-119319088D01*
X170330741Y-119315500D01*
X179765599Y-119315500D01*
X179765600Y-119315500D01*
X179765601Y-119315499D01*
X179765612Y-119315499D01*
X179819579Y-119308150D01*
X179900739Y-119297101D01*
X179964624Y-119279377D01*
X180089921Y-119225524D01*
X180146665Y-119191414D01*
X181780304Y-118209395D01*
X181780312Y-118209389D01*
X181780321Y-118209384D01*
X181871935Y-118138890D01*
X181912365Y-118099653D01*
X181985567Y-118010196D01*
X182045338Y-117879319D01*
X182065023Y-117812280D01*
X182065024Y-117812276D01*
X182085500Y-117669860D01*
X182085500Y-107899172D01*
X182079072Y-107818816D01*
X182072805Y-107779893D01*
X182053682Y-107701568D01*
X181999633Y-107593052D01*
X181989541Y-107572790D01*
X181989537Y-107572782D01*
X181989535Y-107572779D01*
X181949803Y-107515310D01*
X181949800Y-107515307D01*
X181949799Y-107515305D01*
X181851974Y-107409812D01*
X181851967Y-107409806D01*
X180622229Y-106414749D01*
X180599807Y-106397619D01*
X180588616Y-106389553D01*
X180588603Y-106389544D01*
X180565303Y-106373718D01*
X180565299Y-106373716D01*
X180434280Y-106314262D01*
X180434272Y-106314259D01*
X180367196Y-106294740D01*
X180224739Y-106274608D01*
X180224733Y-106274607D01*
X180224731Y-106274607D01*
X177269782Y-106281720D01*
X159540082Y-106324401D01*
X159521776Y-106324777D01*
X159512857Y-106325122D01*
X159494695Y-106326151D01*
X159494692Y-106326151D01*
X159404525Y-106346071D01*
X159354199Y-106357189D01*
X159354195Y-106357190D01*
X159354189Y-106357192D01*
X159288816Y-106381815D01*
X159288813Y-106381817D01*
X159162760Y-106451176D01*
X159162749Y-106451183D01*
X157865336Y-107428945D01*
X157865330Y-107428949D01*
X157798500Y-107489370D01*
X157798488Y-107489381D01*
X157768597Y-107521694D01*
X157768587Y-107521706D01*
X157713532Y-107593052D01*
X157713531Y-107593053D01*
X157654183Y-107724128D01*
X157634720Y-107791219D01*
X157634717Y-107791232D01*
X157614703Y-107933713D01*
X157614703Y-107933714D01*
X157643610Y-116856413D01*
X157624143Y-116923516D01*
X157604107Y-116947570D01*
X156537974Y-117940176D01*
X156475495Y-117971451D01*
X156452939Y-117973420D01*
X154438733Y-117964663D01*
X154371780Y-117944687D01*
X154326255Y-117891685D01*
X154316612Y-117822484D01*
X154326476Y-117789156D01*
X154375338Y-117682167D01*
X154395023Y-117615128D01*
X154395024Y-117615124D01*
X154415500Y-117472708D01*
X154415500Y-113135422D01*
X154414416Y-113102334D01*
X154413353Y-113086129D01*
X154410102Y-113053154D01*
X154371189Y-112914636D01*
X154342912Y-112850744D01*
X154342909Y-112850739D01*
X154266556Y-112728808D01*
X154266555Y-112728807D01*
X154266554Y-112728805D01*
X154266551Y-112728801D01*
X154002009Y-112416161D01*
X154002007Y-112416159D01*
X154002002Y-112416153D01*
X153953404Y-112366163D01*
X153927993Y-112343400D01*
X153927992Y-112343399D01*
X153872981Y-112300573D01*
X153872979Y-112300572D01*
X153872978Y-112300571D01*
X153743407Y-112238033D01*
X153677687Y-112217207D01*
X153676898Y-112216950D01*
X153676793Y-112216924D01*
X153534849Y-112193424D01*
X153534840Y-112193423D01*
X153121994Y-112184640D01*
X153116818Y-112184558D01*
X153116780Y-112184557D01*
X153116681Y-112184556D01*
X153115347Y-112184541D01*
X153113905Y-112184526D01*
X153108753Y-112184500D01*
X153108678Y-112184500D01*
X150908775Y-112184500D01*
X150900818Y-112182163D01*
X150892625Y-112183444D01*
X150867784Y-112172463D01*
X150841736Y-112164815D01*
X150834653Y-112157818D01*
X150828720Y-112155196D01*
X150805286Y-112128808D01*
X150765283Y-112068199D01*
X150744785Y-112001408D01*
X150744778Y-112000598D01*
X150725695Y-107000275D01*
X150722260Y-106943341D01*
X150719007Y-106915595D01*
X150709182Y-106859420D01*
X150656833Y-106725401D01*
X150654733Y-106721692D01*
X150622409Y-106664600D01*
X150586776Y-106618497D01*
X150534424Y-106550759D01*
X149291866Y-105345854D01*
X149239258Y-105301379D01*
X149239257Y-105301378D01*
X149239252Y-105301374D01*
X149235654Y-105298731D01*
X149193282Y-105243177D01*
X149187671Y-105173533D01*
X149220603Y-105111911D01*
X149281622Y-105077876D01*
X149309069Y-105074800D01*
X184458979Y-105074800D01*
X184526018Y-105094485D01*
G37*
%TD.AperFunction*%
%TA.AperFunction,Conductor*%
G36*
X145480185Y-122146313D02*
G01*
X145532120Y-122160888D01*
X145674771Y-122179653D01*
X146580832Y-122168769D01*
X146648103Y-122187647D01*
X146672339Y-122207480D01*
X146813061Y-122356020D01*
X147003416Y-122556951D01*
X147026233Y-122581035D01*
X147058049Y-122643240D01*
X147060197Y-122668425D01*
X147025166Y-124726548D01*
X147025166Y-124726554D01*
X147041694Y-124863633D01*
X147041696Y-124863643D01*
X147058756Y-124928551D01*
X147111765Y-125056049D01*
X147111769Y-125056057D01*
X148168046Y-126854582D01*
X148168054Y-126854593D01*
X148224581Y-126929125D01*
X148239883Y-126949300D01*
X148280064Y-126991010D01*
X148280072Y-126991017D01*
X148280081Y-126991025D01*
X148372037Y-127066335D01*
X148430024Y-127092616D01*
X148503088Y-127125732D01*
X148570184Y-127145225D01*
X148712655Y-127165294D01*
X151992648Y-127155935D01*
X152059742Y-127175428D01*
X152105647Y-127228101D01*
X152117000Y-127279934D01*
X152117000Y-127812590D01*
X152117001Y-127812596D01*
X152123409Y-127872205D01*
X152129181Y-127887680D01*
X152137000Y-127931014D01*
X152137000Y-130604811D01*
X152117315Y-130671850D01*
X152100681Y-130692492D01*
X151767492Y-131025681D01*
X151706169Y-131059166D01*
X151679811Y-131062000D01*
X146560188Y-131062000D01*
X146493149Y-131042315D01*
X146472507Y-131025681D01*
X144872123Y-129425296D01*
X144838638Y-129363973D01*
X144835804Y-129337615D01*
X144835804Y-125317237D01*
X144835803Y-125317233D01*
X144817111Y-125223261D01*
X144804369Y-125159202D01*
X144773537Y-125084769D01*
X144742707Y-125010337D01*
X144653184Y-124876356D01*
X144539252Y-124762424D01*
X144539248Y-124762421D01*
X144400608Y-124669784D01*
X144395517Y-124663692D01*
X144388296Y-124660395D01*
X144373432Y-124637267D01*
X144355803Y-124616172D01*
X144353851Y-124606797D01*
X144350522Y-124601617D01*
X144345499Y-124566682D01*
X144345499Y-124532184D01*
X144365184Y-124465145D01*
X144417988Y-124419390D01*
X144487146Y-124409446D01*
X144538387Y-124429081D01*
X144582610Y-124458629D01*
X144719920Y-124515505D01*
X144865683Y-124544499D01*
X144865687Y-124544500D01*
X144865688Y-124544500D01*
X145014313Y-124544500D01*
X145014314Y-124544499D01*
X145160080Y-124515505D01*
X145297390Y-124458629D01*
X145420966Y-124376059D01*
X145526059Y-124270966D01*
X145608629Y-124147390D01*
X145665505Y-124010080D01*
X145694500Y-123864312D01*
X145694500Y-123715688D01*
X145665505Y-123569920D01*
X145608629Y-123432610D01*
X145574109Y-123380947D01*
X145526060Y-123309035D01*
X145526054Y-123309028D01*
X145420971Y-123203945D01*
X145420964Y-123203939D01*
X145297391Y-123121371D01*
X145160080Y-123064495D01*
X145160072Y-123064493D01*
X145014316Y-123035500D01*
X145014312Y-123035500D01*
X144865688Y-123035500D01*
X144848055Y-123039007D01*
X144812019Y-123046175D01*
X144778280Y-123043155D01*
X144744495Y-123040739D01*
X144743572Y-123040048D01*
X144742427Y-123039946D01*
X144715665Y-123019157D01*
X144688562Y-122998867D01*
X144688160Y-122997790D01*
X144687250Y-122997083D01*
X144675974Y-122965119D01*
X144664145Y-122933403D01*
X144664389Y-122932277D01*
X144664007Y-122931193D01*
X144671792Y-122898246D01*
X144678997Y-122865130D01*
X144679905Y-122863915D01*
X144680076Y-122863196D01*
X144700145Y-122836878D01*
X144759077Y-122777946D01*
X144772446Y-122766363D01*
X144777546Y-122762546D01*
X144781366Y-122757442D01*
X144792943Y-122744080D01*
X145359004Y-122178019D01*
X145420325Y-122144536D01*
X145480185Y-122146313D01*
G37*
%TD.AperFunction*%
%TA.AperFunction,Conductor*%
G36*
X202192539Y-99385185D02*
G01*
X202238294Y-99437989D01*
X202249500Y-99489500D01*
X202249500Y-117530973D01*
X202229815Y-117598012D01*
X202177011Y-117643767D01*
X202107853Y-117653711D01*
X202044297Y-117624686D01*
X202033382Y-117613981D01*
X201482602Y-117002751D01*
X201433851Y-116955466D01*
X201433845Y-116955461D01*
X201408506Y-116933991D01*
X201408491Y-116933979D01*
X201353857Y-116893664D01*
X201353852Y-116893661D01*
X201222815Y-116834246D01*
X201222813Y-116834245D01*
X201155738Y-116814747D01*
X201155724Y-116814743D01*
X201155722Y-116814743D01*
X201155718Y-116814742D01*
X201155716Y-116814741D01*
X201155709Y-116814740D01*
X201013251Y-116794652D01*
X201013247Y-116794652D01*
X200899211Y-116794961D01*
X193940592Y-116813844D01*
X193873500Y-116794341D01*
X193857451Y-116782145D01*
X191817057Y-114951667D01*
X191780301Y-114892247D01*
X191775862Y-114859206D01*
X191785441Y-107425723D01*
X191784478Y-107393880D01*
X191783514Y-107378287D01*
X191782222Y-107364478D01*
X191780548Y-107346570D01*
X191780546Y-107346563D01*
X191753888Y-107249324D01*
X191742505Y-107207805D01*
X191714630Y-107143737D01*
X191707885Y-107128234D01*
X191700146Y-107120283D01*
X191639036Y-107021317D01*
X191639035Y-107021315D01*
X191045448Y-106310809D01*
X190990647Y-106254704D01*
X190990646Y-106254703D01*
X190990641Y-106254698D01*
X190990633Y-106254690D01*
X190961806Y-106229433D01*
X190961801Y-106229429D01*
X190961794Y-106229423D01*
X190898975Y-106182469D01*
X190898972Y-106182467D01*
X190898970Y-106182466D01*
X190779146Y-106128755D01*
X190767682Y-106123616D01*
X190767679Y-106123615D01*
X190700503Y-106104399D01*
X190557957Y-106084921D01*
X190557953Y-106084920D01*
X188026172Y-106102625D01*
X187812207Y-106104122D01*
X187812198Y-106104122D01*
X187812187Y-106104123D01*
X187743260Y-106109333D01*
X187709776Y-106114183D01*
X187709764Y-106114186D01*
X187642189Y-106128753D01*
X187511018Y-106187890D01*
X187511006Y-106187897D01*
X187504034Y-106192330D01*
X187436899Y-106211686D01*
X187369957Y-106191672D01*
X187349827Y-106175368D01*
X185156915Y-103982455D01*
X185156911Y-103982452D01*
X185056223Y-103915174D01*
X185056214Y-103915169D01*
X184944331Y-103868826D01*
X184944323Y-103868824D01*
X184825557Y-103845200D01*
X184825553Y-103845200D01*
X140959447Y-103845200D01*
X140959442Y-103845200D01*
X140840676Y-103868824D01*
X140840668Y-103868826D01*
X140728785Y-103915169D01*
X140728776Y-103915174D01*
X140628089Y-103982451D01*
X140585271Y-104025269D01*
X140542453Y-104068088D01*
X136901860Y-107708681D01*
X136840537Y-107742166D01*
X136814179Y-107745000D01*
X136696923Y-107745000D01*
X136514361Y-107781314D01*
X136514353Y-107781316D01*
X136342377Y-107852550D01*
X136342368Y-107852555D01*
X136187598Y-107955970D01*
X136187594Y-107955973D01*
X136055973Y-108087594D01*
X136055970Y-108087598D01*
X135952555Y-108242368D01*
X135952550Y-108242377D01*
X135881316Y-108414353D01*
X135881314Y-108414361D01*
X135845000Y-108596921D01*
X135845000Y-108783078D01*
X135881314Y-108965638D01*
X135881316Y-108965646D01*
X135952550Y-109137622D01*
X135952555Y-109137631D01*
X136055970Y-109292401D01*
X136055973Y-109292405D01*
X136187594Y-109424026D01*
X136187598Y-109424029D01*
X136297676Y-109497581D01*
X136342481Y-109551193D01*
X136351188Y-109620518D01*
X136321034Y-109683545D01*
X136316400Y-109688431D01*
X132957114Y-113042613D01*
X132895765Y-113076051D01*
X132826077Y-113071014D01*
X132770175Y-113029100D01*
X132745808Y-112963617D01*
X132745499Y-112954865D01*
X132745499Y-112679998D01*
X132745498Y-112679981D01*
X132734999Y-112577203D01*
X132734998Y-112577200D01*
X132679814Y-112410666D01*
X132587712Y-112261344D01*
X132463656Y-112137288D01*
X132460819Y-112135538D01*
X132459283Y-112133830D01*
X132457989Y-112132807D01*
X132458163Y-112132585D01*
X132414096Y-112083594D01*
X132402872Y-112014632D01*
X132430713Y-111950549D01*
X132460817Y-111924462D01*
X132463656Y-111922712D01*
X132587712Y-111798656D01*
X132679814Y-111649334D01*
X132734999Y-111482797D01*
X132745500Y-111380009D01*
X132745499Y-110779992D01*
X132734999Y-110677203D01*
X132679814Y-110510666D01*
X132587712Y-110361344D01*
X132463656Y-110237288D01*
X132314334Y-110145186D01*
X132159796Y-110093977D01*
X132139763Y-110080106D01*
X132117597Y-110069984D01*
X132111548Y-110060571D01*
X132102351Y-110054204D01*
X132092997Y-110031705D01*
X132079823Y-110011206D01*
X132077364Y-109994104D01*
X132075528Y-109989688D01*
X132074800Y-109976271D01*
X132074800Y-109785287D01*
X132094485Y-109718248D01*
X132147289Y-109672493D01*
X132170289Y-109664609D01*
X132172474Y-109664091D01*
X132172483Y-109664091D01*
X132307331Y-109613796D01*
X132422546Y-109527546D01*
X132508796Y-109412331D01*
X132559091Y-109277483D01*
X132565500Y-109217873D01*
X132565499Y-107822128D01*
X132559091Y-107762517D01*
X132539011Y-107708681D01*
X132508797Y-107627671D01*
X132508793Y-107627664D01*
X132422547Y-107512455D01*
X132422544Y-107512452D01*
X132307335Y-107426206D01*
X132307328Y-107426202D01*
X132172482Y-107375908D01*
X132172483Y-107375908D01*
X132112883Y-107369501D01*
X132112881Y-107369500D01*
X132112873Y-107369500D01*
X132112864Y-107369500D01*
X130767129Y-107369500D01*
X130767123Y-107369501D01*
X130707516Y-107375908D01*
X130572671Y-107426202D01*
X130572664Y-107426206D01*
X130457455Y-107512452D01*
X130457452Y-107512455D01*
X130371206Y-107627664D01*
X130371202Y-107627671D01*
X130320908Y-107762517D01*
X130314857Y-107818803D01*
X130314501Y-107822123D01*
X130314500Y-107822135D01*
X130314500Y-109217870D01*
X130314501Y-109217876D01*
X130320908Y-109277483D01*
X130371202Y-109412328D01*
X130371206Y-109412335D01*
X130457452Y-109527544D01*
X130457455Y-109527547D01*
X130572664Y-109613793D01*
X130572671Y-109613797D01*
X130617618Y-109630561D01*
X130707517Y-109664091D01*
X130734457Y-109666987D01*
X130736575Y-109667864D01*
X130738847Y-109667538D01*
X130768695Y-109681169D01*
X130799005Y-109693724D01*
X130800313Y-109695608D01*
X130802403Y-109696563D01*
X130820147Y-109724174D01*
X130838854Y-109751116D01*
X130839323Y-109754012D01*
X130840177Y-109755341D01*
X130845200Y-109790276D01*
X130845200Y-110016035D01*
X130825515Y-110083074D01*
X130772711Y-110128829D01*
X130760206Y-110133740D01*
X130725672Y-110145184D01*
X130725663Y-110145187D01*
X130576342Y-110237289D01*
X130452289Y-110361342D01*
X130360187Y-110510663D01*
X130360186Y-110510666D01*
X130305001Y-110677203D01*
X130305001Y-110677204D01*
X130305000Y-110677204D01*
X130294500Y-110779983D01*
X130294500Y-111380001D01*
X130294501Y-111380019D01*
X130305000Y-111482796D01*
X130305001Y-111482799D01*
X130360185Y-111649331D01*
X130360187Y-111649336D01*
X130452289Y-111798657D01*
X130576346Y-111922714D01*
X130579182Y-111924463D01*
X130580717Y-111926170D01*
X130582011Y-111927193D01*
X130581836Y-111927414D01*
X130625905Y-111976411D01*
X130637126Y-112045374D01*
X130609282Y-112109456D01*
X130579182Y-112135537D01*
X130576346Y-112137285D01*
X130452289Y-112261342D01*
X130360187Y-112410663D01*
X130360185Y-112410668D01*
X130358365Y-112416161D01*
X130305001Y-112577203D01*
X130305001Y-112577204D01*
X130305000Y-112577204D01*
X130294500Y-112679983D01*
X130294500Y-113280001D01*
X130294501Y-113280019D01*
X130305000Y-113382796D01*
X130305001Y-113382799D01*
X130360185Y-113549331D01*
X130360186Y-113549334D01*
X130452288Y-113698656D01*
X130576344Y-113822712D01*
X130725666Y-113914814D01*
X130725668Y-113914815D01*
X130738374Y-113919025D01*
X130760202Y-113926258D01*
X130817647Y-113966028D01*
X130844472Y-114030543D01*
X130845200Y-114043964D01*
X130845200Y-115099900D01*
X130825515Y-115166939D01*
X130808815Y-115187648D01*
X127683466Y-118308248D01*
X127622117Y-118341686D01*
X127595851Y-118344500D01*
X124962826Y-118344500D01*
X124895787Y-118324815D01*
X124877057Y-118310053D01*
X124385612Y-117839373D01*
X124348865Y-117807426D01*
X124331638Y-117793849D01*
X124330140Y-117792668D01*
X124325206Y-117789151D01*
X124290534Y-117764433D01*
X124195011Y-117720808D01*
X124159660Y-117704663D01*
X124092615Y-117684976D01*
X124045142Y-117678150D01*
X123950198Y-117664500D01*
X121557906Y-117664500D01*
X121557885Y-117664500D01*
X121481738Y-117670272D01*
X121481727Y-117670273D01*
X121458761Y-117673774D01*
X121444773Y-117675907D01*
X121444769Y-117675907D01*
X121444768Y-117675908D01*
X121370324Y-117693097D01*
X121240480Y-117755082D01*
X121240474Y-117755085D01*
X121182357Y-117793844D01*
X121182354Y-117793847D01*
X121075233Y-117889900D01*
X121075225Y-117889908D01*
X120421330Y-118670949D01*
X120401673Y-118695988D01*
X120392441Y-118708543D01*
X120374433Y-118734717D01*
X120337294Y-118816039D01*
X120291538Y-118868842D01*
X120224498Y-118888526D01*
X120157459Y-118868841D01*
X120111705Y-118816036D01*
X120100500Y-118764526D01*
X120100500Y-116500000D01*
X127500000Y-116500000D01*
X128250000Y-116500000D01*
X128250000Y-102874000D01*
X128269685Y-102806961D01*
X128322489Y-102761206D01*
X128374000Y-102750000D01*
X194626000Y-102750000D01*
X194693039Y-102769685D01*
X194738794Y-102822489D01*
X194750000Y-102874000D01*
X194750000Y-116500000D01*
X195500000Y-116500000D01*
X195500000Y-102777648D01*
X197199500Y-102777648D01*
X197199500Y-102982351D01*
X197231522Y-103184534D01*
X197294781Y-103379223D01*
X197358691Y-103504653D01*
X197377522Y-103541610D01*
X197387715Y-103561613D01*
X197508028Y-103727213D01*
X197652786Y-103871971D01*
X197790858Y-103972284D01*
X197818390Y-103992287D01*
X197934607Y-104051503D01*
X198000776Y-104085218D01*
X198000778Y-104085218D01*
X198000781Y-104085220D01*
X198105137Y-104119127D01*
X198195465Y-104148477D01*
X198271375Y-104160500D01*
X198397648Y-104180500D01*
X198397649Y-104180500D01*
X198602351Y-104180500D01*
X198602352Y-104180500D01*
X198804534Y-104148477D01*
X198999219Y-104085220D01*
X199181610Y-103992287D01*
X199287755Y-103915169D01*
X199347213Y-103871971D01*
X199347215Y-103871968D01*
X199347219Y-103871966D01*
X199491966Y-103727219D01*
X199491968Y-103727215D01*
X199491971Y-103727213D01*
X199544732Y-103654590D01*
X199612287Y-103561610D01*
X199705220Y-103379219D01*
X199768477Y-103184534D01*
X199800500Y-102982352D01*
X199800500Y-102777648D01*
X199768477Y-102575466D01*
X199761978Y-102555465D01*
X199705218Y-102380776D01*
X199671503Y-102314607D01*
X199612287Y-102198390D01*
X199597753Y-102178386D01*
X199491971Y-102032786D01*
X199347213Y-101888028D01*
X199181613Y-101767715D01*
X199181612Y-101767714D01*
X199181610Y-101767713D01*
X199124653Y-101738691D01*
X198999223Y-101674781D01*
X198804534Y-101611522D01*
X198629995Y-101583878D01*
X198602352Y-101579500D01*
X198397648Y-101579500D01*
X198373329Y-101583351D01*
X198195465Y-101611522D01*
X198000776Y-101674781D01*
X197818386Y-101767715D01*
X197652786Y-101888028D01*
X197508028Y-102032786D01*
X197387715Y-102198386D01*
X197294781Y-102380776D01*
X197231522Y-102575465D01*
X197199500Y-102777648D01*
X195500000Y-102777648D01*
X195500000Y-102000000D01*
X127500000Y-102000000D01*
X127500000Y-116500000D01*
X120100500Y-116500000D01*
X120100500Y-102757648D01*
X122559500Y-102757648D01*
X122559500Y-102962351D01*
X122591522Y-103164534D01*
X122654781Y-103359223D01*
X122747715Y-103541613D01*
X122868028Y-103707213D01*
X123012786Y-103851971D01*
X123167749Y-103964556D01*
X123178390Y-103972287D01*
X123294607Y-104031503D01*
X123360776Y-104065218D01*
X123360778Y-104065218D01*
X123360781Y-104065220D01*
X123422329Y-104085218D01*
X123555465Y-104128477D01*
X123656557Y-104144488D01*
X123757648Y-104160500D01*
X123757649Y-104160500D01*
X123962351Y-104160500D01*
X123962352Y-104160500D01*
X124164534Y-104128477D01*
X124359219Y-104065220D01*
X124541610Y-103972287D01*
X124634590Y-103904732D01*
X124707213Y-103851971D01*
X124707215Y-103851968D01*
X124707219Y-103851966D01*
X124851966Y-103707219D01*
X124851968Y-103707215D01*
X124851971Y-103707213D01*
X124904732Y-103634590D01*
X124972287Y-103541610D01*
X125065220Y-103359219D01*
X125128477Y-103164534D01*
X125160500Y-102962352D01*
X125160500Y-102757648D01*
X125128477Y-102555466D01*
X125065220Y-102360781D01*
X125065218Y-102360778D01*
X125065218Y-102360776D01*
X125031503Y-102294607D01*
X124972287Y-102178390D01*
X124957237Y-102157676D01*
X124858318Y-102021523D01*
X124858316Y-102021521D01*
X124851967Y-102012782D01*
X124707213Y-101868028D01*
X124541613Y-101747715D01*
X124541612Y-101747714D01*
X124541610Y-101747713D01*
X124484653Y-101718691D01*
X124359223Y-101654781D01*
X124164534Y-101591522D01*
X123989995Y-101563878D01*
X123962352Y-101559500D01*
X123757648Y-101559500D01*
X123733329Y-101563351D01*
X123555465Y-101591522D01*
X123360776Y-101654781D01*
X123178386Y-101747715D01*
X123012786Y-101868028D01*
X122868028Y-102012786D01*
X122747715Y-102178386D01*
X122654781Y-102360776D01*
X122591522Y-102555465D01*
X122559500Y-102757648D01*
X120100500Y-102757648D01*
X120100500Y-99489500D01*
X120120185Y-99422461D01*
X120172989Y-99376706D01*
X120224500Y-99365500D01*
X202125500Y-99365500D01*
X202192539Y-99385185D01*
G37*
%TD.AperFunction*%
%TD*%
%TA.AperFunction,Conductor*%
%TO.N,Net-(IC1-SW)*%
G36*
X180293035Y-106799629D02*
G01*
X180304240Y-106807705D01*
X181534001Y-107802780D01*
X181573733Y-107860249D01*
X181580000Y-107899172D01*
X181580000Y-117669860D01*
X181560315Y-117736899D01*
X181519885Y-117776136D01*
X179829485Y-118792276D01*
X179765600Y-118810000D01*
X170060000Y-118810000D01*
X162696536Y-126581439D01*
X162636137Y-126616564D01*
X162606878Y-126620151D01*
X148711213Y-126659796D01*
X148644117Y-126640303D01*
X148603936Y-126598593D01*
X147547652Y-124800056D01*
X147530593Y-124735150D01*
X147570000Y-122420000D01*
X146850000Y-121660000D01*
X145668700Y-121674189D01*
X145601429Y-121655311D01*
X145555043Y-121603060D01*
X145544270Y-121534026D01*
X145572530Y-121470127D01*
X145579495Y-121462553D01*
X145911232Y-121130816D01*
X145972553Y-121097334D01*
X145998911Y-121094500D01*
X147994286Y-121094500D01*
X148056285Y-121111112D01*
X148062140Y-121114492D01*
X148062141Y-121114493D01*
X148168859Y-121176106D01*
X148287887Y-121208000D01*
X148287890Y-121208000D01*
X148411110Y-121208000D01*
X148411113Y-121208000D01*
X148530141Y-121176106D01*
X148636859Y-121114493D01*
X148723993Y-121027359D01*
X148785606Y-120920641D01*
X148817500Y-120801613D01*
X148817500Y-120678387D01*
X148785606Y-120559359D01*
X148723993Y-120452641D01*
X148636859Y-120365507D01*
X148530141Y-120303894D01*
X148530142Y-120303894D01*
X148500384Y-120295920D01*
X148411113Y-120272000D01*
X148287887Y-120272000D01*
X148287885Y-120272000D01*
X148253271Y-120281275D01*
X148221179Y-120285500D01*
X145726747Y-120285500D01*
X145623868Y-120313066D01*
X145531631Y-120366320D01*
X145531628Y-120366322D01*
X144241895Y-121656053D01*
X144180572Y-121689538D01*
X144155703Y-121692363D01*
X143645489Y-121698492D01*
X143578218Y-121679614D01*
X143531833Y-121627364D01*
X143520000Y-121574501D01*
X143520000Y-121124000D01*
X143539685Y-121056961D01*
X143592489Y-121011206D01*
X143644000Y-121000000D01*
X143730000Y-121000000D01*
X144920000Y-119840000D01*
X144938842Y-119048614D01*
X144960117Y-118982065D01*
X144973892Y-118965138D01*
X145287251Y-118642827D01*
X145292934Y-118637345D01*
X145464459Y-118482155D01*
X145527376Y-118451776D01*
X145547920Y-118450107D01*
X152373284Y-118465445D01*
X152440274Y-118485279D01*
X152485910Y-118538186D01*
X152497000Y-118589444D01*
X152497000Y-119261760D01*
X152497000Y-119261762D01*
X152496999Y-119261762D01*
X152505731Y-119305657D01*
X152505732Y-119305660D01*
X152538997Y-119355445D01*
X152544178Y-119360626D01*
X152577665Y-119421948D01*
X152580500Y-119448310D01*
X152580500Y-119962728D01*
X152563888Y-120024726D01*
X152543896Y-120059354D01*
X152543894Y-120059357D01*
X152527947Y-120118873D01*
X152512000Y-120178387D01*
X152512000Y-120178389D01*
X152512000Y-120301610D01*
X152511999Y-120301610D01*
X152512000Y-120301613D01*
X152543894Y-120420641D01*
X152605507Y-120527359D01*
X152692641Y-120614493D01*
X152799359Y-120676106D01*
X152918387Y-120708000D01*
X152918390Y-120708000D01*
X153041610Y-120708000D01*
X153041613Y-120708000D01*
X153160641Y-120676106D01*
X153267359Y-120614493D01*
X153354493Y-120527359D01*
X153416106Y-120420641D01*
X153448000Y-120301613D01*
X153448000Y-120178387D01*
X153416106Y-120059359D01*
X153406111Y-120042046D01*
X153389500Y-119980049D01*
X153389500Y-119448310D01*
X153409185Y-119381271D01*
X153425822Y-119360626D01*
X153431000Y-119355446D01*
X153431004Y-119355444D01*
X153464267Y-119305662D01*
X153473000Y-119261760D01*
X153473000Y-118592195D01*
X153492685Y-118525156D01*
X153545489Y-118479401D01*
X153597273Y-118468196D01*
X154400000Y-118470000D01*
X156700000Y-118480000D01*
X158150000Y-117130000D01*
X158120201Y-107932071D01*
X158139668Y-107864969D01*
X158169571Y-107832643D01*
X159466996Y-106854873D01*
X159532381Y-106830245D01*
X159541311Y-106829900D01*
X180225948Y-106780106D01*
X180293035Y-106799629D01*
G37*
%TD.AperFunction*%
%TD*%
%TA.AperFunction,Conductor*%
%TO.N,GND2*%
G36*
X138312339Y-122309622D02*
G01*
X138358195Y-122362338D01*
X138369500Y-122414066D01*
X138369500Y-122419820D01*
X138369500Y-122419822D01*
X138369499Y-122419822D01*
X138378231Y-122463717D01*
X138378232Y-122463721D01*
X138378233Y-122463722D01*
X138411496Y-122513504D01*
X138461278Y-122546767D01*
X138461281Y-122546767D01*
X138461282Y-122546768D01*
X138475391Y-122549575D01*
X138537302Y-122581960D01*
X138571876Y-122642675D01*
X138575200Y-122671192D01*
X138575200Y-123388807D01*
X138555515Y-123455846D01*
X138502711Y-123501601D01*
X138475396Y-123510424D01*
X138461280Y-123513232D01*
X138461275Y-123513234D01*
X138411496Y-123546495D01*
X138411495Y-123546496D01*
X138378234Y-123596275D01*
X138378231Y-123596282D01*
X138369500Y-123640177D01*
X138369500Y-123640180D01*
X138369500Y-123919820D01*
X138369500Y-123919822D01*
X138369499Y-123919822D01*
X138378231Y-123963717D01*
X138378232Y-123963721D01*
X138378233Y-123963722D01*
X138411496Y-124013504D01*
X138461278Y-124046767D01*
X138461281Y-124046767D01*
X138461282Y-124046768D01*
X138475391Y-124049575D01*
X138537302Y-124081960D01*
X138571876Y-124142675D01*
X138575200Y-124171192D01*
X138575200Y-124342673D01*
X138584523Y-124365180D01*
X138615513Y-124439997D01*
X138768064Y-124592548D01*
X138908181Y-124732664D01*
X138941666Y-124793987D01*
X138944500Y-124820345D01*
X138944500Y-124994820D01*
X138944500Y-124994822D01*
X138944499Y-124994822D01*
X138953231Y-125038717D01*
X138953234Y-125038724D01*
X138969999Y-125063815D01*
X138986496Y-125088504D01*
X139036278Y-125121767D01*
X139036281Y-125121767D01*
X139036282Y-125121768D01*
X139080177Y-125130500D01*
X139289254Y-125130500D01*
X139310499Y-125136738D01*
X139332588Y-125138318D01*
X139343371Y-125146390D01*
X139356293Y-125150185D01*
X139370792Y-125166918D01*
X139388521Y-125180190D01*
X139393228Y-125192810D01*
X139402048Y-125202989D01*
X139405199Y-125224906D01*
X139412938Y-125245654D01*
X139410075Y-125258814D01*
X139411992Y-125272147D01*
X139402792Y-125292290D01*
X139398086Y-125313927D01*
X139384817Y-125331652D01*
X139382967Y-125335703D01*
X139376935Y-125342181D01*
X139290235Y-125428881D01*
X139228912Y-125462366D01*
X139202554Y-125465200D01*
X137257748Y-125465200D01*
X137190709Y-125445515D01*
X137170067Y-125428881D01*
X136548792Y-124807606D01*
X136515307Y-124746283D01*
X136520291Y-124676591D01*
X136548795Y-124632241D01*
X136559826Y-124621211D01*
X136614866Y-124508625D01*
X136625500Y-124435636D01*
X136625500Y-123864364D01*
X136614866Y-123791375D01*
X136588444Y-123737328D01*
X136559827Y-123678789D01*
X136471210Y-123590172D01*
X136358628Y-123535135D01*
X136358626Y-123535134D01*
X136358625Y-123535134D01*
X136285636Y-123524500D01*
X135764364Y-123524500D01*
X135691375Y-123535134D01*
X135691373Y-123535134D01*
X135691371Y-123535135D01*
X135578789Y-123590172D01*
X135490172Y-123678789D01*
X135435135Y-123791371D01*
X135435134Y-123791373D01*
X135435134Y-123791375D01*
X135424500Y-123864364D01*
X135424500Y-124435636D01*
X135435134Y-124508625D01*
X135435134Y-124508626D01*
X135435135Y-124508628D01*
X135490172Y-124621210D01*
X135578789Y-124709827D01*
X135691371Y-124764865D01*
X135691373Y-124764865D01*
X135691375Y-124764866D01*
X135727578Y-124770140D01*
X135791077Y-124799282D01*
X135797381Y-124805163D01*
X136135037Y-125142819D01*
X136168522Y-125204142D01*
X136163538Y-125273834D01*
X136121666Y-125329767D01*
X136056202Y-125354184D01*
X136047356Y-125354500D01*
X135764364Y-125354500D01*
X135691375Y-125365134D01*
X135691373Y-125365134D01*
X135691371Y-125365135D01*
X135578789Y-125420172D01*
X135490172Y-125508789D01*
X135435135Y-125621371D01*
X135435134Y-125621373D01*
X135435134Y-125621375D01*
X135424500Y-125694364D01*
X135424500Y-126265636D01*
X135435134Y-126338625D01*
X135435134Y-126338626D01*
X135435135Y-126338628D01*
X135490172Y-126451210D01*
X135578789Y-126539827D01*
X135686572Y-126592518D01*
X135691375Y-126594866D01*
X135764364Y-126605500D01*
X135764370Y-126605500D01*
X136285630Y-126605500D01*
X136285636Y-126605500D01*
X136358625Y-126594866D01*
X136407318Y-126571061D01*
X136476175Y-126537400D01*
X136488260Y-126534603D01*
X136495700Y-126529823D01*
X136530635Y-126524800D01*
X136761354Y-126524800D01*
X136828393Y-126544485D01*
X136874148Y-126597289D01*
X136884092Y-126666447D01*
X136855067Y-126730003D01*
X136849035Y-126736481D01*
X136492446Y-127093068D01*
X136431123Y-127126553D01*
X136364765Y-127121807D01*
X136364583Y-127122369D01*
X136362315Y-127121632D01*
X136361431Y-127121569D01*
X136359474Y-127120708D01*
X136355301Y-127119352D01*
X136261524Y-127104500D01*
X135698482Y-127104500D01*
X135617519Y-127117323D01*
X135604696Y-127119354D01*
X135491658Y-127176950D01*
X135491657Y-127176951D01*
X135491652Y-127176954D01*
X135401954Y-127266652D01*
X135401951Y-127266657D01*
X135344352Y-127379698D01*
X135329500Y-127473475D01*
X135329500Y-128486517D01*
X135337442Y-128536658D01*
X135344354Y-128580304D01*
X135401950Y-128693342D01*
X135401952Y-128693344D01*
X135401954Y-128693347D01*
X135491652Y-128783045D01*
X135491654Y-128783046D01*
X135491658Y-128783050D01*
X135604694Y-128840645D01*
X135604698Y-128840647D01*
X135698475Y-128855499D01*
X135698481Y-128855500D01*
X136261518Y-128855499D01*
X136355304Y-128840646D01*
X136468342Y-128783050D01*
X136558050Y-128693342D01*
X136615646Y-128580304D01*
X136615646Y-128580302D01*
X136615647Y-128580301D01*
X136630499Y-128486524D01*
X136630500Y-128486519D01*
X136630499Y-127798799D01*
X136633049Y-127790113D01*
X136631761Y-127781153D01*
X136642738Y-127757116D01*
X136650183Y-127731761D01*
X136657025Y-127725832D01*
X136660786Y-127717597D01*
X136683017Y-127703310D01*
X136702987Y-127686006D01*
X136713502Y-127683718D01*
X136719564Y-127679823D01*
X136754499Y-127674800D01*
X136860256Y-127674800D01*
X136927295Y-127694485D01*
X136973050Y-127747289D01*
X136973690Y-127748713D01*
X136986187Y-127777016D01*
X137062984Y-127853813D01*
X137162338Y-127897682D01*
X137186627Y-127900500D01*
X137553372Y-127900499D01*
X137577662Y-127897682D01*
X137677016Y-127853813D01*
X137753813Y-127777016D01*
X137753813Y-127777015D01*
X137761938Y-127768891D01*
X137764930Y-127771883D01*
X137801749Y-127741788D01*
X137871165Y-127733835D01*
X137933861Y-127764673D01*
X137937766Y-127768418D01*
X137946059Y-127776727D01*
X137946187Y-127777016D01*
X138022984Y-127853813D01*
X138023006Y-127853822D01*
X138028966Y-127859794D01*
X138045910Y-127890896D01*
X138062366Y-127921033D01*
X138062375Y-127921119D01*
X138062392Y-127921150D01*
X138062386Y-127921224D01*
X138065200Y-127947391D01*
X138065200Y-128212670D01*
X138065201Y-128212675D01*
X138105510Y-128309994D01*
X138833181Y-129037665D01*
X138866666Y-129098988D01*
X138869500Y-129125346D01*
X138869500Y-129756517D01*
X138874711Y-129789417D01*
X138884354Y-129850304D01*
X138941950Y-129963342D01*
X138941952Y-129963344D01*
X138941954Y-129963347D01*
X139031652Y-130053045D01*
X139031654Y-130053046D01*
X139031658Y-130053050D01*
X139144694Y-130110645D01*
X139144698Y-130110647D01*
X139238475Y-130125499D01*
X139238481Y-130125500D01*
X139801518Y-130125499D01*
X139895304Y-130110646D01*
X140008342Y-130053050D01*
X140098050Y-129963342D01*
X140155646Y-129850304D01*
X140155646Y-129850302D01*
X140155647Y-129850301D01*
X140170499Y-129756524D01*
X140170500Y-129756519D01*
X140170499Y-128743482D01*
X140155646Y-128649696D01*
X140098050Y-128536658D01*
X140098046Y-128536654D01*
X140098045Y-128536652D01*
X140008347Y-128446954D01*
X140008344Y-128446952D01*
X140008342Y-128446950D01*
X139909963Y-128396823D01*
X139895301Y-128389352D01*
X139801524Y-128374500D01*
X139238482Y-128374500D01*
X139144695Y-128389354D01*
X139085282Y-128419627D01*
X139016613Y-128432523D01*
X138951873Y-128406246D01*
X138941307Y-128396823D01*
X138631119Y-128086635D01*
X138616415Y-128059707D01*
X138599823Y-128033889D01*
X138598931Y-128027688D01*
X138597634Y-128025312D01*
X138594800Y-127998954D01*
X138594800Y-127947391D01*
X138614485Y-127880352D01*
X138631119Y-127859710D01*
X138644621Y-127846208D01*
X138713813Y-127777016D01*
X138757682Y-127677662D01*
X138760500Y-127653373D01*
X138760499Y-127226628D01*
X138758014Y-127205200D01*
X138757683Y-127202341D01*
X138757682Y-127202338D01*
X138743219Y-127169584D01*
X138734149Y-127100308D01*
X138763973Y-127037123D01*
X138823222Y-127000092D01*
X138856655Y-126995500D01*
X139376591Y-126995500D01*
X139443630Y-127015185D01*
X139489385Y-127067989D01*
X139499329Y-127137147D01*
X139490025Y-127169586D01*
X139462319Y-127232333D01*
X139462318Y-127232337D01*
X139459500Y-127256625D01*
X139459500Y-127683365D01*
X139459502Y-127683388D01*
X139462317Y-127707659D01*
X139462318Y-127707662D01*
X139506186Y-127807015D01*
X139506187Y-127807016D01*
X139582984Y-127883813D01*
X139682338Y-127927682D01*
X139706627Y-127930500D01*
X140073372Y-127930499D01*
X140097662Y-127927682D01*
X140197016Y-127883813D01*
X140273813Y-127807016D01*
X140273813Y-127807015D01*
X140281938Y-127798891D01*
X140284930Y-127801883D01*
X140321749Y-127771788D01*
X140391165Y-127763835D01*
X140453861Y-127794673D01*
X140457766Y-127798418D01*
X140466059Y-127806727D01*
X140466187Y-127807016D01*
X140542984Y-127883813D01*
X140543006Y-127883822D01*
X140548966Y-127889794D01*
X140565949Y-127920968D01*
X140582366Y-127951033D01*
X140582375Y-127951119D01*
X140582392Y-127951150D01*
X140582386Y-127951224D01*
X140585200Y-127977391D01*
X140585200Y-128302609D01*
X140565515Y-128369648D01*
X140548881Y-128390290D01*
X140526187Y-128412983D01*
X140482318Y-128512335D01*
X140482318Y-128512337D01*
X140479500Y-128536625D01*
X140479500Y-128903365D01*
X140479502Y-128903388D01*
X140482317Y-128927659D01*
X140482318Y-128927662D01*
X140526186Y-129027015D01*
X140526187Y-129027016D01*
X140602984Y-129103813D01*
X140702338Y-129147682D01*
X140726627Y-129150500D01*
X141153372Y-129150499D01*
X141177662Y-129147682D01*
X141277016Y-129103813D01*
X141336815Y-129044013D01*
X141398134Y-129010531D01*
X141467826Y-129015515D01*
X141523760Y-129057386D01*
X141531878Y-129069694D01*
X141542444Y-129087992D01*
X141542850Y-129088696D01*
X141626726Y-129172572D01*
X141729453Y-129231882D01*
X141844030Y-129262583D01*
X141844033Y-129262583D01*
X141962645Y-129262583D01*
X141962648Y-129262583D01*
X142077225Y-129231882D01*
X142179952Y-129172572D01*
X142263828Y-129088696D01*
X142323138Y-128985969D01*
X142353839Y-128871392D01*
X142353839Y-128752774D01*
X142323138Y-128638197D01*
X142263828Y-128535470D01*
X142215420Y-128487062D01*
X142181935Y-128425739D01*
X142186919Y-128356047D01*
X142215416Y-128311704D01*
X142291964Y-128235157D01*
X142351274Y-128132430D01*
X142381975Y-128017853D01*
X142381975Y-127933889D01*
X142401660Y-127866850D01*
X142418294Y-127846208D01*
X142611130Y-127653372D01*
X142776220Y-127488282D01*
X142837542Y-127454798D01*
X142907234Y-127459782D01*
X142963167Y-127501654D01*
X142987584Y-127567118D01*
X142987900Y-127575964D01*
X142987900Y-130722002D01*
X142978461Y-130769454D01*
X142975201Y-130777324D01*
X142975200Y-130777329D01*
X142975200Y-130882670D01*
X142975201Y-130882675D01*
X143015510Y-130979994D01*
X143015512Y-130979996D01*
X143015513Y-130979997D01*
X144113681Y-132078165D01*
X144147166Y-132139487D01*
X144150000Y-132165845D01*
X144150000Y-132835611D01*
X144130315Y-132902650D01*
X144109986Y-132926838D01*
X143555420Y-133437390D01*
X143492767Y-133468314D01*
X143471853Y-133470162D01*
X134690012Y-133499831D01*
X134622906Y-133480373D01*
X134603865Y-133465424D01*
X134574567Y-133437390D01*
X132128072Y-131096430D01*
X132093245Y-131035861D01*
X132089802Y-131007310D01*
X132060237Y-123103523D01*
X132079671Y-123036413D01*
X132111416Y-123002698D01*
X133047535Y-122323552D01*
X133113354Y-122300119D01*
X133120078Y-122299922D01*
X138245264Y-122290066D01*
X138312339Y-122309622D01*
G37*
%TD.AperFunction*%
%TA.AperFunction,Conductor*%
G36*
X141887991Y-124250185D02*
G01*
X141933746Y-124302989D01*
X141943094Y-124359088D01*
X141944500Y-124359088D01*
X141944500Y-124365180D01*
X141944500Y-124994820D01*
X141950167Y-125023311D01*
X141955616Y-125050700D01*
X141953677Y-125051085D01*
X141958800Y-125076826D01*
X141958800Y-126558839D01*
X141939115Y-126625878D01*
X141922481Y-126646520D01*
X141421606Y-127147394D01*
X141360283Y-127180879D01*
X141290591Y-127175895D01*
X141242873Y-127140173D01*
X141241938Y-127141109D01*
X141235429Y-127134600D01*
X141234658Y-127134023D01*
X141234167Y-127133338D01*
X141157016Y-127056187D01*
X141057663Y-127012318D01*
X141033374Y-127009500D01*
X140848258Y-127009500D01*
X140781219Y-126989815D01*
X140735464Y-126937011D01*
X140725520Y-126867853D01*
X140754545Y-126804297D01*
X140760569Y-126797827D01*
X141356155Y-126202240D01*
X141356158Y-126202239D01*
X141373596Y-126184801D01*
X141373597Y-126184801D01*
X141448087Y-126110311D01*
X141484412Y-126022614D01*
X141488400Y-126012987D01*
X141488400Y-125907642D01*
X141488400Y-125462469D01*
X141497841Y-125415012D01*
X141499099Y-125411974D01*
X141499100Y-125411972D01*
X141499100Y-124756433D01*
X141504800Y-124742672D01*
X141504800Y-124637328D01*
X141495964Y-124615995D01*
X141495522Y-124592548D01*
X141495778Y-124591609D01*
X141495500Y-124590210D01*
X141495500Y-124359088D01*
X141497080Y-124359088D01*
X141508662Y-124298011D01*
X141556726Y-124247299D01*
X141619048Y-124230500D01*
X141820952Y-124230500D01*
X141887991Y-124250185D01*
G37*
%TD.AperFunction*%
%TD*%
%TA.AperFunction,Conductor*%
%TO.N,VOUT*%
G36*
X190628662Y-106609624D02*
G01*
X190657515Y-106634905D01*
X191251102Y-107345411D01*
X191278977Y-107409479D01*
X191279941Y-107425072D01*
X191270000Y-115139999D01*
X191270000Y-115140000D01*
X193700000Y-117320000D01*
X201014619Y-117300150D01*
X201081711Y-117319653D01*
X201107073Y-117341142D01*
X201806063Y-118116850D01*
X201836317Y-118179830D01*
X201837943Y-118199205D01*
X201857973Y-122004797D01*
X201838642Y-122071939D01*
X201818993Y-122095716D01*
X201085816Y-122786266D01*
X201023518Y-122817901D01*
X201000798Y-122820000D01*
X196279999Y-122820000D01*
X191110000Y-127929999D01*
X191129904Y-137394500D01*
X191110360Y-137461581D01*
X191100644Y-137474763D01*
X190406311Y-138296999D01*
X190348019Y-138335519D01*
X190313727Y-138340978D01*
X188115110Y-138379215D01*
X188090557Y-138372467D01*
X188065247Y-138369689D01*
X188052251Y-138361939D01*
X188047739Y-138360699D01*
X188034934Y-138351612D01*
X187866385Y-138215168D01*
X187854355Y-138204037D01*
X187183800Y-137495704D01*
X187152008Y-137433489D01*
X187149852Y-137410837D01*
X187060140Y-107456803D01*
X187079623Y-107389706D01*
X187090819Y-107374778D01*
X187116515Y-107345411D01*
X187723293Y-106651950D01*
X187782251Y-106614462D01*
X187815742Y-106609610D01*
X190561487Y-106590409D01*
X190628662Y-106609624D01*
G37*
%TD.AperFunction*%
%TD*%
%TA.AperFunction,Conductor*%
%TO.N,VIN*%
G36*
X148912792Y-105688790D02*
G01*
X148939964Y-105708753D01*
X150182522Y-106913658D01*
X150216946Y-106974458D01*
X150220199Y-107002204D01*
X150239999Y-112189999D01*
X150240000Y-112190000D01*
X150570000Y-112690000D01*
X153108678Y-112690000D01*
X153111316Y-112690028D01*
X153524097Y-112698810D01*
X153590701Y-112719916D01*
X153616118Y-112742685D01*
X153880660Y-113055325D01*
X153908937Y-113119217D01*
X153910000Y-113135422D01*
X153910000Y-117472708D01*
X153890315Y-117539747D01*
X153889430Y-117541105D01*
X153536881Y-118074228D01*
X153483484Y-118119289D01*
X153433138Y-118129831D01*
X145635949Y-118110141D01*
X145568959Y-118090287D01*
X145543083Y-118067956D01*
X145079290Y-117539747D01*
X144890963Y-117325264D01*
X144861523Y-117261901D01*
X144860144Y-117243078D01*
X144890000Y-107570000D01*
X144889999Y-107569999D01*
X143757710Y-107538547D01*
X143704859Y-107525080D01*
X143635030Y-107489500D01*
X143605301Y-107474352D01*
X143511524Y-107459500D01*
X142798482Y-107459500D01*
X142704694Y-107474354D01*
X142667810Y-107493147D01*
X142608076Y-107506613D01*
X142495848Y-107503496D01*
X142491016Y-107503362D01*
X142491015Y-107503362D01*
X129140368Y-120929018D01*
X129079138Y-120962675D01*
X129052175Y-120965583D01*
X125191545Y-120957298D01*
X124616082Y-120956064D01*
X124616081Y-120956064D01*
X124109964Y-121570043D01*
X124057007Y-121634768D01*
X123999320Y-121674188D01*
X123961558Y-121680245D01*
X121691666Y-121689782D01*
X121624544Y-121670379D01*
X121603464Y-121653464D01*
X120816319Y-120866319D01*
X120782834Y-120804996D01*
X120780000Y-120778638D01*
X120780000Y-119075054D01*
X120799685Y-119008015D01*
X120808922Y-118995454D01*
X120930699Y-118849999D01*
X121462828Y-118214400D01*
X121520956Y-118175633D01*
X121557906Y-118170000D01*
X123950198Y-118170000D01*
X124017237Y-118189685D01*
X124035965Y-118204445D01*
X124710000Y-118850000D01*
X127856318Y-118850000D01*
X127856319Y-118850000D01*
X129198359Y-117510000D01*
X141000042Y-105726252D01*
X141061391Y-105692814D01*
X141087657Y-105690000D01*
X148629999Y-105690000D01*
X148630000Y-105690000D01*
X148630003Y-105689999D01*
X148630016Y-105689999D01*
X148686454Y-105685818D01*
X148844482Y-105674112D01*
X148912792Y-105688790D01*
G37*
%TD.AperFunction*%
%TD*%
M02*
