%TF.GenerationSoftware,KiCad,Pcbnew,9.0.0*%
%TF.CreationDate,2025-03-31T14:23:32+05:30*%
%TF.ProjectId,Buck,4275636b-2e6b-4696-9361-645f70636258,rev?*%
%TF.SameCoordinates,Original*%
%TF.FileFunction,Other,User*%
%FSLAX46Y46*%
G04 Gerber Fmt 4.6, Leading zero omitted, Abs format (unit mm)*
G04 Created by KiCad (PCBNEW 9.0.0) date 2025-03-31 14:23:32*
%MOMM*%
%LPD*%
G01*
G04 APERTURE LIST*
%ADD10C,0.050000*%
%ADD11C,0.100000*%
G04 APERTURE END LIST*
D10*
%TO.C,R2*%
X136940000Y-126980000D02*
X138760000Y-126980000D01*
X136940000Y-127900000D02*
X136940000Y-126980000D01*
X138760000Y-126980000D02*
X138760000Y-127900000D01*
X138760000Y-127900000D02*
X136940000Y-127900000D01*
D11*
%TO.C,IC1*%
X137520000Y-120080000D02*
X145420000Y-120080000D01*
X137520000Y-125980000D02*
X137520000Y-120080000D01*
X145420000Y-120080000D02*
X145420000Y-125980000D01*
X145420000Y-125980000D02*
X137520000Y-125980000D01*
D10*
%TO.C,C5*%
X136870000Y-128270000D02*
X140270000Y-128270000D01*
X136870000Y-130230000D02*
X136870000Y-128270000D01*
X140270000Y-128270000D02*
X140270000Y-130230000D01*
X140270000Y-130230000D02*
X136870000Y-130230000D01*
%TO.C,H2*%
X200850000Y-102880000D02*
G75*
G02*
X196150000Y-102880000I-2350000J0D01*
G01*
X196150000Y-102880000D02*
G75*
G02*
X200850000Y-102880000I2350000J0D01*
G01*
%TO.C,R4*%
X133770000Y-125250000D02*
X136730000Y-125250000D01*
X133770000Y-126710000D02*
X133770000Y-125250000D01*
X136730000Y-125250000D02*
X136730000Y-126710000D01*
X136730000Y-126710000D02*
X133770000Y-126710000D01*
%TO.C,C7*%
X140480000Y-128290000D02*
X141400000Y-128290000D01*
X140480000Y-130110000D02*
X140480000Y-128290000D01*
X141400000Y-128290000D02*
X141400000Y-130110000D01*
X141400000Y-130110000D02*
X140480000Y-130110000D01*
%TO.C,C2*%
X142330000Y-114700000D02*
X146930000Y-114700000D01*
X142330000Y-117900000D02*
X142330000Y-114700000D01*
X146930000Y-114700000D02*
X146930000Y-117900000D01*
X146930000Y-117900000D02*
X142330000Y-117900000D01*
%TO.C,C3*%
X142330000Y-111000000D02*
X146930000Y-111000000D01*
X142330000Y-114200000D02*
X142330000Y-111000000D01*
X146930000Y-111000000D02*
X146930000Y-114200000D01*
X146930000Y-114200000D02*
X142330000Y-114200000D01*
D11*
%TO.C,L1*%
X156190000Y-106790000D02*
X183490000Y-106790000D01*
X156190000Y-138790000D02*
X156190000Y-106790000D01*
X183490000Y-106790000D02*
X183490000Y-138790000D01*
X183490000Y-138790000D02*
X156190000Y-138790000D01*
D10*
%TO.C,C13*%
X184660000Y-134210000D02*
X189260000Y-134210000D01*
X184660000Y-137410000D02*
X184660000Y-134210000D01*
X189260000Y-134210000D02*
X189260000Y-137410000D01*
X189260000Y-137410000D02*
X184660000Y-137410000D01*
%TO.C,R1*%
X130540000Y-110330000D02*
X132500000Y-110330000D01*
X130540000Y-113730000D02*
X130540000Y-110330000D01*
X132500000Y-110330000D02*
X132500000Y-113730000D01*
X132500000Y-113730000D02*
X130540000Y-113730000D01*
%TO.C,R7*%
X184690000Y-122450000D02*
X189290000Y-122450000D01*
X184690000Y-124750000D02*
X184690000Y-122450000D01*
X189290000Y-122450000D02*
X189290000Y-124750000D01*
X189290000Y-124750000D02*
X184690000Y-124750000D01*
%TO.C,R5*%
X133770000Y-123420000D02*
X136730000Y-123420000D01*
X133770000Y-124880000D02*
X133770000Y-123420000D01*
X136730000Y-123420000D02*
X136730000Y-124880000D01*
X136730000Y-124880000D02*
X133770000Y-124880000D01*
%TO.C,C6*%
X133330000Y-127000000D02*
X136730000Y-127000000D01*
X133330000Y-128960000D02*
X133330000Y-127000000D01*
X136730000Y-127000000D02*
X136730000Y-128960000D01*
X136730000Y-128960000D02*
X133330000Y-128960000D01*
%TO.C,C10*%
X184660000Y-107880000D02*
X189260000Y-107880000D01*
X184660000Y-111080000D02*
X184660000Y-107880000D01*
X189260000Y-107880000D02*
X189260000Y-111080000D01*
X189260000Y-111080000D02*
X184660000Y-111080000D01*
%TO.C,C9*%
X144040000Y-119040000D02*
X145860000Y-119040000D01*
X144040000Y-119960000D02*
X144040000Y-119040000D01*
X145860000Y-119040000D02*
X145860000Y-119960000D01*
X145860000Y-119960000D02*
X144040000Y-119960000D01*
%TO.C,H1*%
X126210000Y-102860000D02*
G75*
G02*
X121510000Y-102860000I-2350000J0D01*
G01*
X121510000Y-102860000D02*
G75*
G02*
X126210000Y-102860000I2350000J0D01*
G01*
%TO.C,C4*%
X148580000Y-107390000D02*
X153180000Y-107390000D01*
X148580000Y-110590000D02*
X148580000Y-107390000D01*
X153180000Y-107390000D02*
X153180000Y-110590000D01*
X153180000Y-110590000D02*
X148580000Y-110590000D01*
%TO.C,R3*%
X139460000Y-127010000D02*
X141280000Y-127010000D01*
X139460000Y-127930000D02*
X139460000Y-127010000D01*
X141280000Y-127010000D02*
X141280000Y-127930000D01*
X141280000Y-127930000D02*
X139460000Y-127930000D01*
%TO.C,H4*%
X126280000Y-142880000D02*
G75*
G02*
X121580000Y-142880000I-2350000J0D01*
G01*
X121580000Y-142880000D02*
G75*
G02*
X126280000Y-142880000I2350000J0D01*
G01*
%TO.C,H3*%
X200780000Y-143170000D02*
G75*
G02*
X196080000Y-143170000I-2350000J0D01*
G01*
X196080000Y-143170000D02*
G75*
G02*
X200780000Y-143170000I2350000J0D01*
G01*
%TO.C,C12*%
X184660000Y-129280000D02*
X189260000Y-129280000D01*
X184660000Y-132480000D02*
X184660000Y-129280000D01*
X189260000Y-129280000D02*
X189260000Y-132480000D01*
X189260000Y-132480000D02*
X184660000Y-132480000D01*
%TO.C,LED1*%
X130340000Y-104620000D02*
X132540000Y-104620000D01*
X130340000Y-109420000D02*
X130340000Y-104620000D01*
X132540000Y-104620000D02*
X132540000Y-109420000D01*
X132540000Y-109420000D02*
X130340000Y-109420000D01*
%TO.C,R6*%
X139540000Y-115315000D02*
X141000000Y-115315000D01*
X139540000Y-118275000D02*
X139540000Y-115315000D01*
X141000000Y-115315000D02*
X141000000Y-118275000D01*
X141000000Y-118275000D02*
X139540000Y-118275000D01*
%TO.C,C11*%
X184660000Y-113390000D02*
X189260000Y-113390000D01*
X184660000Y-116590000D02*
X184660000Y-113390000D01*
X189260000Y-113390000D02*
X189260000Y-116590000D01*
X189260000Y-116590000D02*
X184660000Y-116590000D01*
%TO.C,C1*%
X142330000Y-107360000D02*
X146930000Y-107360000D01*
X142330000Y-110560000D02*
X142330000Y-107360000D01*
X146930000Y-107360000D02*
X146930000Y-110560000D01*
X146930000Y-110560000D02*
X142330000Y-110560000D01*
%TO.C,C8*%
X137960000Y-115330000D02*
X139420000Y-115330000D01*
X137960000Y-118290000D02*
X137960000Y-115330000D01*
X139420000Y-115330000D02*
X139420000Y-118290000D01*
X139420000Y-118290000D02*
X137960000Y-118290000D01*
%TD*%
M02*
